<svg width="395" height="267" viewBox="0 0 395 267" fill="none" xmlns="http://www.w3.org/2000/svg">
<path d="M118.492 250.584C118.611 252.741 120.362 254.559 122.54 254.809C124.198 255.001 149.73 254.063 155.892 254.04C160.403 254.024 176.518 255.359 179.606 254.425C180.428 254.175 181.254 252.488 181.726 251.736C188.508 252.988 195.255 254.37 202.163 254.809C203.589 254.898 204.929 255.154 206.404 255.193C221.266 255.57 244.552 253.416 261.345 254.425C262.251 254.172 263.855 251.483 263.851 250.584C268.362 250.805 286.315 252.77 278.694 255.193C274.055 256.668 219.297 257.772 209.292 257.881C194.767 258.041 115.344 257.721 107.501 255.193C99.9931 252.773 113.76 250.843 118.489 250.584H118.492Z" fill="#47B0D2"/>
<path d="M234.553 162.245C234.039 168.182 234.746 174.426 233.011 180.296C231.835 180.056 226.749 181.045 224.915 181.064C224.144 181.07 223.373 181.058 222.602 181.064C222.849 172.756 223.01 170.861 222.602 162.242H234.553V162.245Z" fill="#EE8C6D"/>
<path d="M197.924 88.8845C197.76 87.2747 197.577 85.9145 197.539 84.2759C197.497 82.4676 197.767 80.6625 197.153 78.8991C208.433 76.0251 217.972 52.6457 209.876 37.2259C208.549 34.7008 198.371 23.4768 195.418 19.3674C189.163 28.015 181.427 35.0048 173.632 42.2218C171.856 54.3932 173.896 70.8595 185.97 77.3661C185.841 81.2066 185.713 85.0472 185.584 88.8877C185.455 88.9933 185.446 88.8749 185.198 89.2718C172.832 89.2174 142.33 93.0163 145.485 72.5654C146.337 67.0414 160.736 51.0199 163.22 42.99C164.312 39.4534 164.338 23.9728 175.364 16.2949C186.323 8.66504 192.883 14.0066 193.873 13.9906C194.605 13.9778 198.824 8.97228 207.367 14.7587C219.1 22.7054 220.819 47.237 224.523 60.2724C226.669 67.8191 232.677 74.3704 227.607 82.1668C222.897 89.4094 205.78 88.3917 197.918 88.8877L197.924 88.8845Z" fill="#10101B"/>
<path d="M218.355 49.3231C217.494 50.0944 219.12 51.5698 219.126 51.8194C219.216 54.9079 217.523 56.8313 214.692 57.7723C213.992 57.6475 214.798 49.8895 215.271 48.555C218.252 48.2061 218.152 49.163 218.355 49.3231Z" fill="#A75158"/>
<path d="M168.813 45.4832C174.297 47.4195 168.682 49.3877 168.235 50.2839C166.121 54.5117 173.938 63.3897 172.283 64.3019C170.998 65.0124 160.046 50.6455 168.813 45.48V45.4832Z" fill="#EE8C6D"/>
<path d="M218.358 49.3237C218.156 49.1636 218.256 48.2067 215.274 48.5555C218.484 39.479 227.235 56.3455 213.925 63.9178C213.379 58.0289 215.637 59.1523 215.852 58.925C217.995 56.6495 222.329 52.4569 218.358 49.3237Z" fill="#EE8C6D"/>
<path d="M169.968 49.7077C171.189 49.6021 172.246 56.8287 171.896 57.0047C168.632 55.6413 167.642 52.5273 169.968 49.7077Z" fill="#C96F66"/>
<path d="M166.116 75.439C167.784 77.5161 168.291 81.5166 165.345 82.736C162.849 81.0142 163.977 77.2152 166.116 75.439Z" fill="#A50730"/>
<path d="M210.838 75.8232C213.97 75.0615 213.173 84.2276 209.488 78.7036L210.838 75.8232Z" fill="#A50730"/>
<path d="M263.854 250.584C263.854 251.484 262.254 254.172 261.348 254.425C244.555 253.417 221.269 255.571 206.406 255.193C207.267 253.445 208.591 251.916 209.491 250.2C212.758 252.636 219.068 251.506 222.984 250.584C225.464 250.002 225.869 249.483 227.225 249.048C228.979 248.485 230.537 247.8 232.237 247.128C235.549 245.816 238.142 245.07 241.49 243.287C244.68 243.745 251.604 241.636 249.779 242.903C244.391 244.484 237.352 245.009 233.586 248.664C237.528 248.45 261.435 253.02 262.312 250.008C263.093 247.323 256.609 243.342 254.601 242.135C255.141 242.282 255.334 241.885 255.758 241.751C258.049 243.934 263.844 246.824 263.854 250.584Z" fill="#B85C5C"/>
<path d="M254.601 242.135C256.609 243.341 263.092 247.326 262.311 250.008C261.434 253.02 237.528 248.449 233.586 248.664C237.355 245.009 244.391 244.484 249.778 242.903C251.603 241.635 244.68 243.745 241.489 243.287C243.292 242.327 245.627 240.714 247.272 239.446C248.3 239.536 248.631 238.848 250.549 239.446C250.884 239.552 253.717 241.603 254.598 242.135H254.601Z" fill="#EE8C6D"/>
<path d="M209.489 244.439C211.141 246.024 210.932 246.286 211.031 246.36C210.543 247.582 210.093 249.048 209.489 250.2C208.59 251.919 207.263 253.445 206.405 255.193C204.93 255.155 203.591 254.898 202.164 254.809C202.177 254.089 202.636 253.5 202.935 252.889C204.416 249.861 206.318 247.128 208.333 244.439C208.715 244.414 209.113 244.484 209.489 244.439Z" fill="#10101B"/>
<path d="M186.738 230.229C193.218 235.961 201.536 239.175 208.331 244.439C206.316 247.128 204.415 249.861 202.933 252.889C195.419 252.677 190.442 246.436 184.425 242.903C184.402 242.89 184.547 242.807 184.039 242.519L184.81 229.077C185.739 230.169 186.654 230.156 186.738 230.229Z" fill="#EE8C6D"/>
<path d="M202.934 252.888C202.635 253.5 202.176 254.088 202.163 254.809C195.259 254.37 188.509 252.987 181.727 251.736C181.868 251.512 181.993 251.211 182.112 250.968C183.372 248.363 183.381 245.54 184.425 242.903C190.44 246.436 195.419 252.68 202.934 252.888Z" fill="#B85C5C"/>
<path d="M126.594 242.135C124.165 243.658 118.112 247.243 120.232 250.2L133.341 248.28V247.512C127.082 247.63 126.388 246.859 131.991 244.055C134.613 244.171 137.244 243.297 139.895 243.671C140.707 243.786 154.516 249.266 155.123 249.816C156.495 251.055 155.721 252.184 155.894 254.041C149.732 254.063 124.2 255.001 122.542 254.809C120.364 254.559 118.613 252.741 118.494 250.584C118.237 245.96 123.024 243.902 126.205 241.751C126.401 241.802 126.632 241.713 126.591 242.135H126.594Z" fill="#B85C5C"/>
<path d="M155.124 249.816C154.517 249.265 140.708 243.786 139.896 243.671C137.245 243.297 134.611 244.17 131.992 244.055C136.66 241.719 139.497 243.911 133.534 239.062C133.576 239.05 133.862 238.467 133.92 238.294C140.169 238.249 152.011 242.772 156.67 247.32L155.127 249.816H155.124Z" fill="#621F4D"/>
<path d="M133.533 239.062C139.496 243.911 136.655 241.719 131.99 244.055C126.387 246.862 127.081 247.63 133.34 247.512V248.28L120.232 250.2C118.111 247.243 124.167 243.655 126.593 242.135C128.392 241.008 132.032 239.466 133.533 239.062Z" fill="#EE8C6D"/>
<path d="M222.982 250.584C219.062 251.506 212.756 252.636 209.488 250.2C210.092 249.048 210.542 247.582 211.03 246.36C218.14 251.624 215.821 246.628 220.862 244.055C221.568 246.231 222.275 248.408 222.982 250.584Z" fill="#EE8C6D"/>
<path d="M154.738 162.629C154.606 165.081 155.734 179.956 156.28 180.68C154.375 181.435 151.618 180.132 149.726 180.68C148.762 174.586 148.781 168.355 148.184 162.242C151.226 161.896 154.41 162.626 154.738 162.626V162.629Z" fill="#EE8C6D"/>
<path d="M223.369 210.255C216.205 211.929 202.335 217.45 196.379 221.777C190.959 222.052 190.037 225.256 181.343 222.929C176.656 217.059 163.162 212.009 155.895 210.255C157.925 201.121 162.057 192.934 165.918 184.52C181.912 188.393 199.755 187.497 215.655 183.368C218.261 192.163 222.823 200.711 223.366 210.255H223.369Z" fill="#431E43"/>
<path d="M182.116 98.1016C177.933 102.377 166.678 105.859 166.694 106.743C174.453 112.708 182.399 114.907 192.143 114.616C192.271 114.613 192.4 114.622 192.528 114.616C201.267 114.232 210.102 111.313 216.435 105.015C218.51 105.927 222.182 106.516 225.88 109.623C234.397 116.783 235.933 135.637 236.097 146.112C231.136 143.615 227.528 139.57 222.989 136.51C220.229 128.864 219.689 114.213 219.905 133.63C222.263 142.364 221.186 150.551 221.447 154.564C220.149 155.847 219.275 157.87 218.748 159.557C212.538 161.368 206.228 160.981 199.854 161.669C206.022 161.733 212.192 161.797 218.362 161.861C217.27 165.631 213.742 176.935 214.122 179.72C214.147 179.915 215.044 181.278 215.664 183.368C199.76 187.497 181.92 188.393 165.927 184.52C166.784 182.648 169.387 178.526 169.396 177.799C169.406 176.945 166.592 169.801 164.384 161.477L174.023 162.821L163.999 160.325C163.466 158.286 162.74 156.187 162.071 154.18C162.283 146.441 162.961 138.443 160.915 130.941C153.892 116.703 162.055 138.331 160.529 143.423C158.987 143.801 158.235 141.394 157.252 141.503C156.838 141.548 155.206 143.849 154.746 144.191C152.089 146.166 149.233 147.875 146.65 149.952C146.531 139.067 147.415 115.458 157.638 108.855C160.76 106.839 175.003 103.36 182.122 98.1016H182.116Z" fill="#852E58"/>
<path d="M222.986 136.51C225.611 143.788 228.239 145.491 236.094 146.88C236.133 152.324 235.747 156.353 235.323 161.666C235.301 161.96 234.555 162.194 234.552 162.242H222.601C222.485 159.781 221.608 157.08 221.444 154.561C221.184 150.547 222.26 142.361 219.902 133.627C219.687 114.213 220.226 128.861 222.986 136.507V136.51Z" fill="#431E43"/>
<path d="M236.096 146.112C236.1 146.368 236.096 146.624 236.096 146.88C228.238 145.488 225.613 143.785 222.988 136.511C227.531 139.57 231.139 143.619 236.096 146.112Z" fill="#621F4D"/>
<path d="M218.742 159.557C218.707 159.669 218.742 160.533 218.356 161.861C212.188 161.797 206.018 161.733 199.848 161.669C206.219 160.981 212.532 161.369 218.742 159.557Z" fill="#431E43"/>
<path d="M162.066 154.18C161.966 157.816 160.925 161.839 160.909 162.245C158.892 161.839 156.678 162.629 154.741 162.629C154.413 162.629 151.229 161.9 148.187 162.245C148.18 162.181 147.081 162.242 147.03 161.669C146.677 157.752 146.686 153.879 146.645 149.956C149.228 147.879 152.084 146.169 154.741 144.195C156.142 145.501 159.884 145.561 160.524 143.427C162.05 138.335 153.886 116.703 160.909 130.945C162.956 138.444 162.278 146.445 162.066 154.183V154.18Z" fill="#431E43"/>
<path d="M160.525 143.423C159.886 145.558 156.143 145.497 154.742 144.191C155.202 143.849 156.834 141.548 157.248 141.503C158.231 141.394 158.983 143.801 160.525 143.423Z" fill="#621F4D"/>
<path d="M164.382 161.477C164.366 161.419 164.317 161.547 163.996 160.325L174.02 162.821L164.382 161.477Z" fill="#621F4D"/>
<path d="M196.376 221.777C195.123 222.686 194.368 223.909 193.291 224.85C191.193 226.68 189.057 228.678 186.737 230.227C186.654 230.153 185.738 230.166 184.81 229.074C184.17 228.322 183.348 225.445 181.34 222.93C190.034 225.256 190.956 222.053 196.376 221.777Z" fill="#191830"/>
<path d="M160.906 162.245C160.629 168.569 161.301 175.121 160.906 181.451C159.894 181.47 157.841 181.419 157.05 181.067C156.787 180.949 156.732 181.288 156.279 180.683C155.733 179.96 154.605 165.081 154.737 162.633C156.674 162.633 158.891 161.842 160.906 162.249V162.245Z" fill="#B85C5C"/>
<path d="M156.278 180.68C156.731 181.285 156.785 180.946 157.049 181.064C157.332 182.338 158.157 183.228 157.82 184.713C157.084 187.935 130.572 201.368 125.817 202.955C125.316 192.986 116.966 205.298 109.625 204.876C109.933 204.703 110.091 204.635 110.396 204.491C117.034 201.381 117.551 200.782 123.119 197.578C129.094 194.138 135.144 190.765 141.046 187.209C142.527 186.316 149.2 180.83 149.721 180.68C151.613 180.133 154.369 181.435 156.275 180.68H156.278Z" fill="#852E58"/>
<path d="M160.909 181.448C160.787 183.385 161.101 185.058 160.523 187.017C158.213 194.842 132.408 202.062 125.051 205.647V205.263C125.459 204.447 125.873 203.951 125.822 202.959C130.577 201.368 157.089 187.936 157.824 184.716C158.162 183.231 157.336 182.341 157.053 181.067C157.844 181.419 159.897 181.471 160.909 181.451V181.448Z" fill="#431E43"/>
<path d="M108.081 214.096C112.624 215.194 118.221 218.977 122.924 220.625C134.426 224.657 147.184 227.365 159.939 232.146C163.762 233.58 181.66 241.162 184.038 242.516C184.545 242.804 184.401 242.887 184.423 242.9C183.379 245.537 183.369 248.363 182.11 250.965C181.461 250.78 181.265 251.468 180.761 251.349C180.108 251.196 169.757 247.733 168.038 247.125C158.647 243.803 136.174 231.382 130.445 239.251C130.831 240.023 131.721 238.307 133.915 238.291C133.857 238.464 133.571 239.05 133.529 239.059C132.029 239.466 128.386 241.005 126.59 242.132C126.632 241.709 126.4 241.799 126.204 241.748C115.352 238.835 97.6202 231.279 98.8282 217.549C101.822 222.03 98.9695 211.891 108.081 214.093V214.096Z" fill="#431E43"/>
<path d="M125.055 205.263V205.647C120.365 207.932 123.953 206.956 133.152 207.567C125.004 209.532 115.928 209.993 108.089 214.096C98.9773 211.894 101.827 222.033 98.8359 217.552C99.3339 211.884 105.721 207.689 106.932 207.567C107.048 207.554 107.202 207.551 107.318 207.567C107.755 207.634 108.741 209.27 110.98 209.103C111.552 209.062 114.585 207.375 115.607 207.183C117.12 206.898 120.355 207.615 125.052 205.263H125.055Z" fill="#431E43"/>
<path d="M155.891 210.255C163.159 212.009 176.649 217.059 181.34 222.929C183.348 225.445 184.17 228.322 184.81 229.074L184.039 242.516C181.661 241.162 163.763 233.58 159.94 232.146C147.185 227.362 134.427 224.657 122.925 220.625C118.222 218.977 112.625 215.194 108.082 214.096C115.921 209.993 124.997 209.532 133.145 207.567C140.525 208.057 148.682 208.514 155.895 210.255H155.891Z" fill="#621F4D"/>
<path d="M182.113 250.968C181.994 251.212 181.869 251.512 181.728 251.737C181.252 252.489 180.427 254.175 179.607 254.425C176.52 255.359 160.405 254.025 155.894 254.041C155.72 252.185 156.495 251.055 155.123 249.816L156.665 247.32C152.01 242.772 140.164 238.25 133.915 238.295C131.721 238.311 130.831 240.026 130.445 239.255C136.174 231.385 158.647 243.809 168.038 247.128C169.757 247.736 180.109 251.199 180.761 251.352C181.265 251.471 181.461 250.783 182.11 250.968H182.113Z" fill="#431E43"/>
<path d="M273.108 233.302C266.988 238.349 263.155 239.412 255.759 241.751C255.335 241.886 255.142 242.282 254.603 242.135C253.719 241.604 250.889 239.552 250.554 239.447C248.636 238.848 248.306 239.536 247.277 239.447C247.162 239.437 247.737 239.002 244.964 239.063C244.187 239.165 243.714 237.552 243.615 237.527C240.338 236.65 223.095 240.353 218.552 241.367C216.933 241.729 209.967 244.382 209.492 244.44C209.116 244.484 208.718 244.414 208.335 244.44C201.54 239.175 193.222 235.962 186.742 230.23C189.062 228.68 191.198 226.683 193.296 224.853C192.695 226.783 195.879 237.037 197.73 237.143C220.454 224.715 246.037 219.722 270.795 212.944C282.184 217.78 280.983 225.371 273.108 233.302Z" fill="#431E43"/>
<path d="M273.491 208.335C286.287 214.102 281.937 226.018 273.105 233.302C280.98 225.374 282.181 217.78 270.792 212.944C259.547 208.169 249.388 208.911 237.633 208.335C241.446 207.855 250.185 207.509 253.054 206.415C253.372 206.293 253.514 206.069 253.825 206.031C254.95 206.396 269.372 209.91 270.21 209.871C270.39 209.865 273.169 208.537 273.487 208.335H273.491Z" fill="#431E43"/>
<path d="M237.637 208.335C249.389 208.911 259.548 208.169 270.796 212.944C246.041 219.722 220.455 224.715 197.731 237.142C195.88 237.037 192.696 226.779 193.297 224.853C194.373 223.912 195.128 222.689 196.381 221.78C202.335 217.453 216.207 211.932 223.372 210.258C227.905 209.199 233.01 208.921 237.637 208.338V208.335Z" fill="#621F4D"/>
<path d="M244.961 239.063C239.217 239.188 231.75 240.692 227.227 244.44C227.114 244.533 226.488 244.26 224.914 246.168L227.227 249.048C225.871 249.484 225.466 250.002 222.986 250.585C222.279 248.408 221.572 246.232 220.865 244.056C215.825 246.629 218.141 251.625 211.034 246.36C210.935 246.286 211.14 246.024 209.492 244.44C209.968 244.382 216.933 241.729 218.552 241.367C223.095 240.353 240.338 236.65 243.615 237.527C243.715 237.552 244.187 239.165 244.965 239.063H244.961Z" fill="#431E43"/>
<path d="M244.957 239.063C247.733 239.002 247.155 239.437 247.27 239.447C245.625 240.714 243.29 242.327 241.487 243.288C238.14 245.07 235.547 245.816 232.235 247.128C230.201 246.456 228.341 246.629 227.223 244.44C231.749 240.692 239.216 239.188 244.957 239.063Z" fill="#621F4D"/>
<path d="M227.223 244.439C228.341 246.629 230.202 246.456 232.235 247.128C230.536 247.8 228.978 248.485 227.223 249.048L224.91 246.168C226.484 244.26 227.111 244.532 227.223 244.439Z" fill="#431E43"/>
<path d="M233.003 180.296C234.369 180.574 251.197 196.519 254.211 198.346C254.005 198.548 250.831 202.683 250.741 202.955C246.596 200.011 242.038 197.62 238.018 194.506C234.063 191.443 228.563 186.633 225.681 182.6C225.305 182.072 225.186 181.618 224.91 181.064C226.745 181.045 231.83 180.056 233.006 180.296H233.003Z" fill="#852E58"/>
<path d="M224.914 181.064C225.19 181.618 225.309 182.072 225.685 182.6C223.054 188.72 233.27 193.335 238.022 194.506C242.045 197.62 246.603 200.011 250.745 202.955C250.697 203.099 251.22 203.282 250.745 204.491C247.349 204.53 242.305 201.579 238.986 199.883C221.926 191.165 222.331 190.022 222.601 181.061C223.372 181.055 224.143 181.067 224.914 181.061V181.064Z" fill="#431E43"/>
<path d="M238.025 194.509C233.273 193.337 223.057 188.722 225.688 182.603C228.573 186.639 234.073 191.446 238.025 194.509Z" fill="#621F4D"/>
<path d="M272.336 199.886C274.871 210.47 266.579 204.722 265.975 204.494C257.201 201.217 268.853 208.732 272.336 206.415C272.5 208.761 274.003 206.389 275.42 206.415C275.224 206.687 273.608 208.261 273.493 208.335C273.175 208.537 270.395 209.865 270.216 209.871C269.374 209.91 254.952 206.396 253.83 206.031C253.493 205.922 252.96 205.765 252.674 205.647C252.047 205.387 250.987 205.423 250.746 204.494C257.705 204.414 254.116 203.586 254.216 202.766C255.662 200.974 257.05 200.814 259.228 200.654C265.403 200.203 269.47 203.736 270.216 203.342C270.28 201.985 268.024 199.764 266.939 199.502V198.35C268.738 198.862 270.537 199.374 272.336 199.886Z" fill="#EE8C6D"/>
<path d="M274.648 190.669L271.757 188.748C271.236 189.772 274.205 191.171 272.721 192.589C270.751 185.618 265.351 192.374 266.938 198.35V199.502C265.868 199.243 259.108 199.508 259.227 200.654C257.049 200.814 255.661 200.974 254.215 202.766C254.116 203.586 257.704 204.415 250.745 204.495C251.221 203.285 250.697 203.102 250.745 202.958C250.835 202.686 254.01 198.551 254.215 198.35C257.197 195.424 265.132 191.923 265.588 191.437C266.334 190.643 266.353 188.028 267.516 187.596C269.492 186.863 273.453 188.639 274.648 190.669Z" fill="#B85C5C"/>
<path d="M276.19 198.734C272.91 201.88 274.574 204.926 272.335 206.415C268.852 208.732 257.2 201.217 265.974 204.494C266.578 204.722 274.87 210.47 272.335 199.886C272.624 199.806 273.084 198.161 273.106 197.965C274.237 197.764 275.098 196.737 276.19 196.429C283.744 194.311 276.666 198.276 276.19 198.734Z" fill="#953C44"/>
<path d="M275.42 206.415C274.003 206.389 272.5 208.761 272.336 206.415C274.575 204.927 272.911 201.88 276.191 198.734C277.361 201.701 277.29 203.826 275.42 206.415Z" fill="#C96F66"/>
<path d="M274.649 190.669C275.754 192.544 275.491 194.493 276.191 196.43C275.099 196.737 274.238 197.764 273.107 197.966C273.267 196.609 273.104 193.936 272.721 192.589C274.205 191.171 271.237 189.773 271.757 188.749L274.649 190.669Z" fill="#C96F66"/>
<path d="M253.828 206.031C253.517 206.069 253.375 206.293 253.057 206.415L252.672 205.647C252.958 205.765 253.491 205.922 253.828 206.031Z" fill="#904F48"/>
<path d="M266.935 199.502C268.021 199.764 270.276 201.985 270.212 203.342C269.467 203.736 265.399 200.203 259.224 200.654C259.105 199.508 265.865 199.243 266.935 199.502Z" fill="#953C44"/>
<path d="M125.823 202.959C125.874 203.951 125.46 204.447 125.052 205.263C120.355 207.615 117.12 206.898 115.606 207.183C114.585 207.375 111.552 209.062 110.98 209.103C108.741 209.27 107.751 207.634 107.317 207.567C107.092 206.319 107.735 205.813 107.703 205.647C109.537 205.925 109.541 204.93 109.631 204.879C116.972 205.301 125.325 192.989 125.823 202.959Z" fill="#EE8C6D"/>
<path d="M120.423 196.045C117.21 197.71 113.997 199.374 110.785 201.038C110.746 200.555 109.937 199.041 109.628 198.35C114.052 196.353 111.928 191.27 109.05 188.748C104.186 189.094 105.355 193.226 105.387 196.429C105.477 205.327 107.521 204.687 107.7 205.647C107.733 205.813 107.09 206.319 107.315 207.567C107.199 207.551 107.045 207.554 106.929 207.567C106.929 207.237 106.631 207.177 106.544 206.799C105.689 203.032 101.561 191.325 101.917 202.958C101.754 201.745 102.146 198.209 101.917 197.774C101.625 197.21 95.0485 196.343 102.689 195.853C102.043 190.707 106.897 184.927 110.977 186.828C111.578 187.11 112.976 190.214 120.423 196.045Z" fill="#B85C5C"/>
<path d="M120.422 196.045C120.962 196.468 122.424 197.374 123.121 197.582C117.553 200.789 117.036 201.384 110.399 204.495C110.122 201.406 110.797 201.211 110.784 201.038C113.997 199.374 117.21 197.71 120.422 196.045Z" fill="#C96F66"/>
<path d="M106.543 206.799C102.848 207.048 102.337 206.085 101.916 202.958C101.56 191.324 105.688 203.035 106.543 206.799Z" fill="#C96F66"/>
<path d="M109.624 198.349C109.932 199.041 110.742 200.555 110.78 201.038C110.793 201.211 110.118 201.406 110.395 204.494C110.09 204.638 109.932 204.706 109.624 204.878C109.534 204.93 109.531 205.925 107.696 205.647C107.516 204.686 105.473 205.326 105.383 196.429C106.295 197.873 107.78 199.182 109.624 198.349Z" fill="#EE8C6D"/>
<path d="M192.14 114.619C182.396 114.91 174.45 112.712 166.691 106.746C166.675 105.863 177.93 102.381 182.113 98.1047C187.012 93.0992 183.767 91.5566 185.197 89.2714C185.444 88.8746 185.454 88.993 185.583 88.8874C185.824 88.6953 191.147 86.9927 191.366 87.9272C191.623 96.8245 191.88 105.723 192.137 114.622L192.14 114.619Z" fill="#EE8C6D"/>
<path d="M187.895 78.5147C191.57 87.7257 190.882 89.073 197.533 84.2756C197.571 85.9142 197.755 87.2744 197.918 88.8842C197.944 89.1435 197.395 91.7582 198.304 94.069C200.289 99.1257 209.102 102.15 213.725 104.246C208.607 109.156 198.593 110.862 192.518 114.616C192.389 114.622 192.261 114.613 192.132 114.616C191.875 105.719 191.618 96.8203 191.361 87.9209C191.143 86.9896 185.819 88.689 185.578 88.881C185.707 85.0405 185.835 81.1999 185.964 77.3594C186.442 77.6186 187.785 78.4763 187.891 78.5115L187.895 78.5147Z" fill="#B85C5C"/>
<path d="M216.43 105.015C210.101 111.316 201.265 114.232 192.523 114.616C198.599 110.862 208.61 109.156 213.731 104.247C214.428 104.563 215.717 104.701 216.43 105.015Z" fill="#EE8C6D"/>
<path d="M197.151 78.8987C197.765 80.6622 197.495 82.4672 197.537 84.2755C190.886 89.073 191.574 87.7256 187.898 78.5146C190.642 79.4364 194.308 79.622 197.151 78.8987Z" fill="#762B41"/>
<path d="M197.154 78.8992C194.311 79.6225 190.645 79.4337 187.901 78.5151C187.795 78.4799 186.452 77.6222 185.973 77.363C173.9 70.8564 171.86 54.3901 173.636 42.2187C181.427 35.0049 189.167 28.0119 195.422 19.3643C198.375 23.4736 208.556 34.6977 209.88 37.2228C217.976 52.6426 208.437 76.022 197.157 78.896L197.154 78.8992Z" fill="#EE8C6D"/>
<path d="M182.305 39.7221C184.631 39.322 187.529 39.8053 189.63 40.8742C192.027 44.718 185.55 40.7206 178.064 43.5626C177.56 41.7608 181.104 39.9269 182.305 39.7221Z" fill="#10101B"/>
<path d="M198.118 43.1787C197.977 47.1025 198.88 58.4961 198.696 59.5011C197.543 65.7932 186.828 58.6337 195.805 60.8452C198.819 60.0195 195.705 47.2593 198.118 43.1787Z" fill="#512729"/>
<path d="M204.285 39.722C208.96 39.5492 212.375 43.7226 209.297 43.5626C208.857 43.5402 206.232 41.175 200.815 43.1785C198.766 40.919 202.634 39.7828 204.285 39.722Z" fill="#1E1C20"/>
<path d="M178.062 48.1714C184.417 55.7597 190.033 47.8481 189.821 50.6677C186.882 54.8892 178.432 53.7562 178.062 48.1714Z" fill="#1E1C20"/>
<path d="M209.683 48.5552C212.427 48.5264 205.883 57.6958 199.467 50.6675C199.348 48.8753 205.205 54.985 209.683 48.5552Z" fill="#1E1C20"/>
<path d="M204.669 46.251C209.816 45.4541 210.192 46.6607 202.356 47.7872C201.97 47.1856 204.531 46.2734 204.669 46.251Z" fill="#A94F37"/>
<path d="M183.461 46.2507C184.081 46.1355 188.364 46.0971 187.895 47.2109C184.515 46.6636 178.263 47.2301 183.461 46.2507Z" fill="#A94F37"/>
<path d="M199.274 64.6855C200.264 64.74 197.565 74.5334 191.563 70.8304C184.595 60.781 192.402 69.147 199.274 64.6855Z" fill="#762B41"/>
<path d="M190.02 66.606C195.154 69.0863 197.814 65.6938 197.538 67.9501C194.161 73.807 188.956 67.0284 190.02 66.606Z" fill="#CA346E"/>
</svg>
