<svg width="396" height="288" viewBox="0 0 396 288" fill="none" xmlns="http://www.w3.org/2000/svg">
<path d="M136.458 148.442L136.846 149.216C131.584 150.132 126.749 152.49 121.768 154.242C118.588 155.361 115.249 157.135 112.104 158.106C111.262 158.367 110.523 158.403 110.172 158.493C118.462 153.851 127.581 151.493 136.458 148.442Z" fill="#D2BCE2"/>
<path d="M304.23 218.028C296.378 214.528 288.995 210.267 281.421 206.238C281.163 222.409 280.904 238.581 280.646 254.753C278.698 257.959 280.656 274.83 279.872 276.594C279.259 277.972 275.466 276.772 275.234 276.788C274.885 264.352 278.685 206.089 277.553 200.634L277.746 199.86C296.14 209.667 329.029 230.25 349.842 220.734C361.054 215.608 366.067 200.518 368.009 189.228C368.277 187.68 369.645 176.741 369.554 176.083C369.293 174.151 366.745 172.945 366.461 172.413C365.77 171.116 364.241 162.919 363.367 159.655C361.274 151.845 355.509 125.484 353.703 121.772C353.393 121.136 354.422 119.668 349.258 117.907L350.226 124.478C349.529 124.914 349.297 124.959 348.68 125.252L344.429 107.085C344.99 106.669 347.013 104.172 347.135 103.22C350.493 99.0463 352.164 83.4402 351.387 78.0919C350.855 74.4275 350.103 72.4888 345.974 72.6792C345.806 72.6985 344.571 73.3243 344.429 73.4533C340.164 67.6212 339.845 71.2534 338.245 71.134C338.123 71.1244 337.971 71.1631 337.858 71.134C337.652 71.0792 335.445 68.1438 334.958 68.0405C334.268 67.8954 330.871 69.3437 330.513 69.9728C330.045 69.9534 329.929 69.5244 329.739 69.1986C326.087 62.9213 323.162 67.4954 322.394 67.6535C322.116 67.7083 321.516 67.7051 321.233 67.6535C320.087 67.4406 319.5 64.5374 316.788 66.8793C312.881 70.2502 314.739 75.7436 313.888 77.8952C313.426 79.0661 310.662 78.7081 309.249 79.2468C302.646 81.7725 301.623 86.2369 301.904 93.1626C301.923 93.6723 301.843 94.2077 301.904 94.7077C302.439 99.0625 306.733 102.762 310.217 105.146C317.8 110.333 323.278 110.02 323.939 110.559C323.974 110.588 324.313 110.92 324.326 110.946C324.72 111.698 325.994 123.939 327.033 126.794C326.716 126.71 326.284 126.852 325.1 126.407C326.984 119.514 322.61 121.985 321.236 124.088C319.681 126.465 319.568 139.207 319.304 143.029C318.933 148.374 318.662 153.716 318.529 159.071C317.984 160.016 316.465 159.387 314.278 159.264C315.504 151.774 315.804 128.317 316.984 123.894C318.265 119.101 324.594 118.078 323.168 113.843C322.278 111.188 317.194 111.217 311.765 108.624C301.407 103.678 295.488 97.756 299.201 85.624C301.501 78.1081 311.636 78.2371 311.959 77.5049C312.12 77.1436 311.733 70.5921 311.572 69.5792C312.555 68.1889 314.604 64.0245 315.63 63.3955C318.568 61.5923 335.036 65.66 339.21 66.8761C342.052 67.7051 352.08 70.8727 353.319 72.8695C356.312 77.6887 354.071 97.2625 351.774 102.637C349.426 108.13 346.584 106.582 347.909 112.301C349.245 118.069 354.725 115.017 356.8 118.872C357.422 120.03 360.561 137.775 361.438 141.294C362.399 145.145 368.135 168.574 368.783 169.9C370.544 173.496 372.709 170.454 372.648 178.403C372.567 189.473 368.17 208.96 360.664 217.447C345.826 234.221 321.413 225.692 304.223 218.028H304.23Z" fill="#FAFAFC"/>
<path d="M309.256 158.106C300.598 156.019 292.466 152.035 283.937 149.603C279.818 148.429 275.269 148.438 271.179 147.284C263.534 145.122 247.054 140.529 240.835 138.394C238.386 137.552 238.438 138.458 235.422 136.074C244.802 137.165 256.802 139.119 265.766 141.874C271.544 143.648 277.353 147.093 282.389 148.832C285.192 149.8 288.469 150.161 291.279 151.151C295.969 152.803 305.643 157.048 309.256 158.109V158.106Z" fill="#FAFAFC"/>
<path d="M185.553 136.458C185.33 136.594 184.733 137.581 182.459 138.391C178.027 139.971 145.183 147.368 136.844 149.216L136.457 148.442C152.434 142.949 168.505 137.026 185.553 136.458Z" fill="#FAFAFC"/>
<path d="M353.71 121.772C352.529 122.626 351.471 123.704 350.229 124.478L349.262 117.907C354.429 119.672 353.397 121.136 353.707 121.772H353.71Z" fill="#411330"/>
<path d="M325.107 126.41C323.736 125.894 322.058 125.5 321.242 124.091C322.616 121.988 326.994 119.517 325.107 126.41Z" fill="#2E1031"/>
<path d="M112.106 68.808C110.242 80.5626 111.522 76.3304 116.938 79.2465C123.677 82.8722 125.832 88.3495 124.864 96.0623C123.903 103.704 107.639 110.601 100.703 111.333C96.5452 118.139 102.355 115.417 105.148 119.646C107.871 123.765 107.664 151.697 108.242 158.884C107.097 159.103 105.913 159.432 104.761 159.658C104.852 156.064 103.093 125.387 102.442 123.707C101.674 121.723 96.8065 117.562 97.8033 125.639C96.8549 126.149 97.1065 126.065 96.2581 126.413C96.9581 121.255 97.442 116.042 98.5775 110.949C98.6613 110.568 98.9645 110.507 98.9645 110.175C104.406 110.626 118.671 102.217 120.612 98.7719C122.838 94.8204 120.867 85.3496 117.906 81.9561C114.6 78.1659 109.771 78.5852 109.403 77.8981C108.468 76.1627 110.951 72.2273 107.471 68.0403C106.645 67.0468 106.822 67.0145 105.539 66.4952C100.942 64.6307 100.465 67.8403 99.5452 68.0403C98.271 68.3209 96.3033 66.379 94.9066 66.4952C93.9259 66.5758 91.2744 69.1725 91.0421 69.2016C90.8454 69.2274 89.2357 67.9822 87.1777 68.4274C85.5681 68.7758 86.5196 70.2596 83.1197 70.3596C82.9165 70.366 82.4068 69.579 81.1875 69.9725C79.1521 70.6306 78.694 72.8853 77.9005 73.066C76.4618 73.3918 76.0231 71.0822 73.4554 74.2273C69.9555 78.511 71.6135 95.0591 73.4554 100.32C74.5973 103.585 77.0231 105.694 77.3198 106.314C77.5747 106.843 78.0843 107.22 78.094 107.281C78.2101 108.214 73.6264 122.617 74.2296 125.642C74.0812 125.558 74.1489 125.916 72.2974 124.481C75.3521 117.571 72.978 115.878 68.0458 120.617C66.9426 121.675 66.2298 122.42 65.7265 123.904C65.304 125.149 62.046 142.781 60.3137 149.61C58.5493 156.577 56.817 164.748 54.901 171.451C53.6687 175.767 51.5107 171.667 52.9687 183.822C54.4203 195.944 59.1073 213.947 70.7522 219.966C90.2809 230.059 123.941 208.87 141.109 198.705C141.977 224.847 142.241 251.033 143.041 277.178C142.102 277.126 139.212 277.555 138.79 276.597C138.267 275.416 138.89 258.82 138.79 255.723C138.78 255.436 138.019 255.191 138.015 255.143C137.519 238.746 138.07 222.256 137.241 205.853C129.486 209.102 122.464 214.227 114.819 217.644C93.3582 227.24 65.962 234.859 54.901 207.012C52.9365 202.066 47.9237 178.551 48.7172 174.538C48.8721 173.748 51.7172 170.164 51.8107 169.899C56.4106 156.716 62.4911 123.523 63.4072 121.191C66.2781 113.888 72.8135 117.094 74.0393 116.359C77.1231 105.475 74.6941 108.694 73.0715 106.114C66.6104 95.8236 67.4717 71.6047 72.4909 69.9693C75.1005 69.1177 75.5231 71.9789 79.4488 67.2629C85.7616 68.2629 92.2711 62.7759 98.7774 64.9436C105.093 60.7372 108.419 63.192 112.113 68.808H112.106Z" fill="#FAFAFC"/>
<path d="M182.458 138.394C177.294 154.232 191.31 163.038 205.268 164.68C205.268 164.948 205.371 165.351 205.074 165.454C200.261 167.132 181.326 157.38 168.155 166.228C155.875 169.045 145.701 184.705 144.962 196.96C144.03 212.379 156.411 230.666 167.772 240.449C177.681 253.643 197.374 267.13 211.067 276.4C211.103 276.426 211.567 279.787 211.609 279.949C193.394 279.981 157.943 277.981 143.03 277.171C142.23 251.027 141.966 224.837 141.098 198.699C141.001 195.77 141.221 192.838 141.098 189.809C140.714 180.296 139.856 170.851 138.779 161.396H138.004C136.856 172.338 134.527 182.083 126.214 189.809C123.027 190.163 126.834 178.157 127.182 172.412C127.489 167.306 126.205 159.187 122.156 155.79C122.031 155.371 121.589 155.116 121.769 154.245C126.75 152.493 131.585 150.135 136.846 149.219C145.185 147.374 178.029 139.977 182.462 138.394H182.458Z" fill="#431849"/>
<path d="M277.559 200.631C278.691 206.089 274.891 264.352 275.239 276.784C254.256 278.165 232.353 279.91 211.286 279.946C211.247 279.781 211.102 276.42 211.066 276.397C231.392 262.282 252.011 246.888 265.572 225.757C272.249 215.35 272.43 213.531 275.236 201.789C275.488 200.734 276.184 199.686 276.397 198.696C276.346 199.383 277.42 199.97 277.559 200.628V200.631Z" fill="#431849"/>
<path d="M309.258 158.106C309.3 158.119 308.974 158.203 310.032 158.493C307.242 162.438 301.742 167.157 300.755 171.251C300.377 171.444 299.632 171.628 299.594 172.025C295.694 171.783 291.89 171.522 287.997 172.025C287.074 170.603 285.987 169.083 284.904 167.774C280.378 158.858 281.942 162.664 280.652 171.254C280.2 174.248 279.575 177.173 279.107 180.144C276.916 184.267 274.725 188.39 272.536 192.515C271.468 183.376 264.052 172.128 256.107 167.386C251.046 164.367 246.598 165.628 237.359 153.084C239.382 147.722 240.869 144.41 240.84 138.394C247.062 140.529 263.539 145.126 271.184 147.284C275.275 148.439 279.823 148.429 283.942 149.603C292.474 152.035 300.603 156.019 309.261 158.106H309.258Z" fill="#762A6E"/>
<path d="M189.417 134.139C189.61 139.852 188.597 142.726 192.123 148.442C195.781 154.374 204.49 159.593 211.452 159.268C211.471 160.342 212.032 163.297 212.226 164.68C209.629 164.774 207.932 164.993 205.268 164.68C191.31 163.039 177.294 154.232 182.459 138.394C184.73 137.584 185.33 136.597 185.552 136.462C186.82 135.694 188.046 134.71 189.417 134.142V134.139Z" fill="#19103A"/>
<path d="M235.42 136.075C238.436 138.459 238.384 137.552 240.832 138.394C240.865 144.41 239.378 147.723 237.352 153.084C229.71 161.877 223.613 164.268 212.223 164.681C212.03 163.297 211.469 160.342 211.449 159.268C217.478 158.984 225.523 152.774 229.233 148.058C233.726 142.346 233.684 141.242 233.097 134.143C233.939 134.714 234.616 135.443 235.416 136.075H235.42Z" fill="#562A76"/>
<path d="M272.531 192.512C272.644 193.47 272.505 194.605 272.531 195.605C272.702 202.447 270.915 210.608 268.667 217.06C267.618 220.069 264.764 224.437 265.573 225.756C252.012 246.888 231.393 262.281 211.068 276.397C197.375 267.127 177.682 253.64 167.772 240.446C154.998 223.44 147.995 201.451 156.947 181.109C158.805 176.887 164.366 168.774 168.156 166.225C181.327 157.377 200.262 167.129 205.075 165.451C205.371 165.348 205.268 164.948 205.268 164.677C207.933 164.99 209.629 164.771 212.226 164.677C223.613 164.264 229.713 161.871 237.355 153.081C246.593 165.629 251.041 164.364 256.103 167.383C264.048 172.125 271.463 183.373 272.531 192.512Z" fill="#A82E90"/>
<path d="M168.157 166.226C164.363 168.774 158.805 176.883 156.947 181.109C147.996 201.454 154.999 223.441 167.773 240.447C156.412 230.663 144.031 212.376 144.964 196.957C145.706 184.699 155.876 169.042 168.157 166.226Z" fill="#931C6D"/>
<path d="M275.237 201.789C272.43 213.531 272.25 215.35 265.572 225.756C264.763 224.437 267.614 220.069 268.666 217.06C270.914 210.608 272.701 202.447 272.53 195.605C273.859 195.425 273.379 199.55 275.237 201.789Z" fill="#762A6E"/>
<path d="M277.56 190.967C277.082 193.502 276.94 196.18 276.398 198.699C276.185 199.689 275.492 200.734 275.237 201.792C273.379 199.551 273.86 195.428 272.531 195.609C272.505 194.609 272.644 193.473 272.531 192.515C274.722 188.393 276.912 184.269 279.101 180.145C278.537 183.732 278.227 187.393 277.556 190.97L277.56 190.967Z" fill="#762A6E"/>
<path d="M351.003 194.445C353.764 191.564 354.635 190.896 356.803 187.1C359.667 182.08 360.154 179.854 361.441 174.342C363.267 175.255 365.264 173.926 366.467 172.409C366.751 172.942 369.299 174.148 369.561 176.08C369.648 176.735 368.28 187.677 368.015 189.225C366.074 200.515 361.061 215.605 349.848 220.731C345.003 221.825 346.429 220.344 346.177 220.344C345.209 220.347 341.368 221.483 334.581 220.344C318.297 217.612 293.778 197.654 277.562 190.964C278.237 187.39 278.543 183.725 279.108 180.138C279.575 177.164 280.204 174.242 280.653 171.248C284.717 177.993 289.336 184.19 296.311 188.258C292.182 181.558 288.472 174.79 284.908 167.768C285.988 169.081 287.078 170.6 288.001 172.019C290.927 176.522 298.73 188.699 301.53 191.735C304.501 194.954 311.778 199.886 312.355 198.886C310.142 193.677 302.323 187.935 303.078 185.164C307.559 190.816 311.368 194.586 316.994 199.08C319.82 201.335 321.278 203.17 321.633 201.98C319.581 194.419 319.394 186.545 318.539 178.787C317.468 176.948 315.362 184.658 313.9 184.78C312.43 180.419 309.601 176.487 308.875 171.829L313.707 178.98C316.933 176.793 318.533 164.455 318.152 162.939C317.858 161.771 310.949 160.236 311.968 158.881C312.859 159.065 313.162 159.203 314.288 159.268C316.475 159.39 317.994 160.019 318.539 159.074C318.671 153.72 318.942 148.378 319.313 143.033C321.716 157.897 320.204 182.748 327.816 195.412C334.987 207.341 343.435 202.348 351.009 194.445H351.003Z" fill="#431849"/>
<path d="M349.846 220.731C329.034 230.247 296.144 209.663 277.751 199.857L277.557 200.631C277.422 199.973 276.348 199.383 276.396 198.699C276.935 196.18 277.077 193.505 277.557 190.967C293.773 197.657 318.292 217.615 334.576 220.347C341.366 221.486 345.204 220.35 346.172 220.347C346.424 220.347 344.998 221.827 349.843 220.734L349.846 220.731Z" fill="#2E1031"/>
<path d="M363.376 159.655C363.634 164.587 362.583 169.467 361.444 174.345C360.157 179.857 359.67 182.083 356.805 187.102C343.741 182.561 342.706 166.406 337.864 153.277C334.964 145.419 331.206 137.561 327.812 129.891C327.845 128.939 327.261 128.094 327.812 127.184C329.009 127.455 333.832 128.336 334.383 128.346C338.509 128.417 344.857 127.068 348.686 125.252C349.302 124.959 349.534 124.913 350.231 124.478C351.473 123.704 352.528 122.626 353.712 121.771C355.518 125.484 361.283 151.845 363.376 159.655Z" fill="#762A6E"/>
<path d="M325.105 126.41C326.289 126.855 326.721 126.71 327.037 126.797C327.079 126.807 326.731 126.939 327.812 127.184C327.26 128.094 327.844 128.939 327.812 129.891C327.15 150.274 319.789 160.429 336.702 186.909C340.479 190.996 345.463 193.544 351.005 194.448C343.431 202.351 334.982 207.341 327.812 195.415C320.196 182.748 321.712 157.9 319.309 143.036C319.573 139.213 319.689 126.472 321.241 124.094C322.057 125.504 323.734 125.897 325.105 126.414V126.41Z" fill="#621B5D"/>
<path d="M366.467 172.413C365.264 173.929 363.267 175.258 361.441 174.345C362.58 169.467 363.635 164.587 363.374 159.655C364.248 162.916 365.777 171.116 366.467 172.413Z" fill="#431849"/>
<path d="M356.803 187.099C354.635 190.896 353.765 191.564 351.003 194.444C345.462 193.541 340.475 190.993 336.7 186.906C319.788 160.423 327.149 150.271 327.81 129.888C331.204 137.562 334.962 145.416 337.862 153.274C342.707 166.4 343.739 182.558 356.803 187.099Z" fill="#762A6E"/>
<path d="M311.963 158.881C310.944 160.239 317.857 161.771 318.147 162.939C318.528 164.455 316.928 176.793 313.702 178.98L308.87 171.829C309.596 176.487 312.425 180.416 313.896 184.78C315.041 188.17 317.241 196.077 316.989 199.083C311.363 194.589 307.551 190.815 303.073 185.167C295.222 171.116 303.844 188.277 302.299 191.544L301.525 191.738C298.725 188.706 290.919 176.529 287.996 172.022C291.893 171.519 295.693 171.78 299.593 172.022C299.757 172.032 299.747 172.671 302.88 172.409C303.16 169.942 306.283 168.409 300.754 171.248C301.744 167.158 307.241 162.435 310.031 158.49C310.673 158.668 311.321 158.745 311.963 158.877V158.881Z" fill="#762A6E"/>
<path d="M284.903 167.77C288.468 174.793 292.177 181.56 296.306 188.26C289.335 184.193 284.716 177.999 280.648 171.251C281.942 162.661 280.374 158.854 284.9 167.77H284.903Z" fill="#762A6E"/>
<path d="M316.988 199.083C317.24 196.077 315.04 188.17 313.895 184.78C315.356 184.661 317.462 176.951 318.533 178.787C319.388 186.548 319.575 194.419 321.627 201.98C321.269 203.173 319.814 201.338 316.988 199.08V199.083Z" fill="#431849"/>
<path d="M303.07 185.167C302.315 187.938 310.134 193.683 312.347 198.889C311.773 199.889 304.492 194.957 301.522 191.738L302.296 191.544C303.841 188.277 295.215 171.116 303.07 185.167Z" fill="#431849"/>
<path d="M299.594 172.025C299.629 171.629 300.378 171.445 300.755 171.251C306.284 168.413 303.161 169.942 302.881 172.413C299.749 172.677 299.761 172.035 299.594 172.025Z" fill="#431849"/>
<path d="M96.2563 193.673C99.1498 189.68 101.417 184.176 102.44 179.37C102.517 188.315 98.7272 199.837 93.937 207.395L94.5176 207.976C105.482 207.428 124.533 185.328 126.023 176.47C126.917 171.161 124.223 174.851 124.091 171.638C125.121 171.896 126.152 172.154 127.185 172.412C126.84 178.157 123.033 190.163 126.217 189.809C134.533 182.083 136.859 172.338 138.007 161.396H138.781C139.859 170.851 140.717 180.296 141.101 189.809C122.004 201.157 93.2789 224.543 70.7439 219.96C59.099 213.94 54.4153 195.938 52.9604 183.815C51.5024 171.661 53.6604 175.761 54.8927 171.444C56.8088 164.741 58.541 156.571 60.3055 149.603C60.3893 158.432 58.6732 164.29 60.3055 173.764C63.857 194.36 83.1598 211.753 96.2563 193.673Z" fill="#431849"/>
<path d="M141.095 198.699C123.927 208.866 90.2669 230.056 70.7383 219.96C93.2733 224.54 121.998 201.154 141.095 189.809C141.217 192.841 140.998 195.77 141.095 198.699Z" fill="#2E1031"/>
<path d="M127.182 172.412C126.152 172.154 125.121 171.896 124.088 171.638C123.827 165.261 125.337 166.393 122.156 155.79C126.205 159.187 127.488 167.306 127.182 172.412Z" fill="#431849"/>
<path d="M72.2884 124.475C74.14 125.907 74.0723 125.549 74.2206 125.636C74.2819 125.672 74.0465 125.82 75.3819 126.41L74.6077 126.991C78.6464 137.355 89.5171 149.842 92.3912 159.848C95.575 170.948 92.1203 182.867 96.2557 193.673C83.1559 211.754 63.8563 194.36 60.3048 173.764C58.6726 164.29 60.3887 158.432 60.3048 149.603C62.0338 142.771 65.295 125.139 65.7176 123.897C66.224 122.414 66.9337 121.668 68.0369 120.61C69.4982 121.439 71.4046 123.791 72.2884 124.475Z" fill="#621B5D"/>
<path d="M102.44 123.704C103.092 125.385 104.85 156.065 104.76 159.655C104.76 159.781 104.111 158.684 103.985 161.587C103.844 164.9 103.595 168.338 103.211 171.638C103.069 172.858 103.376 174.309 103.211 175.503C103.108 176.264 102.644 178.409 102.437 179.367C101.411 184.174 99.1469 189.677 96.2534 193.67C92.118 182.864 95.5728 170.945 92.389 159.845C89.5181 149.836 78.6473 137.349 74.6055 126.988L75.3796 126.407C78.2151 127.662 79.7505 127.614 82.3376 127.952C84.9891 128.301 85.773 128.491 88.5213 128.339C95.4502 127.959 93.9825 127.336 96.2534 126.407C97.105 126.059 96.8534 126.146 97.7985 125.633C99.2662 124.843 100.782 124.039 102.437 123.701L102.44 123.704Z" fill="#762A6E"/>
<path d="M72.2867 124.475C71.4028 123.791 69.4964 121.439 68.0352 120.61C72.9705 115.875 75.3415 117.565 72.2867 124.475Z" fill="#2E1031"/>
<path d="M102.441 123.704C100.786 124.043 99.2696 124.846 97.8019 125.636C96.8052 117.559 101.673 121.72 102.441 123.704Z" fill="#2E1031"/>
<path d="M112.107 158.106C112.407 159.548 114.349 157.806 116.165 158.106C117.698 158.358 122.565 163.203 121.191 163.906C114.762 158.706 111.766 160.103 103.988 161.587C104.114 158.684 104.759 159.78 104.762 159.655C105.914 159.429 107.095 159.103 108.243 158.88C108.956 158.745 109.44 158.684 110.175 158.493C110.527 158.403 111.269 158.368 112.107 158.106Z" fill="#431849"/>
<path d="M122.156 155.787C125.336 166.393 123.826 165.258 124.088 171.635C124.22 174.848 126.914 171.157 126.02 176.467C124.53 185.325 105.479 207.424 94.5142 207.973L93.9336 207.392C98.7238 199.831 102.514 188.309 102.437 179.367C102.64 178.409 103.104 176.264 103.211 175.503C104.176 178.208 105.143 180.914 106.111 183.622C113.446 184.138 113.175 172.703 109.975 178.209L103.211 171.638C103.591 168.338 103.84 164.9 103.985 161.587C111.762 160.103 114.759 158.706 121.188 163.906C122.562 163.203 117.694 158.358 116.162 158.106C114.346 157.806 112.404 159.548 112.104 158.106C115.249 157.132 118.588 155.358 121.768 154.242C121.588 155.113 122.03 155.371 122.156 155.787Z" fill="#621B5D"/>
<path d="M103.214 175.503C103.379 174.306 103.073 172.854 103.214 171.638L109.979 178.209C113.179 172.703 113.45 184.138 106.114 183.622C105.149 180.916 104.182 178.21 103.214 175.503Z" fill="#431849"/>
<path d="M347.142 103.214C345.819 104.859 344.268 105.475 342.503 106.308C337.429 105.788 333.529 106.108 332.646 100.124C326.984 113.759 310.136 102.975 308.098 92.0047C308.23 91.937 308.43 90.5209 310.03 91.2305C310.091 91.8563 311.143 92.3241 311.191 92.3918C314.098 96.5465 312.756 93.5079 314.091 93.166C325.336 90.2725 328.794 95.4917 332.258 95.0982C332.8 95.0369 336.949 92.4724 337.284 92.3918C341.571 91.3531 343.194 96.0304 347.529 83.8887C349.01 82.0339 349.897 79.9146 351.393 78.0889C352.171 83.4339 350.5 99.04 347.142 103.217V103.214Z" fill="#965431"/>
<path d="M322.398 67.6504C322.131 73.218 321.243 78.7114 320.853 84.2726C320.776 85.3532 321.247 87.2629 321.047 87.3661C319.469 88.1661 312.199 85.3919 314.476 90.4596C323.808 91.2176 321.998 88.8112 322.595 88.5274C324.337 87.6984 324.534 90.0306 325.495 87.7532C327.679 82.5791 327.169 74.2664 329.747 69.1987C329.934 69.5213 330.053 69.9503 330.521 69.9729C330.043 70.8148 328.43 83.4501 328.201 85.821C328.14 86.4435 326.827 89.1274 327.621 89.6854C329.114 89.4951 332.246 89.9499 333.034 89.6854C334.017 89.3532 333.579 87.8467 333.614 87.7532C335.524 82.4243 335.417 76.3308 337.866 71.131C337.979 71.16 338.13 71.1213 338.253 71.131C338.379 76.476 336.827 81.7017 336.321 86.979C336.233 87.8822 335.495 89.1435 336.127 90.4596C343.32 89.3467 340.491 88.0661 340.959 86.2081C341.637 83.5113 343.124 74.6148 344.44 73.4503C344.585 73.3212 345.82 72.6987 345.985 72.6761C344.697 78.0244 343.409 83.3716 342.12 88.7177C343.072 89.0145 346.466 85.2242 347.533 83.8855C343.201 96.0272 341.575 91.3531 337.288 92.3886C336.953 92.4692 332.805 95.0337 332.263 95.095C328.795 95.4885 325.337 90.266 314.095 93.1627C312.76 93.5079 314.102 96.5433 311.195 92.3886L312.74 85.4307C312.986 85.4081 317.231 83.8888 317.379 83.692C317.889 83.0243 320.227 70.0116 321.243 67.6504C321.527 67.702 322.127 67.7052 322.405 67.6504H322.398Z" fill="#25191F"/>
<path d="M308.094 92.0047C310.133 102.972 326.981 113.759 332.642 100.124C333.526 106.108 337.426 105.788 342.5 106.308C334.048 110.291 334.116 106.624 331.868 106.695C331.642 106.701 329.048 108.582 328.003 109.014C326.21 109.753 323.587 109.501 323.945 110.559C323.284 110.02 317.807 110.333 310.223 105.146C306.739 102.766 302.446 99.0626 301.91 94.7079C303.917 93.9047 306.2 92.9982 308.094 92.0015V92.0047Z" fill="#683423"/>
<path d="M329.746 69.1953C327.168 74.263 327.678 82.5789 325.494 87.7498L320.855 84.2692C321.246 78.708 322.133 73.2146 322.401 67.647C323.168 67.4921 326.094 62.9148 329.746 69.1921V69.1953Z" fill="#81472C"/>
<path d="M337.864 71.1307C335.412 76.3306 335.518 82.424 333.612 87.7529C331.808 87.1078 330.003 86.4637 328.199 85.8207C328.428 83.4498 330.041 70.8113 330.519 69.9726C330.877 69.3436 334.273 67.8953 334.964 68.0404C335.451 68.1437 337.657 71.0791 337.864 71.1339V71.1307Z" fill="#81472C"/>
<path d="M344.436 73.4499C343.12 74.6112 341.632 83.511 340.955 86.2077L336.316 86.9819C336.823 81.7046 338.374 76.4756 338.249 71.1338C339.852 71.2532 340.168 67.621 344.432 73.4531L344.436 73.4499Z" fill="#81472C"/>
<path d="M351.391 78.0889C349.891 79.9146 349.003 82.034 347.526 83.8888C346.458 85.2274 343.068 89.0177 342.113 88.7209C343.401 83.3726 344.69 78.0254 345.978 72.6793C350.107 72.489 350.858 74.4244 351.391 78.0921V78.0889Z" fill="#81472C"/>
<path d="M309.257 79.2466C308.228 81.6433 306.131 83.053 309.257 85.0465C308.338 86.1142 308.844 89.2819 308.483 90.0722C308.07 90.9818 303.222 92.6205 301.912 93.1656C301.632 86.24 302.651 81.7756 309.257 79.2498V79.2466Z" fill="#683423"/>
<path d="M344.434 107.082C342.511 108.507 339.389 109.278 337.089 109.788C336.482 109.924 329.786 110.833 328.586 110.949C327.244 111.078 325.696 110.814 324.334 110.949C324.321 110.924 323.983 110.591 323.947 110.562C323.589 109.504 326.212 109.753 328.005 109.017C329.054 108.585 331.647 106.704 331.87 106.698C334.115 106.627 334.047 110.295 342.502 106.311C344.266 105.479 345.818 104.862 347.14 103.217C347.018 104.169 344.995 106.669 344.434 107.082Z" fill="#25191F"/>
<path d="M310.03 90.4561C309.991 90.6948 310.004 90.9851 310.03 91.2303C308.43 90.5174 308.23 91.9335 308.098 92.0045C306.201 93.0012 303.917 93.9077 301.914 94.7109C301.853 94.2109 301.933 93.6722 301.914 93.1657C303.227 92.6206 308.072 90.9819 308.485 90.0723L310.03 90.4593V90.4561Z" fill="#381B15"/>
<path d="M312.735 85.4338L311.19 92.3917C311.141 92.324 310.093 91.8595 310.028 91.2304C310.003 90.9853 309.99 90.695 310.028 90.4563C310.07 90.1918 311.906 88.6047 311.961 85.4306C312.215 85.4241 312.48 85.4564 312.735 85.4306V85.4338Z" fill="#FAFAFC"/>
<path d="M325.492 87.753C324.531 90.0272 324.334 87.695 322.592 88.5272C321.995 88.8111 323.805 91.2207 314.473 90.4594C312.195 85.3918 319.47 88.1659 321.044 87.3659C321.244 87.2659 320.776 85.3531 320.85 84.2725L325.489 87.753H325.492Z" fill="#683423"/>
<path d="M333.611 87.753C333.575 87.8466 334.014 89.3562 333.03 89.6852C332.243 89.9497 329.111 89.4949 327.617 89.6852C326.824 89.1272 328.137 86.4434 328.198 85.8208C330.002 86.4659 331.807 87.11 333.611 87.753Z" fill="#683423"/>
<path d="M340.957 86.2044C340.489 88.0624 343.318 89.343 336.125 90.4559C335.492 89.1398 336.231 87.8818 336.318 86.9753L340.957 86.2012V86.2044Z" fill="#683423"/>
<path d="M348.686 125.249C344.858 127.065 338.509 128.413 334.384 128.342C333.426 126.171 333.984 121.249 333.609 119.839C335.719 118.265 336.113 112.849 337.09 109.788C339.39 109.278 342.512 108.507 344.435 107.082L348.686 125.249Z" fill="#965431"/>
<path d="M328.587 110.946C329.139 113.765 333.384 118.971 333.613 119.836C333.987 121.249 333.429 126.171 334.387 128.339C333.836 128.329 329.013 127.449 327.817 127.178C326.739 126.936 327.084 126.804 327.042 126.791C326.004 123.936 324.729 111.691 324.336 110.943C325.697 110.807 327.246 111.072 328.587 110.943V110.946Z" fill="#51281D"/>
<path d="M337.088 109.785C336.111 112.846 335.717 118.262 333.608 119.836C333.379 118.968 329.137 113.765 328.582 110.946C329.782 110.833 336.479 109.92 337.085 109.785H337.088Z" fill="#683423"/>
<path d="M311.962 85.4335C311.907 88.6076 310.071 90.1915 310.029 90.4592L308.484 90.0721C308.842 89.2818 308.339 86.1141 309.259 85.0464C311.839 84.7916 311.829 85.4367 311.965 85.4335H311.962Z" fill="#0C1428"/>
<path d="M321.24 67.6504C320.224 70.0116 317.882 83.0242 317.376 83.692C317.227 83.8887 312.982 85.408 312.737 85.4306C312.482 85.4564 312.221 85.4242 311.963 85.4306C311.828 85.4339 311.84 84.7919 309.257 85.0435C306.131 83.0533 308.228 81.6436 309.257 79.2437C310.67 78.705 313.434 79.0598 313.895 77.8921C314.744 75.7405 312.889 70.2439 316.795 66.8762C319.511 64.5343 320.095 67.4375 321.24 67.6504Z" fill="#81472C"/>
<path d="M311.768 80.0209C313.874 79.5951 322.01 84.3369 310.994 82.3402C309.707 81.1918 310.623 80.6628 311.768 80.0209Z" fill="#CDA697"/>
<path d="M80.4082 87.3656L78.6696 88.1398C75.8664 81.0787 76.7599 84.6431 77.7018 90.4591C73.7955 89.2301 74.5954 83.1012 72.8697 83.8883C73.8213 89.9011 74.4309 98.9557 79.8276 102.83C84.3017 106.043 91.2273 106.562 91.8112 99.7363C93.9273 111.336 109.433 106.033 112.491 100.704C114.372 97.4299 113.304 95.6816 112.491 92.3913C112.911 91.1591 112.598 91.2978 112.491 90.8462C114.747 92.2634 117.002 93.6806 119.256 95.0977C120.804 93.4526 114.54 91.9978 113.649 85.4334C114.698 85.2721 116.791 82.598 117.901 81.9528C120.862 85.3463 122.833 94.8171 120.607 98.7686C118.665 102.214 104.401 110.623 98.9594 110.172C98.6401 110.146 93.8983 108.21 92.966 107.852C92.5951 107.71 91.6661 106.333 91.4209 106.307C90.8757 106.246 89.0274 108.891 80.7889 107.852C80.5985 107.762 78.8631 105.143 77.3083 106.307C77.0115 105.691 74.5858 103.578 73.4439 100.314C71.602 95.0493 69.9439 78.5045 73.4439 74.2208C77.2502 72.4143 78.0276 82.1851 80.4018 87.3656H80.4082Z" fill="#683423"/>
<path d="M105.532 66.4887C104.99 71.9467 103.893 77.2304 103.6 82.7238C103.587 82.9787 103.603 83.24 103.6 83.498C102.57 85.1733 101.539 86.8485 100.506 88.5237C100.442 88.4753 99.1 88.2786 98.9613 87.9431C98.5162 86.8657 97.7388 58.9469 96.642 75.9595C96.4065 79.6175 96.8517 83.3077 96.642 86.9754H91.6163C89.3099 69.7241 89.8615 63.8888 89.6841 86.2012C88.0089 86.0722 86.3336 85.9431 84.6584 85.8141C83.8713 81.5368 83.1746 74.7627 83.1133 70.3499C86.5132 70.2499 85.5648 68.7661 87.1713 68.4177C89.2325 67.9693 90.8421 69.2145 91.0357 69.1919C91.2712 69.1628 93.9195 66.5661 94.9001 66.4855C96.2969 66.3694 98.2678 68.3112 99.5387 68.0306C100.455 67.8274 100.935 64.6178 105.532 66.4855V66.4887Z" fill="#81472C"/>
<path d="M83.1114 70.3564C83.1726 74.7692 83.8694 81.5433 84.6565 85.8206C85.0404 87.898 83.1533 89.2818 89.6822 89.1076V86.2077C89.8596 63.892 89.308 69.7306 91.6144 86.9819C91.695 87.5883 91.3918 89.3947 91.8079 89.6883C98.5852 89.9431 96.5691 88.2302 96.6401 86.9819C96.8498 83.3142 96.4046 79.6207 96.6401 75.966C97.7401 58.9534 98.5143 86.8722 98.9594 87.9496C99.0981 88.2851 100.44 88.4786 100.505 88.5302C106.837 93.2656 117.817 87.398 103.017 86.598C102.604 86.369 103.588 84.1368 103.598 83.5045C103.601 83.2465 103.585 82.9884 103.598 82.7303C104.092 82.7916 104.675 82.6336 105.143 82.7303C107.088 83.1336 111.924 85.7012 113.646 85.4367C114.536 92.0011 120.801 93.4559 119.253 95.101C116.997 93.6839 114.742 92.2667 112.488 90.8495C110.849 83.7884 109.64 84.8948 111.327 90.8495C108.04 92.4559 104.017 91.456 100.695 92.0108C99.0594 92.2817 92.637 94.7204 92.1918 94.7172C91.637 94.714 84.9952 91.7818 83.3017 91.2366C81.8662 90.7753 78.6115 90.7527 77.6953 90.4624C76.7502 84.6464 75.8599 81.082 78.6631 88.1431L80.4017 87.369C84.3404 87.9141 81.4759 76.4853 81.1759 69.9725C82.3985 69.579 82.9049 70.3661 83.1081 70.3596L83.1114 70.3564Z" fill="#25191F"/>
<path d="M117.903 81.9529C116.793 82.5981 114.697 85.2722 113.651 85.4335C111.929 85.698 107.09 83.1303 105.148 82.7271C105.41 82.1723 105.568 81.711 105.923 81.182C109.219 83.3561 111.5 75.6595 106.31 80.7949C106.697 76.5434 107.084 72.2908 107.471 68.0371C110.952 72.2241 108.468 76.1595 109.403 77.895C109.774 78.582 114.6 78.1627 117.906 81.9529H117.903Z" fill="#965431"/>
<path d="M81.1774 69.9695C81.4774 76.4791 84.3451 87.9111 80.4032 87.3659C78.0291 82.1886 77.2517 72.4146 73.4453 74.2211C76.013 71.0792 76.4517 73.3888 77.8904 73.0598C78.6839 72.8792 79.142 70.6244 81.1774 69.9663V69.9695Z" fill="#81472C"/>
<path d="M107.465 68.0373C107.078 72.2888 106.691 76.5414 106.304 80.7951C106.194 80.9016 105.933 81.1596 105.917 81.1822C105.565 81.7112 105.404 82.1725 105.143 82.7273C104.675 82.6305 104.088 82.7886 103.598 82.7273C103.894 77.2339 104.988 71.9469 105.53 66.4922C106.814 67.0148 106.64 67.047 107.462 68.0373H107.465Z" fill="#51281D"/>
<path d="M77.7 90.4563C78.6161 90.7434 81.8709 90.7692 83.3064 91.2305C85.0031 91.7756 91.6417 94.7046 92.1965 94.711C92.6416 94.711 99.0673 92.2788 100.7 92.0046C104.022 91.453 108.045 92.453 111.332 90.8434C111.69 92.1046 112.467 92.295 112.493 92.3885C113.306 95.6788 114.373 97.4271 112.493 100.701C109.432 106.03 93.9287 111.333 91.8126 99.7335C91.2288 106.559 84.3031 106.037 79.829 102.827C74.4323 98.9529 73.8227 89.8982 72.8711 83.8855C74.5969 83.0984 73.7969 89.2273 77.7032 90.4563H77.7Z" fill="#965431"/>
<path d="M112.49 90.8433C112.597 91.2949 112.909 91.1562 112.49 92.3885C112.468 92.2949 111.69 92.1046 111.329 90.8433C109.642 84.8886 110.851 83.7822 112.49 90.8433Z" fill="#F1E6D8"/>
<path d="M103.601 83.498C103.592 84.1271 102.611 86.3625 103.021 86.5915C117.82 87.3915 106.84 93.2591 100.508 88.5237C101.538 86.8485 102.569 85.1733 103.601 83.498Z" fill="#683423"/>
<path d="M89.6819 86.2045V89.1044C83.1531 89.2786 85.0401 87.8948 84.6562 85.8174C86.3315 85.9464 88.0067 86.0754 89.6819 86.2045Z" fill="#683423"/>
<path d="M96.6436 86.979C96.5726 88.2274 98.5887 89.937 91.8114 89.6854C91.3953 89.3919 91.6985 87.5854 91.6179 86.979H96.6436Z" fill="#683423"/>
<path d="M80.7884 107.852C84.9561 109.833 90.7947 109.997 95.672 110.172C96.2333 110.452 95.3107 111.42 95.0913 111.717C93.5494 113.801 88.9463 117.978 86.9722 121.381C84.1335 113.436 84.7012 118.742 82.3336 127.952C79.7465 127.613 78.2111 127.662 75.3756 126.407C74.0434 125.817 74.2757 125.668 74.2144 125.633C73.6144 122.604 78.1949 108.201 78.0788 107.272C78.0724 107.21 77.5595 106.833 77.3046 106.304C78.8562 105.143 80.5949 107.759 80.7852 107.849L80.7884 107.852Z" fill="#683423"/>
<path d="M98.572 110.946C97.4366 116.04 96.9527 121.249 96.2527 126.41C93.9818 127.339 95.4495 127.962 88.5206 128.343C88.0078 126.572 87.8884 124.698 87.3594 122.93C90.527 121.23 93.0754 115.398 95.8624 112.491C96.6914 111.627 97.0753 110.504 98.5688 110.946H98.572Z" fill="#683423"/>
<path d="M98.9635 110.172C98.9635 110.504 98.6603 110.565 98.5765 110.946C97.0829 110.507 96.6991 111.626 95.8701 112.491L95.0959 111.717C95.3152 111.42 96.2346 110.452 95.6765 110.172C90.8024 109.997 84.9606 109.833 80.793 107.852C89.0283 108.888 90.8766 106.246 91.425 106.307C91.6734 106.336 92.6024 107.71 92.9701 107.852C93.9024 108.21 98.641 110.146 98.9635 110.172Z" fill="#25191F"/>
<path d="M86.9791 121.385C87.034 121.539 87.1598 122.239 87.3662 122.93C87.892 124.697 88.0146 126.568 88.5275 128.342C85.7792 128.494 84.9921 128.304 82.3438 127.955C84.7114 118.746 84.1437 113.44 86.9824 121.385H86.9791Z" fill="#965431"/>
<path d="M95.8667 112.491C93.0764 115.398 90.5313 121.23 87.3636 122.93C87.1572 122.236 87.0314 121.539 86.9766 121.385C88.9475 117.981 93.5538 113.804 95.0957 111.72L95.8699 112.494L95.8667 112.491Z" fill="#51281D"/>
<path d="M105.918 81.1791C105.934 81.1565 106.195 80.9017 106.305 80.792C111.495 75.6567 109.215 83.35 105.918 81.1791Z" fill="#D3BEB5"/>
<path d="M233.101 134.139C233.685 141.239 233.73 142.342 229.237 148.055C228.979 139.42 228.72 130.787 228.462 122.155C228.54 122.01 228.759 121.052 228.85 120.61C237.336 114.568 239.401 108.339 240.059 98.188C242.636 99.7847 245.552 97.8912 247.017 95.4816C251.204 88.6043 247.685 78.6207 239.672 83.1109C240.672 79.7207 244.691 80.9045 245.472 79.8239C245.93 79.1884 245.901 68.6951 246.246 68.2274C246.559 67.8048 248.043 68.308 249.146 67.6467C254.539 64.4081 250.107 58.2276 245.475 56.6308C254.062 54.3825 251.636 45.4182 247.214 44.4537C243.546 43.6537 242.633 46.073 240.836 44.2601C238.598 42.0053 240.878 41.9279 241.223 40.3957C243.065 32.1668 232.982 28.2056 227.695 34.4023C227.375 34.3249 227.224 34.9539 226.727 34.7894C226.433 34.6926 226.446 33.4991 222.282 32.4701C221.124 32.183 220.459 32.97 220.156 32.8571C219.692 32.683 219.314 26.1863 214.356 25.5121C209.808 24.8928 208.24 27.6185 206.431 30.9249L199.86 32.4701C198.234 29.2282 195.499 28.2863 192.128 28.9895C185.699 30.3314 187.254 36.4958 186.521 37.1087C183.057 40.0054 176.925 35.7442 173.957 40.0086C169.915 45.8182 176.647 49.9858 176.276 50.4471C166.038 51.2342 168.799 60.1953 177.438 62.8178C166.719 69.3983 176.412 72.9466 176.664 73.6434C176.818 74.0724 175.412 76.8852 177.051 79.4432C177.705 80.4658 180.296 81.2464 182.076 82.7303C173.602 79.1949 169.577 88.7947 173.573 95.2945C177.018 100.901 181.857 97.5687 182.076 98.0009C182.315 98.4686 181.934 102.207 184.009 108.246C186.938 116.775 191.947 118.055 192.512 120.617C192.65 121.246 192.454 122.436 192.512 123.323C193.063 131.584 192.421 140.174 192.124 148.451C188.602 142.735 189.612 139.861 189.418 134.149C189.325 131.41 189.689 122.065 189.418 121.197C189.076 120.1 179.041 115.597 179.754 101.481C167.377 100.869 164.78 83.7593 175.889 79.4465C174.783 71.7144 173.638 74.4304 172.025 72.1015C168.39 66.8629 174.467 63.3436 174.344 62.8242C174.222 62.3146 167.783 60.7372 168.16 55.0921C168.457 50.6277 173.46 49.6955 173.573 49.2923C173.673 48.9245 170.528 46.8601 171.254 42.3344C172.635 33.7216 183.412 37.9183 184.976 36.3409C185.767 35.5474 187.212 20.4251 201.211 30.9281C207.556 29.4959 205.782 27.8766 206.818 26.8702C211.866 21.9477 219.814 24.038 220.927 31.3152C223.721 30.8088 225.921 32.9991 227.111 32.8604C227.927 32.7636 236.982 25.8605 241.607 33.8281C244.604 38.9893 240.988 42.7698 241.994 43.4924C251.462 40.0828 256.672 51.7374 248.952 57.0211C258.965 65.721 248.265 69.0822 247.791 69.7789C247.507 70.1983 246.462 79.3529 246.63 79.8303C246.862 80.4852 252.878 82.5141 251.656 91.8139C250.51 100.511 243.098 100.862 242.765 101.478C242.407 102.143 243.565 109.559 238.901 115.781C233.685 122.736 230.608 116.652 231.943 130.471C232.143 132.552 233.088 133.952 233.104 134.142L233.101 134.139Z" fill="#FAFAFC"/>
<path d="M199.858 32.4733C200.225 37.4506 194.677 36.857 197.345 38.2731C205.467 31.2862 204.793 48.7536 196.184 44.4569C193.751 43.244 195.664 41.2376 195.409 40.9763C194.445 39.9796 183.884 41.2279 192.122 28.9927C195.493 28.2895 198.225 29.2282 199.854 32.4733H199.858Z" fill="#052334"/>
<path d="M209.133 44.8411C198.166 44.1831 209.469 42.4799 202.562 34.0156C210.472 30.2544 217.704 40.2316 209.133 44.8411Z" fill="#052334"/>
<path d="M218.409 48.7085C221.135 48.7504 222.29 49.6052 222.661 52.1891C223.38 57.2019 217.593 56.4148 214.348 54.8955C212.193 53.0471 214.193 48.644 218.406 48.7117L218.409 48.7085Z" fill="#052334"/>
<path d="M218.027 45.6153C217.878 45.6927 217.401 45.5378 217.253 45.6153C209.117 39.6702 220.569 35.8284 223.436 42.3282C222.491 44.5121 219.92 44.6443 218.024 45.6153H218.027Z" fill="#052334"/>
<path d="M192.122 28.9928C183.884 41.228 194.445 39.9796 195.409 40.9764C195.661 41.2377 193.751 43.2409 196.184 44.457C204.793 48.7504 205.467 31.2831 197.345 38.2732C194.677 36.8604 200.225 37.4539 199.858 32.4733L206.428 30.9282C206.319 31.1314 207.254 31.7347 206.622 32.0895C206.225 32.3088 200.838 32.0734 202.564 34.0217C209.47 42.486 198.167 44.186 209.135 44.8473C209.803 45.0473 210.032 45.8569 210.296 46.3924C210.77 47.3634 210.912 48.5666 212.035 49.0988C213.735 48.1762 215.096 46.5021 215.322 46.3924C215.725 46.1989 216.083 46.2247 217.254 45.6182C217.402 45.5408 217.877 45.6956 218.028 45.6182C219.012 47.1021 218.683 47.0247 218.415 48.7117C214.202 48.6472 212.203 53.0471 214.357 54.8954C217.599 56.4148 223.386 57.2019 222.67 52.1891C226.715 47.5343 221.77 54.3245 230.596 59.147C238.97 53.2568 230.376 66.4984 242.386 60.8856C241.399 64.7888 242.544 66.0791 242.386 67.0694C242.331 67.4242 240.244 71.6725 240.066 72.4822C239.386 75.5853 240.486 79.0562 237.747 81.1788C237.721 80.7046 238.512 75.9724 238.134 71.708C237.689 66.6823 237.021 63.5082 232.141 61.076C224.873 57.4535 203.125 57.9535 194.835 59.5308C191.9 60.0889 186.326 61.1695 185.171 64.363C184.677 65.7307 183.571 82.0304 183.626 84.2722C182.952 84.0142 182.948 83.4497 182.081 82.7271C180.3 81.2433 177.71 80.4626 177.055 79.4401C175.416 76.8821 176.823 74.0725 176.668 73.6402C176.416 72.9435 166.723 69.3984 177.442 62.8146C168.803 60.1921 166.042 51.231 176.281 50.4439C176.652 49.9859 169.92 45.815 173.961 40.0054C176.929 35.741 183.058 40.0054 186.526 37.1055C187.258 36.4926 185.7 30.3282 192.132 28.9863L192.122 28.9928Z" fill="#0C1428"/>
<path d="M203.913 46.3894C210.074 45.1991 211.477 54.4731 207.006 55.6666C198.69 57.8827 196.697 47.7862 203.913 46.3894Z" fill="#052334"/>
<path d="M184.97 40.2021C188.528 39.1667 191.606 41.8666 191.348 45.4214C185.638 53.7051 176.377 42.7053 184.97 40.2021Z" fill="#052334"/>
<path d="M192.316 48.3217C200.645 46.7024 197.213 62.7892 188.645 52.7668C187.491 51.2733 191.684 48.4443 192.316 48.3217Z" fill="#052334"/>
<path d="M182.655 50.2538C185.713 50.1603 187.361 53.6247 186.326 56.2472C178.342 60.6084 176.881 50.428 182.655 50.2538Z" fill="#052334"/>
<path d="M215.319 46.3894C215.096 46.4991 213.732 48.17 212.032 49.0958C210.906 48.5635 210.767 47.3603 210.293 46.3894C211.628 46.0088 212.635 44.4636 212.806 44.4572C213.283 44.4378 214.277 46.2797 215.319 46.3894Z" fill="#052334"/>
<path d="M222.277 32.4735C221.316 36.8282 221.236 34.5605 218.413 36.5315C218.458 37.3702 222.79 37.0218 223.632 39.4314C227.535 37.9766 221.952 35.496 223.632 35.1799C228.01 38.1831 226.232 36.5412 230.784 34.9863C229.706 34.8541 228.751 34.6638 227.69 34.4057C232.977 28.2091 243.061 32.167 241.219 40.3991C240.877 41.9346 238.596 42.0088 240.832 44.2636C242.632 46.0764 243.541 43.6571 247.209 44.4571C251.632 45.4216 254.057 54.3859 245.47 56.6343C250.106 58.231 254.538 64.4115 249.141 67.6502C248.038 68.3114 246.558 67.805 246.241 68.2308C245.896 68.6985 245.929 79.1919 245.467 79.8273C244.687 80.9047 240.667 79.7241 239.667 83.1144C238.958 83.5111 238.625 84.3176 237.735 84.2756C237.638 83.2627 237.79 82.2047 237.735 81.1821C240.474 79.0564 239.374 75.5887 240.054 72.4855C240.232 71.6759 242.319 67.4308 242.374 67.0728C242.532 66.0792 241.387 64.7922 242.374 60.889C230.364 66.5018 238.955 53.2601 230.584 59.1503C221.758 54.3279 226.703 47.5377 222.658 52.1924C222.287 49.6086 221.132 48.757 218.407 48.7119C218.674 47.028 219.003 47.1054 218.019 45.6184C219.916 44.6474 222.487 44.5152 223.432 42.3313C220.565 35.8315 209.113 39.6733 217.249 45.6184C216.078 46.2248 215.72 46.1958 215.316 46.3926C214.274 46.2797 213.281 44.4378 212.803 44.4603C212.632 44.4668 211.626 46.0119 210.291 46.3926C210.029 45.8539 209.797 45.0474 209.129 44.8474C217.7 40.2378 210.468 30.2606 202.559 34.0218C200.833 32.0735 206.223 32.309 206.616 32.0896C207.252 31.738 206.313 31.1316 206.423 30.9284C208.229 27.622 209.8 24.8962 214.349 25.5156C219.303 26.1898 219.684 32.6832 220.148 32.8606C220.452 32.9767 221.119 32.1896 222.274 32.4735H222.277Z" fill="#052334"/>
<path d="M227.691 34.4059C228.753 34.6639 229.707 34.851 230.785 34.9865C226.233 36.5413 228.011 38.18 223.633 35.18C221.953 35.4961 227.536 37.9767 223.633 39.4315C222.791 37.0219 218.459 37.3703 218.414 36.5316C221.24 34.5607 221.32 36.8284 222.279 32.4736C226.446 33.5026 226.43 34.6962 226.724 34.7929C227.217 34.9575 227.369 34.3284 227.691 34.4059Z" fill="#052334"/>
<path d="M230.588 36.338C235.246 36.0702 235.191 41.9636 235.42 42.3314C235.714 42.8023 243.514 48.1603 236.388 50.6441C233.159 51.7699 232.782 48.5506 230.395 46.9732C237.53 41.8862 234.395 43.7346 228.656 45.2345C223.237 43.341 226.592 36.5734 230.588 36.3444V36.338Z" fill="#052334"/>
<path d="M223.631 44.4571C224.157 44.3022 225.86 47.0119 226.918 46.9699C226.886 47.3828 223.58 50.5989 220.348 46.5828C221.199 46.4861 223.444 44.5119 223.635 44.4571H223.631Z" fill="#052334"/>
<path d="M200.244 130.275C203.551 140.107 212.425 142.987 218.028 132.594C218.228 132.542 220.176 130.746 221.892 131.049C221.111 132.249 220.066 135.713 217.641 138.975C213.347 144.745 200.07 152.332 216.866 147.094C213.192 151.984 211.338 152.713 211.454 159.271C204.496 159.597 195.783 154.381 192.125 148.445C192.422 140.171 193.064 131.578 192.512 123.317C194.564 123.265 196.099 127.939 200.244 130.275Z" fill="#51281D"/>
<path d="M229.237 148.058C225.527 152.774 217.482 158.987 211.454 159.267C211.337 152.709 213.192 151.98 216.866 147.09C200.07 152.329 213.344 144.742 217.641 138.971C220.07 135.71 221.111 132.245 221.892 131.045C223.869 128.013 226.727 125.465 228.463 122.155C228.721 130.789 228.979 139.423 229.237 148.055V148.058Z" fill="#965431"/>
<path d="M188.646 97.8009C188.462 107.143 195.803 109.275 196.378 109.784C197.771 111.023 202.152 116.394 203.529 116.355C203.965 116.342 204.055 115.13 204.497 115.194C204.623 115.213 204.758 115.178 204.884 115.194C204.516 115.842 204.265 116.381 204.11 117.126C203.494 120.146 205.668 119.807 207.974 120.991C206.568 121.829 206.284 125.171 206.429 126.791C196.329 124.768 197.303 121.362 192.513 120.607C191.949 118.046 186.939 116.765 184.01 108.236C188.984 110.681 180.072 98.8428 185.171 94.3203C185.429 94.9364 188.055 97.517 188.652 97.8009H188.646Z" fill="#683423"/>
<path d="M206.427 126.794C206.598 126.83 207.94 127.881 209.714 127.955C217.794 128.281 221.862 124.362 227.881 120.223C228.252 119.968 228.633 120.762 228.849 120.61C228.759 121.052 228.539 122.01 228.462 122.155C226.726 125.465 223.868 128.013 221.891 131.046C220.175 130.746 218.227 132.539 218.027 132.591C213.214 133.842 204.637 132.749 200.243 130.271C196.101 127.936 194.563 123.262 192.511 123.313C192.453 122.426 192.65 121.236 192.511 120.607C197.301 121.365 196.327 124.772 206.427 126.791V126.794Z" fill="#0C1428"/>
<path d="M247.019 95.482C243.071 97.6851 242.584 97.8722 238.9 94.7078C238.191 92.8433 240.92 93.6304 241.994 93.5465C242.349 93.5175 243.8 95.0336 244.313 92.5788C244.3 91.3853 238.107 87.7724 245.281 90.8401C247.506 86.8467 242.329 84.8048 239.287 87.3596C239.236 87.195 237.903 85.9757 237.742 84.2661C238.632 84.3112 238.965 83.5048 239.674 83.1048C247.687 78.6146 251.206 88.5982 247.019 95.4755V95.482Z" fill="#683423"/>
<path d="M247.022 95.4817C245.554 97.8913 242.641 99.7816 240.064 98.1881C238.712 97.7655 238.896 95.9333 238.902 94.7075C242.583 97.8687 243.073 97.6816 247.022 95.4817Z" fill="#51281D"/>
<path d="M194.832 59.5308V69.5822C190.18 69.8467 183.903 74.7079 187.1 78.8594C186.893 79.3852 185.545 87.5656 186.326 88.9108C185.5 89.4269 185.361 89.8204 184.78 90.4559C184.771 90.4075 184.058 90.1946 184.006 89.8753C183.99 89.772 184.832 88.4721 184.78 87.9431C184.761 87.7366 183.7 87.4302 183.619 84.2722C183.564 82.0335 184.671 65.7306 185.164 64.3629C186.319 61.1694 191.893 60.0888 194.829 59.5308H194.832Z" fill="#683423"/>
<path d="M203.725 91.2304C199.883 92.9142 200.493 101.159 209.138 101.669C209.186 102.091 209.057 102.666 209.138 102.83L200.248 103.991C199.051 103.004 195.867 103.285 192.516 98.5786C193.674 98.4399 196.428 96.6657 196.767 95.4851V95.098L203.144 88.9143C205.815 87.7595 203.796 90.2658 203.725 91.2336V91.2304Z" fill="#683423"/>
<path d="M194.831 69.5824C202.921 69.1212 201.302 74.6598 200.05 74.9952C199.353 75.1823 189.318 73.2179 187.099 78.8597C183.902 74.7081 190.179 69.847 194.831 69.5824Z" fill="#0C1428"/>
<path d="M203.722 91.2305C203.228 97.7948 206.757 100.598 213.192 98.5755C214.383 98.2013 219.712 92.5304 216.479 98.3819C215.128 100.827 211.699 101.817 209.134 101.669C200.493 101.163 199.883 92.9143 203.722 91.2305Z" fill="#381B15"/>
<path d="M209.136 102.827C210.526 105.691 219.871 104.056 222.664 103.214C222.709 103.588 222.587 104.014 222.664 104.375C216.89 106.978 207.755 106.539 201.403 105.92C200.416 105.052 200.329 104.059 200.242 103.988L209.132 102.827H209.136Z" fill="#6D2F29"/>
<path d="M224.599 108.24C223.703 109.552 222.244 112.198 221.506 113.072C220.996 113.678 216.435 118.133 216.093 118.291C213.822 119.346 206.606 118.533 204.109 117.13C204.261 116.385 204.516 115.846 204.884 115.198C205.49 115.278 210.393 118.094 216.674 115.198C218.516 114.346 222.683 109.862 223.051 107.853L224.596 108.24H224.599Z" fill="#8D3B33"/>
<path d="M188.645 88.1367C189.497 92.4495 192.171 98.9816 196.764 95.4817C196.422 96.6591 193.671 98.4365 192.513 98.5752C192.387 98.5913 192.255 98.572 192.126 98.5752C191.948 98.5817 188.822 97.8849 188.645 97.801C188.051 97.5172 185.422 94.9366 185.164 94.3205C184.468 92.6624 185.019 91.7237 184.777 90.456C185.358 89.8206 185.497 89.427 186.322 88.9109C187.122 88.4109 187.677 88.1851 188.642 88.1367H188.645Z" fill="#D25D39"/>
<path d="M196.764 95.0979V95.485C192.17 98.9849 189.499 92.4528 188.645 88.14C192.303 87.9658 197.341 90.9883 196.764 95.0979Z" fill="#D25D39"/>
<path d="M241.995 93.5495C238.178 89.6432 239.391 87.7013 239.288 87.3658C242.327 84.8078 247.507 86.8497 245.282 90.8464C238.108 87.7787 244.301 91.3915 244.314 92.585C243.801 95.0366 242.349 93.5237 241.995 93.5528V93.5495Z" fill="#381B15"/>
<path d="M216.09 118.291C219.954 119.207 208.877 120.455 207.97 120.997C205.661 119.813 203.49 120.152 204.106 117.133C206.603 118.533 213.819 119.346 216.09 118.294V118.291Z" fill="#51281D"/>
<path d="M237.738 81.1787C237.793 82.1981 237.641 83.2593 237.738 84.2722C237.902 85.9786 239.235 87.1979 239.283 87.3657C239.386 87.7012 238.173 89.6431 241.99 93.5494C240.915 93.6333 238.186 92.8462 238.896 94.7107C238.89 95.9365 238.706 97.7687 240.057 98.1913C239.396 108.343 237.335 114.568 228.848 120.613C228.635 120.765 228.251 119.971 227.88 120.226C221.858 124.365 217.79 128.284 209.713 127.958C207.942 127.887 206.597 126.833 206.426 126.797C206.281 125.181 206.564 121.836 207.971 120.997C208.877 120.459 219.951 119.207 216.09 118.291C216.432 118.133 220.993 113.678 221.503 113.072C222.238 112.197 223.696 109.552 224.596 108.239C225.983 106.21 227.17 104.02 228.654 102.056C229.79 114.436 231.87 105.214 228.848 98.9622C239.98 99.6299 235.896 85.169 226.335 88.5237C222.716 89.7947 222.854 92.572 223.435 95.4816C223.577 96.1978 223.435 97.6235 223.822 98.3816C224.861 100.427 231.299 100.614 222.661 103.214C219.864 104.056 210.519 105.691 209.132 102.827C209.052 102.662 209.181 102.088 209.132 101.665C211.697 101.817 215.126 100.823 216.477 98.3784C219.713 92.5269 214.384 98.1977 213.19 98.5719C206.755 100.594 203.226 97.7913 203.719 91.2269C203.79 90.2592 205.81 87.7528 203.139 88.9076L196.761 95.0913C197.342 90.9785 192.303 87.956 188.642 88.1334C187.675 88.1786 187.123 88.4076 186.323 88.9076C185.542 87.5625 186.891 79.382 187.097 78.8562C189.316 73.2144 199.348 75.1756 200.048 74.9918C201.3 74.6563 202.919 69.1177 194.829 69.579V59.5276C203.119 57.9502 224.864 57.4502 232.135 61.0727C237.012 63.5049 237.68 66.6758 238.128 71.7047C238.506 75.9692 237.715 80.7013 237.741 81.1755L237.738 81.1787Z" fill="#965431"/>
<path d="M219.766 69.9695C224.563 68.9341 233.221 71.0856 231.943 77.5081C227.779 74.892 222.644 73.134 217.834 74.9952C216.702 74.592 216.779 70.6147 219.766 69.9695Z" fill="#0C1428"/>
<path d="M228.851 98.9623C231.873 105.214 229.793 114.436 228.657 102.056C227.173 104.02 225.983 106.214 224.599 108.24L223.054 107.852C223.286 106.594 222.919 105.562 222.667 104.372C222.59 104.011 222.712 103.585 222.667 103.211C231.302 100.611 224.867 100.424 223.828 98.3785C223.444 97.6236 223.586 96.1946 223.441 95.4785C224.17 97.0172 227.741 98.8913 228.854 98.9591L228.851 98.9623Z" fill="#25191F"/>
<path d="M229.234 85.8175C225.241 77.6242 224.805 83.4563 222.663 84.6563C220.683 85.7659 220.099 84.7659 218.605 85.4304C219.267 78.2177 227.499 77.6725 230.396 84.4627C232.25 88.8175 229.731 85.9208 229.234 85.8143V85.8175Z" fill="#1B1313"/>
<path d="M200.242 85.8178C195.726 77.6212 196.559 82.0533 192.897 85.4307C191.178 85.3855 189.61 86.0984 189.227 85.8178C189.272 79.9953 196.914 77.1405 200.242 82.5307C203.197 87.3145 200.507 85.85 200.242 85.8178Z" fill="#25191F"/>
<path d="M200.243 85.8174C197.676 85.4916 195.456 85.4949 192.898 85.4304C196.56 82.053 195.727 77.6176 200.243 85.8174Z" fill="#FAFAFC"/>
<path d="M229.235 85.8175C227.658 85.4853 222.78 85.9337 222.664 84.6563C224.806 83.4563 225.245 77.6242 229.235 85.8175Z" fill="#FAFAFC"/>
<path d="M213.389 92.7786C213.215 92.8786 213.741 94.5463 210.102 94.3237C208.393 92.6334 211.302 92.5657 212.228 92.0044L213.389 92.7786Z" fill="#FAFAFC"/>
<path d="M213.388 92.7788L212.227 92.0046C212.368 91.9207 212.462 90.7337 215.126 90.4595C216.975 92.7885 213.559 92.6788 213.388 92.7788Z" fill="#381C0B"/>
<path d="M218.026 132.594C212.423 142.987 203.549 140.106 200.242 130.274C204.636 132.752 213.213 133.845 218.026 132.594Z" fill="#3E191E"/>
<path d="M223.052 107.852C222.685 109.862 218.517 114.346 216.675 115.197C210.394 118.094 205.491 115.278 204.885 115.197C204.759 115.181 204.624 115.217 204.498 115.197C200.85 112.533 198.717 109.807 196.766 105.727C196.301 104.01 198.314 105.62 201.404 105.92C207.756 106.539 216.891 106.978 222.665 104.375C222.917 105.562 223.281 106.594 223.052 107.856V107.852Z" fill="#FAFAFC"/>
<path d="M192.511 98.5752C195.863 103.278 199.047 103.001 200.244 103.988C200.331 104.059 200.415 105.052 201.405 105.92C198.315 105.62 196.298 104.011 196.766 105.727C198.718 109.81 200.847 112.533 204.498 115.197C204.06 115.133 203.969 116.346 203.531 116.359C202.153 116.397 197.773 111.027 196.379 109.788C195.55 106.352 191.124 101.304 192.128 98.5784C192.257 98.5752 192.389 98.5946 192.515 98.5784L192.511 98.5752Z" fill="#25191F"/>
<path d="M192.124 98.5754C191.121 101.301 195.547 106.353 196.376 109.785C195.802 109.275 188.463 107.143 188.644 97.8013C188.821 97.8851 191.944 98.5819 192.124 98.5754Z" fill="#965431"/>
<path d="M228.848 98.9622C227.736 98.8945 224.165 97.0235 223.436 95.4816C222.855 92.572 222.713 89.7947 226.336 88.5237C235.897 85.169 239.98 99.6299 228.848 98.9622Z" fill="#D25D39"/>
<path d="M229.816 90.0723C240.283 93.7915 227.187 100.93 227.69 91.4239L229.816 90.0723Z" fill="#DC6E3E"/>
<path d="M182.071 82.7271C182.942 83.4529 182.942 84.0142 183.616 84.2722C183.694 87.4334 184.755 87.7367 184.777 87.9431C184.829 88.4721 183.987 89.7721 184.003 89.8753C184.055 90.1947 184.768 90.4076 184.777 90.456C185.019 91.7269 184.468 92.6624 185.165 94.3204C180.068 98.8429 188.977 110.681 184.003 108.236C181.929 102.201 182.31 98.459 182.071 97.9913C181.848 97.559 177.013 100.891 173.568 95.2849C169.575 88.785 173.597 79.1852 182.071 82.7206V82.7271Z" fill="#51281D"/>
<path d="M178.015 86.2046C190.276 87.6433 174.56 101.214 175.889 87.9433L178.015 86.2046Z" fill="#25191F"/>
<path d="M178.787 89.2983L180.526 89.879C180.89 93.2886 176.613 92.2886 178.787 89.2983Z" fill="#51281D"/>
</svg>
