<svg width="420" height="305" viewBox="0 0 420 305" fill="none" xmlns="http://www.w3.org/2000/svg">
<g clip-path="url(#clip0_14842_31072)">
<path d="M315.869 170.845C316.469 171.88 317.575 173.092 318.325 174.123C318.118 174.534 317.792 175.005 317.507 175.351C317.28 175.626 315.889 176.875 315.869 176.99C314.898 177.604 309.978 173.149 312.387 172.484C315.614 173.543 312.248 171.48 315.869 170.845Z" fill="#FCFCFC"/>
<path d="M133.145 265.893C140.42 269.004 149.913 270.592 157.727 271.627C152.299 271.875 145.15 272.94 138.883 273.266C137.346 273.344 135.928 273.595 134.377 273.676C111.359 274.874 81.4876 275.298 59.1993 279.41C45.8344 281.877 36.6666 284.418 51.2089 288.015C58.2866 289.762 68.6453 291.041 75.9944 291.703C114.213 295.147 225.634 294.163 270.387 293.752C277.211 293.688 284.047 293.878 290.871 293.752C306.38 293.464 321.075 293.396 336.55 290.885C341.039 290.156 359.975 287.072 355.805 283.512C322.761 273.666 287.658 275.2 253.589 272.862C251.329 272.706 248.625 272.35 246.623 271.223C259.17 270.653 265.949 270.643 278.167 265.896C299.197 268.119 320.467 269.147 341.259 273.269C349.867 274.976 365.455 278.81 372.804 283.102C392.178 294.407 369.638 301.729 358.876 304.813C253.731 305.017 148.566 305.105 43.422 304.813C21.5883 299.877 8.41685 289.762 37.2774 279.414C46.9677 275.939 59.413 273.686 69.6428 272.041C90.7131 268.651 111.916 267.749 133.142 265.896L133.145 265.893Z" fill="#FCFCFC"/>
<path d="M290.872 293.752C292.409 281.955 283.977 281.158 283.292 280.642C282.172 279.797 280.676 269.184 266.086 278.593C262.296 275.973 256.901 274.979 253.59 272.858C287.659 275.196 322.759 273.663 355.806 283.509C359.976 287.068 341.04 290.152 336.551 290.882C321.076 293.396 306.381 293.46 290.872 293.749V293.752Z" fill="#F17637"/>
<path d="M246.629 271.22C248.631 272.346 251.335 272.702 253.595 272.859C256.903 274.979 262.301 275.977 266.091 278.593C280.681 269.184 282.177 279.797 283.297 280.642C283.979 281.158 292.413 281.955 290.876 293.752C284.053 293.878 277.216 293.688 270.393 293.752C269.036 293.389 266.42 292.999 265.066 292.935C255.79 292.473 236.083 293.712 238.845 289.043C240.189 284.374 261.293 290.801 270.8 283.309L269.776 280.645C261.178 283.981 249.024 286.356 240.484 281.874C239.89 281.561 231.914 275.203 229.834 273.68C229.508 272.339 232.392 273.174 236.389 272.041C239.823 271.654 243.171 271.379 246.632 271.223L246.629 271.22Z" fill="#582113"/>
<path d="M134.375 273.676C131.532 276.679 128.536 278.613 125.77 281.87C125.068 282.698 124.009 283.248 123.314 284.327C99.2951 285.932 75.317 288.544 51.2101 288.015C36.6678 284.422 45.8356 281.877 59.2005 279.41C81.4854 275.298 111.357 274.874 134.378 273.676H134.375Z" fill="#F17637"/>
<path d="M123.319 284.33C122.935 284.924 120.557 289.857 121.269 290.475C135.737 290.325 158.103 292.069 171.662 290.885C173.972 290.685 173.993 290.085 174.118 290.068C175.794 289.82 176.958 289.688 178.624 289.25C192.023 290.237 222.478 293.332 233.522 292.527C233.522 292.812 233.413 293.237 233.726 293.345C235.205 293.861 261.229 293.138 265.066 292.935C266.42 293.002 269.036 293.393 270.393 293.752C225.64 294.166 114.219 295.147 76.0004 291.703C68.6513 291.041 58.2926 289.766 51.2148 288.015C75.3218 288.544 99.2999 285.932 123.319 284.327V284.33Z" fill="#9E3E2E"/>
<path d="M233.519 292.524C222.475 293.332 192.023 290.234 178.621 289.246C182.004 288.351 184.304 287.004 187.226 285.969C191.986 284.286 196.784 282.681 201.564 281.052C213.172 284.184 224.908 287.967 235.979 292.317C235.735 292.717 234.076 292.48 233.523 292.521L233.519 292.524Z" fill="#3E1711"/>
<path d="M164.694 271.63C167.232 271.81 181.479 275.122 182.72 276.547L170.431 281.259C171.659 284.195 172.889 287.131 174.119 290.068C173.99 290.088 173.973 290.685 171.663 290.885C171.615 289.223 173.261 291.035 173.302 289.043C173.315 288.368 169.508 280.839 168.999 280.645C167.547 280.089 148.76 278.348 138.887 273.272C145.154 272.947 152.302 271.881 157.731 271.634C160.144 271.525 162.288 271.461 164.697 271.634L164.694 271.63Z" fill="#3E1711"/>
<path d="M121.265 290.474C120.553 289.857 122.931 284.924 123.315 284.33C124.01 283.251 125.069 282.701 125.771 281.873L128.228 282.487C125.398 288.001 126.416 291.533 121.262 290.478L121.265 290.474Z" fill="#582113"/>
<path d="M138.878 273.269C148.751 278.345 167.538 280.086 168.99 280.642C169.499 280.836 173.306 288.368 173.293 289.04C173.252 291.031 171.606 289.22 171.654 290.882C158.096 292.066 135.729 290.322 121.262 290.472C126.416 291.527 125.398 287.998 128.227 282.481L125.771 281.867C128.533 278.61 131.532 276.676 134.376 273.673C135.929 273.592 137.344 273.344 138.881 273.262L138.878 273.269Z" fill="#582113"/>
<path d="M138.265 281.052C137.559 285.358 139.348 290.828 136.626 290.475C135.361 287.082 135.072 283.502 138.265 281.052Z" fill="#3E1711"/>
<path d="M181.08 97.9244C184.517 97.8566 187.306 97.2832 190.502 95.8751C180.567 102.739 174.358 96.2144 173.5 95.8751C173.394 95.8344 172.794 96.9235 172.271 96.6928C169.381 95.4306 166.873 92.7095 166.537 92.5975C165.258 92.1666 160.858 92.9707 157.933 90.5481C156.928 89.7169 156.389 87.715 155.476 86.86C154.217 85.6826 150.76 86.6666 149.125 77.6413C148.843 76.0941 149.83 74.6555 149.535 73.1355C149.406 72.4704 145.077 67.0315 144.619 60.6392C144.14 53.989 146.203 52.6759 146.258 52.2416C146.302 51.865 144.924 49.361 146.258 44.8687C147.265 41.469 151.035 38.3067 151.174 37.903C151.432 37.1599 150.916 34.7747 151.174 34.2148C152.83 30.6285 153.142 30.9169 153.223 30.7336C154.146 40.4205 151.113 40.675 150.356 42.4088C145.389 53.7888 149.321 53.4427 149.128 55.1087C149.067 55.6414 145.596 58.4236 148.514 65.145C158.734 54.0501 150.044 69.6238 150.356 72.7249C150.4 73.166 151.561 73.3865 151.585 73.5426C153.675 87.8338 158.927 85.6521 158.55 83.3754C152.484 79.0189 165.16 80.4032 159.368 85.0142C160.433 86.3748 168.712 92.8791 169.611 91.5694C170.348 80.5627 171.301 92.4753 174.117 95.6647C176.326 98.1653 178.046 97.9753 181.083 97.9177L181.08 97.9244Z" fill="#1E100E"/>
<path d="M220.408 95.0571C219.417 97.9377 216.811 95.6984 214.674 96.2854C212.767 95.488 211.963 94.3174 210.985 92.5972C209.951 90.7752 208.98 89.0142 209.347 86.8631C213.805 84.8986 219.597 78.927 221.229 74.3668C221.982 72.2632 221.31 67.1771 222.867 68.4258C225.64 69.2638 220.621 73.0334 223.482 74.1599C229.416 70.1222 226.542 69.1654 226.963 67.8082C227.099 67.3705 231.482 66.1423 230.651 60.0248C227.886 56.5809 225.758 58.179 223.278 61.0495C223.59 55.7259 224.035 50.0088 222.05 44.8684C220.808 41.6485 212.149 32.5825 208.939 30.7334C202.808 27.2013 201.607 27.6051 195.829 31.1439C191.279 33.9295 182.121 42.4323 180.262 47.3249C180.174 47.5557 181.161 47.498 181.08 47.7355C180.652 48.9943 179.546 49.5677 179.03 56.1331L178.213 56.3366C178.325 67.6623 177.524 55.027 172.272 58.179C168.119 64.9582 173.948 65.9489 178.006 70.8789C180.34 70.1494 177.555 67.1127 180.669 69.6506C182.807 76.3619 187.808 83.5923 194.19 86.8563C193.369 88.6851 193.929 91.0093 193.78 93.001C192.521 94.3039 192.015 94.823 190.502 95.868C187.306 97.2761 184.517 97.8495 181.08 97.9174C176.577 94.9383 173.059 82.1028 174.728 81.5294C176.089 81.0645 178.454 87.5179 179.03 88.2881C183.988 94.9451 180.184 87.6401 179.441 85.4211C179.085 84.3523 179.315 81.1019 179.03 80.5047C178.013 78.3671 172.543 82.4251 171.04 72.1071C168.852 74.9572 170.504 76.5723 165.92 75.1811C171.44 69.9254 170.311 70.6549 164.281 64.1201C171.593 62.2336 168.075 60.6728 171.247 55.1084C166.989 53.8801 170.66 48.5227 175.753 46.5038L170.836 44.865C184.33 42.7241 175.621 41.7367 175.753 41.1769C180.907 38.7509 187.207 34.1772 182.104 35.2358C180.113 34.0483 186.956 33.5699 191.527 30.73C183.665 23.5301 194.492 29.7935 195.008 28.8876C194.251 21.5283 191.612 15.8417 196.85 20.0795C196.134 15.8722 199.683 17.2565 200.128 20.49C200.969 20.5002 200.152 2.77876 204.634 20.49C209.092 18.2405 211.124 20.4764 207.708 23.9712L212.01 24.5853C212.794 25.4777 206.035 27.4795 216.312 25.1994C215.22 26.292 214.127 27.3845 213.035 28.477C223.136 31.4086 216.96 33.0338 219.386 35.2358C219.658 35.4835 223.288 36.0433 225.942 38.5134C226.528 39.0631 227.472 42.0014 227.991 42.2016C228.398 42.3576 236.921 39.4906 229.426 43.2262C231.567 47.2605 231.686 51.427 231.883 51.8308C232.134 52.3363 242.974 50.0189 232.293 55.5189C234.594 58.3012 234.013 60.7984 236.799 62.8918C230.895 64.3101 236.304 63.4008 236.388 64.5306C232.249 67.0516 234.902 74.4686 232.907 65.1448C230.888 73.6441 214.599 82.0756 226.763 78.2552L227.377 78.8693C219.793 84.3014 224.781 83.555 223.689 88.2915C223.017 91.2027 218.484 90.4427 220.411 95.0503L220.408 95.0571Z" fill="#0F0909"/>
<path d="M245.403 86.4527C242.75 87.9864 241.688 87.5792 241.511 87.681C240.483 88.2883 239.574 90.4904 238.234 91.3691C235.139 93.3913 231.75 92.6788 230.861 93.0079C230.667 93.0792 230.335 94.6942 227.583 95.4644C223.6 96.5807 218.351 97.8192 214.68 96.2821C216.821 95.6952 219.423 97.9345 220.414 95.0539C221.452 99.0779 227.861 89.883 228.404 89.727C229.877 89.3028 230.854 91.739 234.138 90.5446C237.606 89.2859 248.158 69.3183 241.718 87.0635L245.406 86.4493L245.403 86.4527Z" fill="#1E100E"/>
<path d="M256.46 61.8741C255.713 68.6634 251.716 72.148 251.543 72.7316C250.59 75.9447 253.118 81.991 245.399 86.4561L241.71 87.0702C248.15 69.325 237.598 89.2926 234.131 90.5514C230.846 91.7457 229.869 89.3062 228.396 89.7337C227.857 89.8898 221.448 99.0847 220.406 95.0606C218.479 90.453 223.012 91.213 223.684 88.3019C224.776 83.5653 219.785 84.3117 227.372 78.8796L226.758 78.2655C214.594 82.086 230.887 73.6545 232.902 65.1551C234.897 74.4789 232.247 67.0619 236.383 64.541C236.299 63.4111 230.89 64.3204 236.794 62.9022C234.008 60.8087 234.589 58.3081 232.288 55.5293C242.969 50.0293 232.129 52.3467 231.878 51.8411C231.677 51.4407 231.559 47.2708 229.421 43.2366C236.916 39.5009 228.393 42.3714 227.986 42.2119C227.467 42.0117 226.527 39.0734 225.937 38.5237C223.283 36.0537 219.653 35.4938 219.381 35.2461C216.959 33.0441 223.131 31.4155 213.03 28.4874C214.122 27.3948 215.215 26.3023 216.307 25.2098C206.03 27.4898 212.789 25.488 212.005 24.5956L207.703 23.9815C211.123 20.4868 209.087 18.2508 204.629 20.5003C200.147 2.78908 200.964 20.5105 200.123 20.5003C199.678 17.2668 196.129 15.8825 196.845 20.0898C191.607 15.852 194.243 21.5386 195.003 28.8979C194.487 29.8038 183.66 23.5404 191.522 30.7403C186.951 33.5802 180.108 34.0586 182.1 35.2461C187.206 34.1875 180.905 38.7579 175.748 41.1872C175.616 41.7471 184.325 42.7344 170.831 44.8754L175.748 46.5142C170.652 48.533 166.984 53.8905 171.242 55.1187C168.073 60.6832 171.592 62.2473 164.276 64.1304C170.306 70.6653 171.435 69.9358 165.915 75.1915C170.499 76.5826 168.847 74.9709 171.035 72.1174C172.535 82.4354 178.008 78.3775 179.025 80.515C179.31 81.1122 179.076 84.3626 179.436 85.4314C180.179 87.6504 183.983 94.9555 179.025 88.2985C178.452 87.5283 176.084 81.0715 174.723 81.5397C173.054 82.1131 176.569 94.9487 181.075 97.9277C178.038 97.9854 176.318 98.1754 174.109 95.6748C171.293 92.4854 170.339 80.5727 169.603 91.5795C168.707 92.8892 160.429 86.3848 159.36 85.0243C165.152 80.4132 152.476 79.0289 158.542 83.3855C158.922 85.6621 153.67 87.8438 151.576 73.5527C151.553 73.3932 150.392 73.176 150.348 72.735C150.033 69.6338 158.725 54.0635 148.506 65.1551C145.588 58.4336 149.059 55.648 149.12 55.1187C149.313 53.4528 145.384 53.7989 150.348 42.4189C151.105 40.6851 154.138 40.4272 153.215 30.7437C156.435 23.5065 157.219 25.885 158.542 24.3921C158.837 24.0596 159.373 21.2332 160.795 20.0898C163.628 17.8097 166.254 18.9871 166.529 18.8615C167.215 18.5494 167.479 16.6018 168.579 15.9945C169.291 15.6009 173.726 13.7585 175.951 12.7169C176.43 12.4929 178.306 12.9408 178.819 12.7169C180.746 11.8754 181.821 6.47723 193.568 9.43928C195.488 9.92448 198.983 12.3233 199.302 12.3063C199.943 12.269 202.325 8.08549 211.184 9.02873C211.774 9.08981 213.495 10.6506 213.64 10.6675C213.98 10.7083 217.118 9.43589 217.736 9.43928C225.662 9.46643 226.116 12.8119 227.569 13.5346C227.755 13.6296 229.163 13.0562 231.664 14.3523C232.363 14.7153 233.978 16.9988 234.531 17.2193C235.742 17.7011 237.714 16.7816 239.447 18.037C240.36 18.7021 240.553 20.5852 241.497 21.3146C241.615 21.4063 243.872 21.7286 244.364 22.1324C248.422 25.4642 247.129 28.2974 247.438 28.8911C247.533 29.0743 250.271 30.1635 250.715 31.3476C251.051 32.2468 249.545 36.1012 254.403 41.9981C255.194 47.3997 257.04 56.5234 256.453 61.8673L256.46 61.8741Z" fill="#3E1711"/>
<path d="M184.56 23.3638C188.519 26.3564 189.975 29.5966 183.535 26.8449L184.56 23.3638Z" fill="#1E100E"/>
<path d="M230.04 76.2126C229.63 77.7146 229.221 79.2165 228.811 80.7185C227.865 79.2222 229.826 76.0871 230.04 76.2126Z" fill="#250C04"/>
<path d="M235.568 113.084C234.279 116.826 231.001 121.896 230.652 125.784C223.984 140.716 191.935 138.609 180.466 132.339C176.334 130.079 174.99 127.324 172.886 126.605C172.333 122.164 169.361 118.526 167.152 114.723C167.828 114.716 167.366 113.054 169.609 115.133C170.715 116.158 173.931 121.906 178.006 124.966C188.945 133.174 208.411 133.286 220.408 127.833C227.913 124.423 229.763 120.932 232.29 113.084C233.105 113.301 234.727 112.87 235.568 113.084Z" fill="#F2E5B3"/>
<path d="M164.69 271.63C162.281 271.457 160.137 271.522 157.724 271.63C149.91 270.595 140.42 269.004 133.142 265.896C117.952 259.402 106.596 243.794 101.188 228.614C115.621 244.168 130.825 255.096 149.734 264.664C156.5 268.088 163.041 269.91 164.073 270.399C164.487 270.595 164.799 271.138 164.687 271.627L164.69 271.63Z" fill="#356D6C"/>
<path d="M133.556 209.356C137.248 210.781 138.619 212.491 140.522 212.633C142.684 214.7 151.97 219.955 154.861 221.238C154.752 221.764 155.047 222.222 155.475 222.466C165.328 228.149 175.616 233.029 185.177 239.265C192.713 244.178 199.743 249.797 206.889 255.242C210.645 258.103 214.183 261.346 217.95 264.254C221.963 267.355 225.713 270.667 229.832 273.676C231.912 275.2 239.888 281.558 240.482 281.87C238.426 285.246 236.38 290.821 234.952 290.882C219.453 279.309 200.819 272.825 183.742 263.843C169.515 256.359 123.839 230.362 113.891 221.238C111.129 218.707 105.663 210.693 101.602 207.717C102.243 206.74 103.905 205.03 104.879 204.439C112.666 199.706 125.549 206.268 133.556 209.356Z" fill="#90CEC6"/>
<path d="M99.1428 217.55C103.496 220.529 108.599 221.672 113.892 221.238C123.84 230.362 169.516 256.362 183.743 263.844C200.82 272.825 219.454 279.309 234.953 290.882C236.381 290.818 238.427 285.246 240.483 281.87C249.023 286.353 261.177 283.977 269.775 280.642L270.799 283.306C261.292 290.797 240.188 284.371 238.845 289.04C236.079 293.708 255.786 292.47 265.065 292.931C261.228 293.132 235.204 293.858 233.725 293.342C233.409 293.233 233.518 292.806 233.521 292.524C234.074 292.484 235.733 292.718 235.977 292.321C224.91 287.971 213.17 284.188 201.563 281.056C195.608 279.448 188.907 277.802 183.129 276.961C183.115 276.934 183.013 276.886 182.718 276.55C181.476 275.125 167.229 271.817 164.691 271.634C164.803 271.145 164.491 270.599 164.077 270.406C163.046 269.917 156.504 268.095 149.739 264.671C130.826 255.1 115.626 244.171 101.192 228.621C99.9876 225.238 98.1758 221.398 98.3251 217.764C98.3386 217.428 99.1428 217.601 99.1428 217.56V217.55Z" fill="#89432A"/>
<path d="M113.894 221.238C108.601 221.676 103.498 220.532 99.1445 217.55C99.4736 213.268 99.0461 211.619 101.601 207.717C105.662 210.693 111.132 218.703 113.89 221.238H113.894Z" fill="#4B8785"/>
<path d="M323.648 197.067C322.589 197.776 321.11 198.475 319.96 199.116C317.039 199.106 313.065 202.475 310.334 202.804C308.437 203.032 304.478 202.099 299.684 202.394C299.304 202.417 295.602 203.72 292.311 204.033C291.948 204.066 293.234 202.37 285.755 203.622C279.553 204.66 259.979 215.355 273.67 201.573C287.74 197.006 303.891 201.498 316.275 196.246C326.077 192.089 322.335 191.309 322.627 182.318C325.87 188.795 322.606 195.048 328.568 188.052C331.408 184.72 333.25 179.071 335.534 182.111C337.111 186.498 326.936 194.861 323.651 197.063L323.648 197.067Z" fill="#582113"/>
<path d="M279.405 196.656C279.677 196.635 279.952 196.656 280.223 196.656C277.818 198.485 275.921 199.306 273.668 201.572C259.977 215.354 279.551 204.66 285.754 203.622C293.232 202.37 291.946 204.066 292.309 204.032C295.6 203.72 299.305 202.417 299.682 202.393C304.476 202.098 308.436 203.028 310.332 202.804C313.067 202.478 317.04 199.109 319.958 199.116C316.521 201.033 312.762 202.872 308.897 203.622C304.873 202.308 296.194 203.839 291.895 204.85C284.909 206.495 277.288 210.197 271.205 213.861C270.39 213.522 269.559 213.583 268.748 213.451C268.032 213.336 267.401 213.183 266.699 213.04C267.371 211.958 265.633 211.741 266.699 207.713C267.578 204.395 270.804 202.074 272.843 199.519C274.862 199.194 277.78 196.768 279.399 196.652L279.405 196.656Z" fill="#3E1711"/>
<path d="M315.863 194.61C315.907 194.966 316.48 195.255 316.273 196.249C303.889 201.501 287.739 197.009 273.668 201.576C275.918 199.309 277.818 198.488 280.223 196.66C280.708 196.66 284.19 197.867 285.343 197.888C288.173 197.942 306.206 198.271 306.851 197.274C306.987 197.06 306.729 196.242 306.851 195.838C308.266 195.696 310.017 196.035 311.357 195.838C312.707 195.638 314.411 194.6 315.863 194.61Z" fill="#89432A"/>
<path d="M328.566 188.055C322.608 195.048 325.868 188.798 322.625 182.321C322.336 191.312 326.079 192.092 316.273 196.249C316.48 195.255 315.907 194.966 315.862 194.61C315.845 194.478 315.873 194.335 315.862 194.199C316.823 194.352 316.639 193.806 316.68 193.789C317.145 193.629 318.034 193.986 318.319 193.175C318.546 192.53 318.573 182.524 318.729 180.271C320.775 180.193 321.064 179.874 321.186 179.861C321.308 179.847 321.736 180.787 323.642 180.064C322.133 178.029 320.674 175.932 319.137 173.92C318.808 173.489 318.485 174.357 318.319 174.123C317.569 173.092 316.463 171.881 315.862 170.846C315.744 170.642 315.981 169.841 315.862 169.617C317.026 167.677 323.999 177.723 324.874 179.243C326.533 182.124 327.453 184.96 328.562 188.051L328.566 188.055Z" fill="#A05535"/>
<path d="M318.736 180.272C318.58 182.525 318.553 192.534 318.326 193.175C318.041 193.986 317.152 193.63 316.687 193.789C317.26 183.726 315.262 185.68 315.869 194.2C315.879 194.335 315.852 194.475 315.869 194.61C314.414 194.6 312.71 195.642 311.363 195.838C312.568 194.132 315.347 187.746 313.82 185.802C313.833 185.551 316.86 183.98 313.409 184.777C315.116 183.071 316.592 182.789 316.687 180.272C317.369 180.255 318.054 180.299 318.736 180.272Z" fill="#3E1711"/>
<path d="M311.357 195.838C310.017 196.035 308.266 195.696 306.852 195.838C307.266 194.474 306.831 191.875 308.49 189.079C309.447 187.468 312.06 186.124 313.407 184.777C316.857 183.98 313.827 185.551 313.817 185.802C315.344 187.746 312.565 194.132 311.361 195.838H311.357Z" fill="#582113"/>
<path d="M321.189 179.861C321.064 179.875 320.775 180.194 318.733 180.272C318.051 180.299 317.365 180.255 316.683 180.272C316.694 180.034 315.774 177.452 315.866 176.994C315.886 176.879 317.277 175.63 317.505 175.355L321.193 179.861H321.189Z" fill="#563F37"/>
<path d="M321.192 179.861L317.504 175.355C317.789 175.009 318.118 174.537 318.322 174.127C318.491 174.357 318.81 173.492 319.139 173.923C320.68 175.935 322.135 178.032 323.645 180.068C321.738 180.79 321.311 179.85 321.189 179.864L321.192 179.861Z" fill="#582113"/>
<path d="M316.683 193.789C316.639 193.802 316.825 194.352 315.865 194.199C315.261 185.683 317.26 183.725 316.683 193.789Z" fill="#CFB5AA"/>
<path d="M182.718 276.543C183.01 276.879 183.115 276.927 183.129 276.954C183.363 277.402 183.102 280.947 187.224 285.965C184.303 287 182.003 288.347 178.62 289.243C176.954 289.684 175.79 289.813 174.114 290.061C172.886 287.125 171.656 284.189 170.426 281.253L182.715 276.54L182.718 276.543Z" fill="#4B8785"/>
<path d="M311.768 226.154C307.381 243.475 295.108 259.314 278.174 265.893C265.956 270.639 259.177 270.65 246.63 271.22C243.169 271.376 239.823 271.654 236.386 272.037C236.427 272.027 236.237 271.321 236.59 271.22C256.581 265.367 287.033 255.201 301.524 239.879C305.508 235.665 308.3 230.29 311.768 226.154Z" fill="#356D6C"/>
<path d="M308.904 203.622C317.176 206.322 312.975 217.516 312.592 220.01C293.235 222.951 273.441 238.162 252.984 248.276C241.472 253.97 229.403 258.428 217.956 264.254C214.189 261.343 210.651 258.102 206.895 255.242C224.68 243.065 243.264 232.153 261.586 220.827C264.538 219.002 268.07 215.758 271.211 213.862C277.292 210.197 284.912 206.496 291.902 204.85C296.201 203.839 304.88 202.309 308.904 203.622Z" fill="#4B8785"/>
<path d="M312.59 220.01C312.342 221.604 312.152 224.655 311.772 226.154C308.304 230.29 305.515 235.665 301.529 239.879C287.037 255.202 256.585 265.367 236.594 271.22C236.238 271.325 236.431 272.027 236.39 272.037C232.397 273.171 229.51 272.336 229.835 273.676C225.72 270.663 221.967 267.355 217.953 264.254C229.401 258.428 241.47 253.97 252.982 248.277C273.442 238.159 293.233 222.948 312.59 220.01Z" fill="#89432A"/>
<path d="M271.208 213.865C268.063 215.762 264.534 219.005 261.582 220.831C243.26 232.157 224.677 243.068 206.891 255.246C199.746 249.8 192.715 244.181 185.18 239.268C195.236 241.433 205.968 243.075 216.11 240.497C221.271 239.183 235.338 230.945 238.028 226.158C244.567 224.753 263.045 217.251 268.755 213.458C269.566 213.59 270.401 213.526 271.212 213.869L271.208 213.865Z" fill="#356D6C"/>
<path d="M279.405 196.656C277.787 196.771 274.869 199.197 272.85 199.523C269.939 199.995 256.978 200.056 255.234 197.884C254.701 197.223 254.979 196.581 254.823 196.245C257.827 194.811 260.831 193.377 263.835 191.943C260.693 192.694 257.552 193.445 254.413 194.196C247.257 174.663 248.791 170.048 246.219 157.325C252.133 159.154 261.453 158.852 261.786 150.77C263.733 152.527 263.343 159.126 263.835 162.445C264.364 166.014 268.51 190.206 269.162 191.533C270.746 194.763 276.735 194.196 279.405 196.653V196.656Z" fill="#90CEC6"/>
<path d="M246.219 156.918C246.246 157.05 246.192 157.196 246.219 157.328C248.791 170.052 247.257 174.666 254.413 194.199C254.488 194.4 253.843 194.115 254.824 196.249C254.98 196.585 254.701 197.226 255.234 197.888H251.139C246.823 189.473 243.094 162.53 240.488 152.005C242.049 153.871 243.824 156.059 246.222 156.921L246.219 156.918Z" fill="#65A7A5"/>
<path d="M255.236 197.888C256.98 200.059 269.941 199.998 272.852 199.527C270.81 202.081 267.586 204.402 266.708 207.721C261.822 205.213 253.665 202.814 251.141 197.888H255.236Z" fill="#65A7A5"/>
<path d="M254.824 196.249C253.843 194.115 254.488 194.4 254.413 194.2C257.555 193.449 260.696 192.698 263.835 191.947C260.831 193.381 257.827 194.815 254.824 196.249Z" fill="#356D6C"/>
<path d="M240.487 152.001C243.093 162.526 246.825 189.47 251.138 197.884C253.665 202.811 261.822 205.209 266.705 207.717C265.639 211.744 267.376 211.961 266.705 213.044C259.522 211.602 252.464 207.917 248.678 201.369C245.536 195.937 239.951 174.602 239.256 167.979C239.184 167.3 239.391 167.045 238.438 167.161C239.893 163.615 239.127 153.019 238.027 149.134C239.157 149.796 239.683 151.041 240.484 152.001H240.487Z" fill="#356D6C"/>
<path d="M163.872 166.34C162.668 178.059 159.753 202.177 149.33 209.356C147.939 210.313 142.459 212.59 140.932 212.634C140.898 210.951 141.675 209.97 141.75 208.128C154.518 205.223 156.265 199.788 144.206 194.403C159.488 211.609 146.419 196.765 143.182 194.607C141.007 193.155 137.865 191.747 135.191 192.15C135.324 191.255 135.792 190.596 136.009 189.694C152.519 188.642 150.283 205.488 155.264 189.897C156.896 184.791 156.794 180.163 156.903 179.654C156.978 179.308 157.588 179.708 157.721 179.04C158.308 176.115 159.482 173.262 159.77 170.232C160.052 167.256 160.089 156.616 158.952 156.507C159.129 156.378 159.95 155.065 160.181 154.869C161.283 153.939 164.941 150.661 165.508 149.952C164.378 155.371 164.432 160.874 163.869 166.34H163.872Z" fill="#356D6C"/>
<path d="M141.75 208.128C142.103 199.574 131.792 195.112 129.461 195.017C130.265 194.535 134.879 192.198 135.195 192.15C137.865 191.75 141.007 193.158 143.185 194.607C146.422 196.765 159.492 211.605 144.21 194.403C156.269 199.788 154.521 205.223 141.754 208.128H141.75Z" fill="#4B8785"/>
<path d="M158.956 156.507C160.096 156.616 160.056 167.256 159.774 170.232C159.489 173.262 158.312 176.115 157.725 179.04C157.44 179.04 157.015 179.148 156.907 178.836C156.279 177.038 157.168 160.972 157.725 157.328C157.925 157.206 158.79 156.629 158.953 156.51L158.956 156.507Z" fill="#356D6C"/>
<path d="M147.077 159.377C151.484 160.036 153.903 159.686 157.727 157.328C157.171 160.972 156.282 177.038 156.909 178.836C157.018 179.152 157.446 179.043 157.727 179.04C157.591 179.708 156.981 179.308 156.909 179.654C156.801 180.159 156.903 184.791 155.271 189.897C150.29 205.488 152.526 188.642 136.016 189.694C137.285 184.462 139.039 163.785 140.111 154.872C142.795 157.783 143.009 158.77 147.077 159.377Z" fill="#4B8785"/>
<path d="M141.957 186.823C147.298 186.389 151.674 188.761 152.404 194.403C149.832 188.852 147.108 188.642 141.957 186.823Z" fill="#356D6C"/>
<path d="M84.8036 185.595C85.5908 186.545 86.4221 187.203 87.2601 188.051C89.8354 190.66 92.6855 192.445 95.8647 194.196C108.147 200.961 125.95 202.166 139.702 207.717C139.169 213.4 137.978 209.159 133.557 209.356C125.55 206.268 112.663 199.706 104.88 204.439C98.2126 201.833 92.5057 197.83 87.2635 192.968C84.8613 190.738 79.8974 186.952 79.8906 183.545C81.1223 185.228 82.6728 186.826 84.807 185.595H84.8036Z" fill="#582113"/>
<path d="M91.3604 183.138C93.6303 186.535 95.5338 189.979 95.8663 194.199C92.6905 192.449 89.837 190.664 87.2617 188.055C87.8283 185.456 88.7919 183.759 90.1288 181.5C89.9489 182.534 91.2993 183.053 91.357 183.138H91.3604Z" fill="#74311F"/>
<path d="M98.3277 176.173C98.2462 176.366 96.4208 179.701 96.2783 179.861C95.0874 181.194 92.4612 180.879 91.3619 183.139C91.3042 183.054 89.9538 182.535 90.1337 181.5C93.2789 176.186 97.3064 173.034 97.5066 172.488C99.7357 172.933 98.8604 174.877 98.3243 176.176L98.3277 176.173Z" fill="#582113"/>
<path d="M100.78 176.583C100.98 178.11 100.033 179.712 100.369 181.5C99.5754 182.131 98.9545 181.378 98.32 181.089V176.173C98.8527 174.873 99.7281 172.933 97.5023 172.485C97.5464 172.366 97.465 172.203 97.5023 172.074C98.9307 171.043 100.668 175.742 100.78 176.58V176.583Z" fill="#582113"/>
<path d="M84.8032 185.595C82.669 186.83 81.1185 185.229 79.8868 183.546C79.8631 175.464 84.3825 185.086 84.8032 185.595Z" fill="#74311F"/>
<path d="M129.458 195.017C131.789 195.112 142.1 199.574 141.747 208.127C141.672 209.973 140.895 210.95 140.929 212.633C140.794 212.637 140.655 212.644 140.519 212.633C138.619 212.491 137.248 210.781 133.553 209.356C137.974 209.159 139.165 213.4 139.698 207.717C140.387 200.361 133.716 198.61 128.637 195.017C128.901 194.987 129.19 195.007 129.454 195.017H129.458Z" fill="#372317"/>
<path d="M98.3267 181.089C97.6549 180.784 96.5522 180.353 96.2773 179.861C96.4165 179.705 98.2453 176.369 98.3267 176.173V181.089Z" fill="#F3E0D3"/>
<path d="M98.3295 181.089C98.964 181.377 99.5849 182.131 100.379 181.5C100.946 184.496 108.875 185.395 109.598 196.659C123.465 198.699 127.679 195.136 128.649 195.021C133.728 198.614 140.399 200.368 139.71 207.72C125.962 202.173 108.159 200.968 95.873 194.199C95.5405 189.979 93.6371 186.535 91.3672 183.138C92.4665 180.879 95.0927 181.194 96.2836 179.861C96.555 180.353 97.6577 180.784 98.3329 181.089H98.3295Z" fill="#A05535"/>
<path d="M96.8867 184.777C99.8182 188.235 99.2584 192.991 101.803 194.61C106.686 191.729 96.9817 183.145 101.393 185.188C111.025 194.552 99.2991 202.678 96.8867 184.777Z" fill="#582113"/>
<path d="M238.435 167.161C239.388 167.049 239.181 167.3 239.253 167.979C237.597 172.233 230.139 179.752 229.83 180.475C229.62 180.967 230.041 182.575 229.83 183.138C210.914 180.393 191.816 180.75 172.886 183.138C172.34 181.625 172.55 180.2 172.476 180.064C171.99 179.182 166.619 179.267 163.871 166.34C164.434 160.874 164.38 155.374 165.51 149.952C165.639 149.789 166.562 147.75 166.738 147.495C167.23 146.79 168.326 145.86 168.787 145.039C167.44 153.219 165.042 158.845 170.837 166.547C173.382 169.93 179.19 173.601 183.333 174.537C186.485 175.246 222.939 176.207 226.349 175.765C230.828 175.189 236.704 171.372 238.435 167.161Z" fill="#4B8785"/>
<path d="M237.618 147.906C237.75 148.303 237.917 148.747 238.029 149.134C239.125 153.019 239.895 163.612 238.439 167.161C236.709 171.368 230.832 175.189 226.354 175.765C222.944 176.203 186.49 175.246 183.338 174.537C179.195 173.604 173.386 169.933 170.841 166.547C165.046 158.841 167.445 153.219 168.792 145.039C171.924 139.423 173.688 133.017 172.887 126.605C174.991 127.324 176.335 130.079 180.467 132.339C191.939 138.609 223.985 140.716 230.652 125.784C229.689 136.533 236.224 143.699 237.618 147.906Z" fill="#90CEC6"/>
<path d="M228.605 216.322C229.47 217.608 234.058 219.494 233.111 226.769C233.471 227.281 237.233 226.324 238.027 226.155C235.337 230.942 221.273 239.18 216.109 240.493C205.967 243.072 195.235 241.426 185.179 239.265C175.617 233.029 165.33 228.15 155.477 222.466C155.049 222.219 154.754 221.764 154.862 221.238C158.551 222.874 162.195 224.068 166.127 224.926C167.091 219.99 169.262 219.355 171.658 216.322H228.602H228.605Z" fill="#4B8785"/>
<path d="M201.563 281.053C196.782 282.681 191.985 284.283 187.224 285.969C183.102 280.951 183.36 277.402 183.129 276.957C188.907 277.799 195.608 279.448 201.563 281.053Z" fill="#582113"/>
<path d="M228.605 186.823C228.12 188.323 227.357 189.823 226.966 191.329C209.923 190.03 192.813 190.766 175.756 191.329C175.699 191.068 174.694 189.507 173.707 186.413C193.542 183.634 208.753 181.917 228.605 186.823Z" fill="#4B8785"/>
<path d="M226.96 191.333C225.481 197.033 225.213 202.947 223.272 208.538C217.28 208.833 180.758 207.5 178.617 208.128C176.408 203.52 176.839 196.154 175.75 191.329C192.806 190.766 209.917 190.03 226.96 191.329V191.333Z" fill="#582113"/>
<path d="M223.281 208.538C222.925 210.645 224.567 209.05 225.738 210.38C225.86 210.519 225.629 211.259 225.738 211.405C208.837 215.748 191.17 211.069 174.117 213.044C174.87 212.233 178.094 208.283 178.623 208.127C180.767 207.5 217.286 208.833 223.278 208.538H223.281Z" fill="#74311F"/>
<path d="M228.6 216.321H171.656C172.484 215.273 173.217 214.007 174.113 213.044C191.166 211.069 208.833 215.748 225.733 211.405C226.877 212.942 227.528 214.727 228.6 216.321Z" fill="#74311F"/>
<path d="M229.835 183.139C229.377 184.37 229.01 185.578 228.606 186.827C208.754 181.921 193.544 183.637 173.708 186.416C173.437 185.561 173.274 184.201 172.891 183.139C191.823 180.75 210.919 180.394 229.835 183.139Z" fill="#356D6C"/>
<path d="M260.556 144.218C260.94 146.277 261.866 148.822 261.785 150.773C261.452 158.855 252.132 159.157 246.218 157.328C246.191 157.196 246.245 157.05 246.218 156.918C246.191 156.785 246.245 156.639 246.218 156.507C249.339 157.603 252.966 157.674 256.254 156.918C253.645 142.087 251.708 121.726 237.613 113.491C254.33 117.671 257.567 128.23 260.556 144.218Z" fill="#A05535"/>
<path d="M166.745 114.723C144.924 116.378 150.611 143.977 147.079 159.377C143.011 158.77 142.801 157.783 140.113 154.872C140.578 151.007 140.252 145.823 141.752 138.073C144.738 122.649 149.614 114.77 166.538 113.902L166.741 114.719L166.745 114.723Z" fill="#582113"/>
<path d="M237.617 113.491C251.711 121.726 253.649 142.087 256.258 156.918C252.97 157.674 249.343 157.603 246.221 156.507C246.167 156.236 244.691 153.857 244.172 151.387C242.778 144.727 242.082 137.883 240.077 131.314H239.259C238.594 136.841 237.688 142.318 237.62 147.906C236.226 143.699 229.694 136.533 230.655 125.784C231.004 121.896 234.282 116.826 235.571 113.084C236.233 113.25 236.884 113.311 237.62 113.495L237.617 113.491Z" fill="#A05535"/>
<path d="M232.293 113.084C229.768 120.932 227.916 124.42 220.411 127.833C216.129 125.753 211.63 123.334 208.528 119.639C209.862 119.48 212.427 118.879 213.648 118.411C223.013 114.825 208.192 117.956 206.068 119.229C205.108 115.676 205.838 103.448 205.658 102.637C205.641 102.559 204.823 102.24 204.43 101.613C205.271 100.208 209.397 92.9808 209.757 92.6008C208.091 108.022 217.706 109.213 232.289 113.084H232.293Z" fill="#A05535"/>
<path d="M209.35 86.8633C208.984 89.0178 209.954 90.7754 210.989 92.5974C210.514 92.3259 210.212 92.119 209.761 92.5974C209.401 92.9774 205.275 100.204 204.434 101.609C203.514 103.149 202.506 104.598 201.567 106.115C197.855 103.971 196.593 99.7599 193.373 97.1032C193.495 96.3636 193.288 95.4271 193.373 94.6467C195.768 96.3738 208.682 91.6474 207.711 87.681C207.799 87.6538 208.841 87.0872 209.35 86.8633Z" fill="#3E1711"/>
<path d="M166.741 114.723C166.877 114.713 167.016 114.723 167.151 114.723C169.364 118.526 172.332 122.164 172.886 126.605C173.686 133.018 171.922 139.427 168.79 145.039C168.332 145.863 167.236 146.79 166.741 147.495C166.435 146.386 164.03 131.616 162.646 133.36C160.525 140.737 163.168 147.621 160.189 154.868C159.958 155.062 159.137 156.378 158.961 156.507C158.798 156.626 157.929 157.203 157.733 157.325C153.905 159.683 151.486 160.029 147.082 159.374C150.614 143.97 144.924 116.375 166.748 114.719L166.741 114.723Z" fill="#A05535"/>
<path d="M201.566 106.118C200.653 107.591 197.077 115.588 196.035 115.951C180.132 115.832 179.192 111.836 193.986 120.046C187.787 119.761 181.635 116.898 177.805 111.852C187.129 108.999 191.692 107.191 193.372 97.1033C196.588 99.76 197.854 103.974 201.566 106.115V106.118Z" fill="#582113"/>
<path d="M199.516 88.0915C202.739 88.3596 204.48 88.6751 207.71 87.681C208.68 91.6474 195.767 96.3738 193.371 94.6467C193.395 94.433 193.683 94.2939 193.782 93.0079C193.931 91.0129 193.371 88.6921 194.192 86.8633C198.583 89.1094 198.165 87.9796 199.519 88.0915H199.516Z" fill="#3E1711"/>
<path d="M246.218 156.507C246.245 156.64 246.191 156.785 246.218 156.918C243.82 156.056 242.045 153.867 240.484 152.001C239.68 151.041 239.158 149.796 238.028 149.134C237.919 148.744 237.75 148.303 237.617 147.906C237.682 142.318 238.591 136.842 239.256 131.314H240.074C242.079 137.883 242.774 144.73 244.169 151.387C244.688 153.861 246.164 156.239 246.218 156.507Z" fill="#3E1711"/>
<path d="M166.743 147.495C166.563 147.753 165.643 149.792 165.514 149.952C164.948 150.661 161.29 153.939 160.188 154.868C163.17 147.617 160.527 140.737 162.644 133.36C164.028 131.613 166.437 146.386 166.739 147.495H166.743Z" fill="#3E1711"/>
<path d="M208.531 119.636C206.821 119.839 205.908 120.623 206.074 119.225C208.198 117.953 223.015 114.821 213.654 118.408C212.432 118.876 209.864 119.48 208.534 119.636H208.531Z" fill="#74311F"/>
<path d="M206.071 119.229C205.908 120.623 206.821 119.843 208.528 119.639C211.629 123.334 216.125 125.753 220.41 127.833C208.412 133.286 188.947 133.174 178.008 124.966C173.93 121.906 170.717 116.158 169.611 115.133C167.527 112.429 171.88 113.668 177.805 111.856C181.639 116.901 187.787 119.765 193.986 120.05C179.192 111.839 180.132 115.836 196.035 115.954C197.077 115.591 200.653 107.594 201.565 106.122C202.505 104.605 203.513 103.156 204.432 101.616C204.829 102.243 205.644 102.562 205.661 102.64C205.837 103.451 205.108 115.68 206.071 119.232V119.229Z" fill="#A05535"/>
<path d="M203.816 120.867C206.123 121.003 204.284 123.918 197.875 121.892L203.816 120.867Z" fill="#582113"/>
<path d="M188.048 47.1249C185.71 47.8578 185.096 48.5568 184.77 51.0167C190.497 49.7138 188.333 49.9004 188.048 51.0167C188.034 51.0676 188.567 51.6444 188.865 51.6308C187.155 55.9025 190.243 53.6734 190.504 54.2943C188.859 55.9365 187.22 55.5938 187.637 58.5965C185.316 58.4269 182.504 56.6965 185.998 61.053C185.931 66.76 189.049 71.4796 191.733 76.2128C193.989 80.1893 197.324 83.9861 199.516 88.0949C198.166 87.983 198.583 89.1128 194.189 86.8667C187.81 83.6027 182.806 76.3723 180.668 69.661C178.843 63.9269 178.558 62.1591 179.029 56.14C179.542 49.5713 180.651 49.0012 181.079 47.7425C181.157 47.5083 180.169 47.566 180.261 47.3319C182.12 42.4393 191.281 33.9331 195.828 31.1509C195.889 36.2641 188.536 41.7301 188.044 47.1283L188.048 47.1249Z" fill="#582113"/>
<path d="M208.941 30.737C204.706 29.6241 201.245 30.6453 198.697 34.2181C196.173 37.7604 195.454 45.3029 192.553 46.7144C191.029 46.538 189.533 46.6567 188.047 47.125C188.539 41.7268 195.891 36.2607 195.83 31.1475C201.609 27.6087 202.81 27.2083 208.941 30.737Z" fill="#89432A"/>
<path d="M222.867 68.4256C223.695 66.1693 223.135 63.4447 223.277 61.0527C225.758 58.1822 227.889 56.5841 230.65 60.028C231.482 66.1455 227.101 67.3738 226.962 67.8115C226.542 69.1652 229.415 70.1255 223.481 74.1631C220.621 73.0366 225.639 69.267 222.867 68.429V68.4256Z" fill="#582113"/>
<path d="M179.03 56.1365C178.559 62.1522 178.844 63.9233 180.669 69.6574C177.554 67.1195 180.34 70.1562 178.006 70.8857C173.948 65.9557 168.119 64.965 172.272 58.1858C177.521 55.0304 178.325 67.6691 178.213 56.3434L179.03 56.1399V56.1365Z" fill="#3E1711"/>
<path d="M197.469 61.4635C197.33 63.5197 196.407 65.474 196.241 67.1976C195.888 70.8553 196.604 69.8204 199.108 71.7035C202.691 74.4009 194.877 76.2093 192.756 74.5705L192.96 76.2093C192.261 75.7988 192.451 75.7988 191.731 76.2093C189.047 71.4762 185.929 66.7599 185.997 61.0496C189.682 62.0132 193.543 61.2633 196.648 59.0002C196.926 59.8349 196.943 60.7544 197.465 61.4567L197.469 61.4635Z" fill="#A05535"/>
<path d="M204.429 68.4257C202.807 68.1644 199.628 68.782 196.235 67.1974C196.401 65.4738 197.328 63.5161 197.463 61.4633C197.63 58.9695 197.273 53.0454 195.414 51.22C196.093 51.4134 196.249 50.8128 196.642 50.8094C202.855 50.7586 201.43 66.6444 201.969 67.401C202.427 68.0457 204.748 66.9023 204.426 68.4257H204.429Z" fill="#582113"/>
<path d="M204.434 71.7036C201.298 73.0269 204.674 71.7341 202.795 74.7776C203.823 77.5599 213.16 73.1083 208.939 77.4411C208.475 77.302 208.451 76.9865 207.711 77.0306C206.049 77.1357 204.525 77.4479 202.795 77.4411C202.489 77.4411 202.469 76.0602 197.061 77.6447C199.219 80.4507 202.584 80.108 205.665 80.7187C197.844 85.0481 195.717 77.8279 192.965 76.2129L192.762 74.5741C194.879 76.2129 202.696 74.4044 199.113 71.707H204.44L204.434 71.7036Z" fill="#582113"/>
<path d="M192.553 46.7143C195.03 46.9993 198.453 47.7356 196.648 50.8096C196.255 50.8096 196.099 51.4136 195.42 51.2202C194.273 50.0937 190.042 48.689 188.865 51.6307C188.566 51.6443 188.034 51.0675 188.047 51.0166C188.332 49.9003 190.497 49.7137 184.77 51.0166C185.095 48.5567 185.709 47.8577 188.047 47.1248C189.533 46.66 191.03 46.5379 192.553 46.7143Z" fill="#3E1711"/>
<path d="M204.432 68.426C209.66 69.2675 207.92 70.2311 204.432 71.7036H199.105C196.601 69.8205 195.882 70.8554 196.238 67.1978C199.631 68.7823 202.81 68.1647 204.432 68.426Z" fill="#3E1711"/>
<path d="M202.792 77.4408C201.523 78.4485 207.634 79.0321 207.709 77.0302C208.452 76.9827 208.475 77.3017 208.937 77.4408C208.435 77.9565 205.863 80.6064 205.659 80.7184C202.582 80.111 199.213 80.4503 197.055 77.6444C202.466 76.0598 202.483 77.4374 202.789 77.4408H202.792Z" fill="#882D29"/>
<path d="M208.936 30.7367C212.145 32.5858 220.801 41.6518 222.046 44.8717C224.031 50.0155 223.59 55.7292 223.274 61.0528C223.132 63.4482 223.692 66.1727 222.864 68.4257C221.306 67.1771 221.978 72.2597 221.225 74.3667C219.596 78.9269 213.801 84.8951 209.343 86.863C208.834 87.087 207.792 87.657 207.704 87.6807C204.474 88.6749 202.733 88.3593 199.51 88.0913C197.318 83.9858 193.979 80.1857 191.727 76.2091C192.446 75.7986 192.256 75.7986 192.955 76.2091C195.707 77.8276 197.834 85.0444 205.655 80.715C205.858 80.603 208.43 77.9531 208.932 77.4374C213.153 73.1046 203.816 77.5595 202.788 74.7739C204.667 71.7304 201.291 73.0231 204.426 71.6999C207.914 70.2273 209.655 69.2637 204.426 68.4223C204.745 66.9022 202.425 68.0423 201.97 67.3976C201.434 66.641 202.855 50.7551 196.643 50.806C198.445 47.732 195.025 46.9957 192.548 46.7107C195.449 45.2992 196.168 37.7567 198.692 34.2144C201.24 30.6417 204.698 29.617 208.936 30.7333V30.7367Z" fill="#A05535"/>
<path d="M213.038 54.0872C212.817 54.2025 209.777 53.9989 208.943 56.3401C209.048 56.6319 213.489 58.5116 214.677 58.593C218.792 58.878 220.421 56.0211 220.411 58.7966C217.388 62.3863 210.51 61.4669 207.711 57.9789C208.518 50.0054 218.691 51.1489 213.038 54.0872Z" fill="#3E1711"/>
<path d="M212.424 46.7141C214.626 46.4698 216.22 47.0568 218.158 47.9424C222.918 55.1897 219.077 50.029 216.109 49.5812C211.246 48.8483 207.792 52.7672 207.711 49.3776C207.806 48.4785 211.589 46.8057 212.424 46.7141Z" fill="#3E1711"/>
<path d="M213.037 54.0872C212.884 56.2587 215.897 57.1985 214.676 58.593C213.485 58.5116 209.043 56.6285 208.941 56.3401C209.776 53.9989 212.82 54.1991 213.037 54.0872Z" fill="#A05535"/>
<path d="M195.42 51.22C197.279 53.042 197.636 58.9695 197.469 61.4633C196.944 60.761 196.927 59.8415 196.652 59.0068C196.506 58.5691 196.903 57.7039 196.448 57.368C196.072 57.0932 194.314 59.0848 187.64 58.5963C187.223 55.5935 188.862 55.9362 190.507 54.294C190.246 53.6731 187.158 55.9022 188.868 51.6305C190.046 48.6922 194.277 50.0969 195.424 51.22H195.42Z" fill="#B1663F"/>
<path d="M196.647 59.0035C193.542 61.2666 189.677 62.0165 185.996 61.0529C182.501 56.6963 185.314 58.4267 187.635 58.5963C194.309 59.0815 196.066 57.0899 196.443 57.3681C196.901 57.704 196.504 58.5692 196.647 59.0069V59.0035Z" fill="#3E1711"/>
<path d="M207.707 77.0303C207.632 79.0321 201.522 78.4485 202.791 77.4408C204.521 77.4476 206.044 77.1355 207.707 77.0303Z" fill="#D7948A"/>
</g>
<defs>
<clipPath id="clip0_14842_31072">
<rect width="419.512" height="305" fill="white"/>
</clipPath>
</defs>
</svg>
