<svg width="399" height="289" viewBox="0 0 399 289" fill="none" xmlns="http://www.w3.org/2000/svg">
<path d="M154.35 184.904V185.292C152.193 184.467 150.212 183.416 148.129 182.575C149.759 181.293 153.623 177.192 154.35 175.583V184.904Z" fill="#D0D2D1"/>
<path d="M207.613 165.484C207.931 168.991 205.498 173.816 204.893 177.526C198.248 179.321 191.589 181.149 185.066 183.352C183.159 183.994 181.069 184.017 179.623 185.684V183.741C187.66 180.725 186.468 179.456 175.347 184.518L174.958 183.937C184.243 175.161 190.181 178.293 182.346 177.14C182.307 177.134 182.471 176.382 182.153 176.363C178.079 176.109 176.578 177.837 173.405 179.08C168.74 180.908 173.366 176.967 174.961 175.974C177.517 174.381 187.975 171.808 177.488 173.642C174.8 174.114 168.534 176.941 168.74 175.197C168.341 174.127 172.868 171.471 175.154 170.148C185.452 164.186 196.071 162.381 207.616 165.487L207.613 165.484Z" fill="#FAB688"/>
<path d="M174.953 175.971C174.185 173.851 166.642 179.658 168.732 175.193C168.526 176.938 174.789 174.111 177.48 173.639C187.968 171.802 177.509 174.374 174.953 175.971Z" fill="#B34949"/>
<path d="M182.342 177.137C181.622 178.322 177.115 177.965 173.79 179.468C173.787 179.443 173.36 179.565 173.401 179.08C176.575 177.837 178.073 176.109 182.15 176.362C182.471 176.382 182.304 177.133 182.342 177.14V177.137Z" fill="#6A313D"/>
<path d="M179.616 183.737C178.475 184.164 176.163 185.398 175.34 184.514C186.464 179.452 187.657 180.724 179.616 183.737Z" fill="#802628"/>
<path d="M185.061 183.349C184.155 184.38 179.377 187.64 179.618 185.681C181.065 184.014 183.155 183.994 185.061 183.349Z" fill="#6E1C29"/>
<path d="M190.115 225.3L190.893 232.681C190.115 232.951 181.129 232.752 180.396 232.292L179.618 226.077H178.451C178.322 228.019 178.193 229.961 178.062 231.904C177.612 232.17 169.683 232.042 168.732 231.904C165.411 231.419 167.111 231.598 167.176 225.3C174.963 225.576 182.322 225.643 190.115 225.3Z" fill="#1C1E2B"/>
<path d="M223.944 220.637C225.014 223.29 225.683 225.056 225.889 227.629C223.442 228.487 221.031 229.02 218.501 229.572L217.141 223.357C217.205 225.299 217.269 227.242 217.334 229.184C217.118 229.222 216.105 230.398 213.25 230.738C211.366 230.963 206.721 231.381 206.447 230.738C206.055 228.381 203.978 226.929 204.502 224.523C209.576 223.897 218.986 222.008 223.941 220.64L223.944 220.637Z" fill="#1C1E2B"/>
<path d="M203.725 224.523C203.854 226.853 203.984 229.184 204.114 231.515C203.799 231.827 196.324 232.659 195.366 232.681C192.498 232.746 193.431 232 192.839 231.904C192.451 229.703 192.062 227.502 191.672 225.3C195.675 225.088 199.742 224.985 203.725 224.523Z" fill="#1C1E2B"/>
<path d="M191.674 225.3C192.062 227.502 192.451 229.703 192.841 231.904C192.61 231.866 191.68 234.638 191.481 229.572C190.88 230.189 191.828 232.357 190.899 232.678L190.121 225.297C190.639 225.275 191.16 225.323 191.677 225.297L191.674 225.3Z" fill="#677C93"/>
<path d="M218.497 229.572C216.481 230.012 217.42 229.167 217.33 229.183C217.265 227.241 217.201 225.299 217.137 223.357L218.497 229.572Z" fill="#96ABBB"/>
<path d="M179.618 226.074C179.808 229.485 179.033 232.681 180.396 232.289C181.129 232.749 190.116 232.948 190.894 232.678C191.826 232.357 190.877 230.186 191.475 229.572C191.675 234.637 192.604 231.865 192.835 231.904C193.427 232 192.495 232.745 195.363 232.681C196.321 232.659 203.796 231.827 204.111 231.515C205.371 222.869 204.117 233.131 206.445 230.738C206.718 231.38 211.364 230.963 213.248 230.738C216.103 230.398 217.116 229.225 217.331 229.183C217.421 229.167 216.482 230.012 218.498 229.572C221.025 229.02 223.44 228.486 225.887 227.629C225.906 227.873 225.022 230.847 225.498 232.485C225.707 233.208 231.249 238.395 234.439 244.527C240.496 256.161 243.801 274.389 234.05 284.728C222.321 284.673 210.592 284.77 198.864 284.728C194.363 271.254 195.002 267.101 194.588 284.728C184.544 284.767 174.5 284.677 164.456 284.728C155.319 276.486 156.691 258.878 160.958 248.41C164.623 239.414 170.69 237.82 168.735 231.904C169.687 232.042 177.615 232.171 178.065 231.904C178.194 229.962 178.324 228.02 178.454 226.077H179.621L179.618 226.074Z" fill="#0D3C5C"/>
<path d="M196.336 238.116C196.451 236.629 195.924 236.34 195.947 236.173C196.246 233.854 198.004 234.024 199.834 234.425C199.175 240.936 195.448 248.577 200.612 254.234C194.413 256.337 196.008 242.333 196.336 238.116Z" fill="#12222D"/>
<path d="M195.949 236.176C195.927 236.343 196.454 236.629 196.338 238.119C193.541 240.442 192.213 235.858 195.949 236.176Z" fill="#FADC96"/>
<path d="M192.258 241.999C195.566 241.704 193.467 245.883 191.676 243.358L192.258 241.999Z" fill="#F6F090"/>
<path d="M204.501 224.523C203.977 226.926 206.054 228.381 206.446 230.738C204.121 233.131 205.375 222.869 204.112 231.516C203.983 229.186 203.853 226.855 203.723 224.523C203.977 224.494 204.247 224.555 204.501 224.523Z" fill="#738DA5"/>
<path d="M180.395 232.289C179.032 232.681 179.807 229.485 179.617 226.074L180.395 232.289Z" fill="#466C8F"/>
<path d="M178.066 231.901C178.195 229.959 178.325 228.016 178.455 226.074C178.327 228.016 178.197 229.959 178.066 231.901Z" fill="#738DA5"/>
<path d="M179.228 122.37C184.746 126.754 188.568 129.503 196.14 130.139C213.222 131.569 219.652 121.897 220.828 121.207C224.101 119.28 238.82 123.545 242.794 125.09C249.488 127.692 255.87 132.025 260.483 137.52C262.83 140.315 268.486 149.064 269.813 152.279C271.73 156.917 272.675 163.65 273.701 168.593C273.803 169.084 273.575 169.512 274.09 170.148C265.129 170.909 258.104 169.666 249.597 168.593C249.703 164.703 246.646 158.064 244.543 154.804C238.64 145.647 235.602 144.779 241.823 156.94C242.697 160.386 243.836 163.916 242.212 167.427C233.801 166.3 224.622 164.035 216.163 163.932C214.254 163.91 213.948 164.315 213.829 164.321C212.077 164.408 208.511 163.367 207.608 165.487C196.063 162.381 185.44 164.186 175.145 170.148C172.859 171.471 168.332 174.127 168.731 175.197C166.638 179.661 174.184 173.854 174.952 175.974C173.358 176.97 168.731 180.911 173.396 179.08C173.354 179.562 173.782 179.44 173.785 179.469C173.988 180.718 169.098 189.75 168.535 189.956C167.644 190.283 156.533 185.318 154.344 184.907V175.585C155.559 172.897 155.704 167.424 156.678 164.128C157.208 162.339 161.745 152.161 161.15 151.894C151.064 160.955 138.725 166.178 127.324 173.257C126.755 173.327 119.222 169.688 118.965 168.596C127.109 149.128 136.468 136.024 156.289 127.425C158.465 126.481 175.621 120.404 176.701 120.433C178.302 120.478 178.328 121.66 179.228 122.376V122.37Z" fill="#E15571"/>
<path d="M169.509 207.043C173.627 207.808 177.804 208.061 181.951 208.598C184.125 208.877 187.417 210.095 187.976 210.152C188.783 210.233 188.886 209.369 188.947 209.375C189.076 209.388 189.208 209.365 189.336 209.375C196.58 209.995 201.785 211.383 209.942 210.152C220.182 208.607 217.192 205.344 219.079 204.326C220.793 203.401 224.236 204.718 225.493 202.967C225.631 202.778 225.361 201.785 225.493 201.608C233.711 206.574 243.806 206.176 252.32 209.764C247.414 212.198 229.139 219.2 223.937 220.639C218.983 222.011 209.569 223.9 204.499 224.523C204.245 224.555 203.975 224.494 203.721 224.523C199.74 224.985 195.67 225.088 191.667 225.3C191.15 225.326 190.629 225.277 190.111 225.3C182.318 225.644 174.962 225.576 167.172 225.3C156.379 224.918 147.569 224.523 136.847 222.583C136.294 222.483 135.844 222.303 135.291 222.194C109.57 217.135 92.424 205.254 80.8594 181.412C109.204 199.029 134.484 209.34 168.532 209.378C168.715 208.289 169.464 207.168 169.503 207.046L169.509 207.043Z" fill="#E15571"/>
<path d="M175.343 184.514C176.166 185.398 178.478 184.164 179.619 183.737V185.68C179.378 187.64 184.155 184.38 185.062 183.349C191.585 181.145 198.247 179.318 204.89 177.522C204.468 180.104 204.227 179.937 204.89 182.183C205.989 185.915 207.587 182.754 207.224 186.262L205.475 188.009C194.556 189.104 206.086 187.951 209.169 193.447C204.555 193.688 194.485 196.877 189.341 196.553C189.303 196.553 189.47 195.808 189.148 195.776C187.923 195.654 185.638 195.805 185.454 195.776C185.326 195.756 185.432 195.024 183.12 194.61C179.339 193.932 173.581 193.601 171.845 193.055C171.745 193.023 171.858 191.96 170.485 191.501C164.936 189.65 159.779 187.363 154.352 185.285V184.897C156.541 185.308 167.652 190.274 168.543 189.946C169.102 189.74 173.993 180.708 173.793 179.459C177.118 177.959 181.628 178.315 182.345 177.127C190.184 178.28 184.245 175.148 174.957 183.923L175.346 184.505L175.343 184.514Z" fill="#E15571"/>
<path d="M154.347 175.582C153.62 177.191 149.756 181.29 148.126 182.574C147.846 182.462 147.621 183.156 147.155 182.963C137.722 179.093 128.282 175.113 119.357 170.144C118.248 169.534 117.82 168.991 118.968 168.589C119.225 169.682 126.758 173.321 127.327 173.25C138.725 166.171 151.064 160.948 161.153 151.887C161.748 152.154 157.211 162.333 156.681 164.122C155.707 167.417 155.562 172.893 154.347 175.579V175.582Z" fill="#E15571"/>
<path d="M249.604 168.59C248.305 168.426 247.055 168.384 245.717 168.201C245.042 164.511 244.36 159.844 241.83 156.937C235.612 144.776 238.647 145.644 244.55 154.801C246.653 158.061 249.71 164.7 249.604 168.59Z" fill="#CC4364"/>
<path d="M245.715 168.201C242.699 167.79 242.394 167.449 242.217 167.424C243.841 163.913 242.703 160.383 241.828 156.937C244.358 159.843 245.04 164.51 245.715 168.201Z" fill="#251926"/>
<path d="M209.95 184.903C223.714 192.843 246.924 201.3 262.825 202.772C261.674 203.52 258.424 206.87 258.16 207.043C257.951 207.182 257.611 206.636 257.578 206.655C255.636 207.872 254.511 208.678 252.328 209.761C243.815 206.173 233.719 206.568 225.501 201.606C226.44 200.334 227.62 199.232 228.221 197.722L227.639 196.556C215.261 195.715 200.929 200.26 213.059 194.032C213.078 193.222 209.764 193.418 209.172 193.45C206.089 187.955 194.559 189.108 205.478 188.013L207.227 186.265C207.593 182.758 205.996 185.918 204.893 182.186C206.565 183.073 208.31 183.962 209.947 184.903H209.95Z" fill="#CC4364"/>
<path d="M279.154 201.994C279.051 202.685 278.566 204.644 278.376 205.1C275.887 211.164 272.039 210.413 271.766 211.119C270.904 213.352 276.122 228.368 276.82 231.901C276.302 231.91 275.781 231.901 275.264 231.901C272.197 231.891 269.046 231.156 265.934 231.512C266.696 228.66 258.97 212.035 258.156 207.432C260.05 206.536 263.403 204.705 263.988 202.771C269.113 202.974 274.071 202.582 279.151 201.994H279.154Z" fill="#CC4364"/>
<path d="M263.988 202.772C263.403 204.705 260.05 206.536 258.156 207.432V207.043C258.42 206.87 261.67 203.52 262.821 202.772C263.21 202.781 263.599 202.755 263.988 202.772Z" fill="#5A162A"/>
<path d="M234.053 62.553C223.549 70.7146 229.397 70.2039 228.999 57.6965C228.491 41.8101 219.476 37.1817 209.56 27.5939C208.621 26.6882 208.004 23.9259 206.255 24.488C197.69 37.4707 184.852 41.9386 173.403 51.4813C174.233 54.1055 174.818 50.097 177.29 50.5113C173.577 53.4631 174.114 58.8721 172.429 63.3303C171.703 63.4941 172.227 56.0809 167.957 55.1751C168.298 27.838 182.554 23.4794 182.73 21.5779C182.791 20.9323 177.769 17.5854 182.341 9.53624C189.135 -2.42192 214.64 1.53202 212.277 15.7514C231.844 21.5747 238.203 44.3925 234.05 62.5562L234.053 62.553Z" fill="#3E2614"/>
<path d="M233.27 77.3121C236.231 83.569 235.865 92.0968 242.211 96.1503C237.739 99.9533 228.637 98.1417 222.966 98.2863C218.751 98.3923 213.906 100.332 209.941 98.2863C209.941 98.0614 209.331 97.615 209.552 96.343C210.025 96.1792 216.327 92.6332 217.134 92.0711C226.92 85.2393 227.473 76.8303 228.409 76.5348C228.644 76.461 233.029 77.3603 233.27 77.3121Z" fill="#3E2614"/>
<path d="M192.06 96.7347C192.288 97.7208 191.452 97.2808 191.282 97.9007C184.398 99.5805 177.756 96.3557 171.647 97.512C169.355 95.6073 166.114 97.1459 164.455 94.2101C161.957 89.7905 164.899 75.3591 166.011 69.9341C167.982 70.9619 170.76 70.7499 171.065 71.2927C171.458 71.9897 170.725 78.5711 176.509 86.0517C179.589 90.0346 187.263 95.3118 192.06 96.7315V96.7347Z" fill="#3E2614"/>
<path d="M209.555 27.5973C208.08 27.5427 212.266 37.079 213.831 39.443C217.76 45.3691 232.752 54.8573 215.969 45.4622C205.327 37.5993 206.88 28.4581 205.861 28.3714C199.868 40.1946 182.542 46.3327 177.285 50.5115C174.813 50.0971 174.228 54.1089 173.398 51.4815C184.851 41.9355 197.685 37.4677 206.25 24.4881C207.996 23.926 208.616 26.6883 209.555 27.5941V27.5973Z" fill="#2B170A"/>
<path d="M219.278 120.815C219.359 120.86 220.339 121.101 220.834 121.204C219.658 121.897 213.227 131.565 196.146 130.136C188.574 129.503 184.751 126.754 179.234 122.366C184.649 120.189 189.577 114.423 190.899 108.773C197.904 111.889 216.127 124.432 219.281 120.815H219.278Z" fill="#FAB688"/>
<path d="M209.17 102.561C209.257 105.234 210.279 112.162 211.504 114.407C212.857 116.896 216.793 119.427 219.281 120.815C216.127 124.435 197.904 111.889 190.898 108.773C191.355 106.817 191.564 104.18 191.676 102.169C197.091 103.631 203.778 103.955 209.173 102.558L209.17 102.561Z" fill="#F29F74"/>
<path d="M209.56 96.3462C209.338 97.6149 209.952 98.0646 209.949 98.2894C209.946 98.7038 209.162 102.282 209.171 102.561C203.776 103.959 197.089 103.634 191.675 102.173C191.688 101.919 191.041 98.7937 191.286 97.9008C191.456 97.2841 192.292 97.7209 192.064 96.7348C197.664 98.3954 203.995 98.2862 209.56 96.3462Z" fill="#CC7862"/>
<path d="M209.559 27.5972C219.478 37.1849 228.49 41.8133 228.998 57.6997C229.396 70.2071 223.548 70.7146 234.052 62.5562C239.794 62.9898 241.71 68.129 238.717 72.8506C238.235 73.6118 233.618 77.2478 233.274 77.3184C233.033 77.3666 228.647 76.4673 228.413 76.5411C227.48 76.8398 226.924 85.2456 217.137 92.0774C216.33 92.6395 210.029 96.1855 209.556 96.3493C203.991 98.2894 197.663 98.3986 192.06 96.738C187.263 95.3151 179.588 90.041 176.508 86.0582C170.724 78.5775 171.457 71.993 171.065 71.2992C170.76 70.7564 167.982 70.9684 166.011 69.9405C156.337 64.8849 160.802 53.6623 167.956 55.1815C172.226 56.0873 171.698 63.5005 172.428 63.3367C174.11 58.8785 173.573 53.4696 177.289 50.5178C182.549 46.339 199.872 40.2009 205.865 28.3777C206.884 28.4644 205.331 37.6057 215.973 45.4686C232.756 54.8603 217.764 45.3754 213.835 39.4493C212.266 37.0853 208.084 27.549 209.559 27.6036V27.5972Z" fill="#FAB688"/>
<path opacity="0.25" d="M177.869 66.8249C186.087 65.5915 189.974 79.8687 179.425 79.2552C170.77 78.7509 170.516 67.9298 177.869 66.8249Z" fill="#F48B63"/>
<path opacity="0.13" d="M223.943 71.097C228.537 75.7062 224.425 81.4107 221.026 82.3614C215.14 84.0059 210.684 79.2875 214.223 73.8176C216.21 70.7469 220.766 70.233 223.943 71.1002V71.097Z" fill="#F29F74"/>
<path opacity="0.13" d="M215.388 66.825C216.279 66.8314 216.774 67.0594 217.722 66.825C219.88 68.9545 221.957 69.1055 223.944 71.0969C220.767 70.2329 216.208 70.7436 214.224 73.8142C212.019 71.4759 208.784 69.8249 208.781 66.4331C210.984 66.8764 213.163 66.8057 215.391 66.8218L215.388 66.825Z" fill="#F29F74"/>
<path d="M213.251 50.1227C221.838 49.1591 225.549 55.3936 222.581 55.9492C216.122 50.5017 204.422 57.6355 213.251 50.1227Z" fill="#2B170A"/>
<path d="M186.427 48.1828C190.038 47.7235 194.934 49.1368 193.619 53.428C192.944 54.0286 188.035 49.2653 182.54 52.458C180.418 50.4087 184.768 48.398 186.427 48.186V48.1828Z" fill="#221A10"/>
<path d="M167.373 58.6699H168.54C173.842 65.1742 160.962 63.6549 167.373 58.6699Z" fill="#071A2D"/>
<path d="M230.163 69.5456C230.536 69.9568 232.182 70.2105 232.883 70.3229C233.063 70.3518 233.789 72.5681 235.217 69.157C235.535 74.3475 228.134 73.5092 227.828 72.0702C227.664 71.2962 230.04 69.7512 230.163 69.5456Z" fill="#CC7862"/>
<path d="M233.658 65.659C233.399 67.2136 233.139 68.7671 232.88 70.3196C232.179 70.2072 230.533 69.9534 230.16 69.5423C230.343 69.2275 230.675 64.4288 233.658 65.659Z" fill="#145182"/>
<path d="M235.217 69.1567C233.789 72.5678 233.063 70.3516 232.883 70.3227C233.142 68.7681 233.402 67.2146 233.661 65.6621C235.294 66.4972 235.127 67.7049 235.217 69.1567Z" fill="#3B2123"/>
<path d="M190.115 64.8849C189.767 61.9781 189.092 61.2233 187.78 64.1076C187.388 64.0402 182.582 64.7404 180.781 61.583C181.071 59.6719 193.503 56.2929 192.638 65.2736C190.947 65.5112 190.298 64.901 190.111 64.8849H190.115Z" fill="#2B170A"/>
<path d="M190.116 64.8849C186.72 64.583 187.926 64.1333 187.781 64.1076C189.09 61.22 189.765 61.9781 190.116 64.8849Z" fill="#FEF9EF"/>
<path d="M196.924 73.4287C201.679 74.0583 198.67 76.4929 195.953 74.0101L196.924 73.4287Z" fill="#6F2518"/>
<path d="M189.726 80.0325C190.678 78.2756 191.038 81.1182 192.446 80.4212C197.731 84.4972 205.155 82.8976 209.164 77.8966C209.094 77.2156 201.979 79.0818 195.944 78.0893V77.312C208.18 79.3195 216.852 71.6878 209.55 80.2252C203.933 86.7969 195.044 86.9093 189.723 80.0325H189.726Z" fill="#6E1C29"/>
<path d="M195.947 77.312V78.0893C193.715 77.7231 191.465 76.949 189.532 75.7574C188.443 76.3291 191.908 80.0004 192.449 80.418C191.037 81.115 190.677 78.2724 189.729 80.0293C188.266 78.1375 187.182 76.2103 186.812 73.8142C187.382 73.4865 191.172 76.5251 195.95 77.3088L195.947 77.312Z" fill="#4C1E1B"/>
<path d="M195.945 78.0894C201.98 79.0787 209.095 77.2158 209.166 77.8967C205.16 82.8977 197.733 84.4973 192.447 80.4213C191.907 80.0038 188.441 76.3325 189.531 75.7607C191.467 76.9492 193.714 77.7265 195.945 78.0926V78.0894Z" fill="#F7FAFC"/>
<path d="M217.722 66.8251C217.522 66.6292 215.828 61.384 215.388 66.8251C213.16 66.8091 210.98 66.8797 208.777 66.4365C208.771 60.3498 217.674 60.186 220.442 65.0778C220.802 67.278 218.911 66.5328 217.722 66.8251Z" fill="#2B170A"/>
<path d="M217.721 66.8249C216.772 67.0594 216.281 66.8314 215.387 66.8249C215.827 61.3839 217.522 66.629 217.721 66.8249Z" fill="#F7FAFC"/>
<path d="M312.198 108.385C312.748 108.41 315.928 108.157 316.281 107.996C318.014 107.209 336.594 79.8849 337.083 76.3389C337.575 72.7704 336.077 65.8325 333.196 66.4332C331.286 61.9621 328.415 63.3176 325.419 64.8786C323.998 65.6205 323.67 66.2886 322.699 66.8218C322.062 67.1719 321.795 67.8657 321.143 67.4032C315.805 55.3551 305.684 46.4387 298.788 35.3606C297.492 35.8328 304.469 49.5703 305.202 50.7042C306.604 52.8722 310.292 55.3326 311.034 58.6666C303.209 51.0221 292.596 44.8006 289.651 33.4206C284.04 36.2856 274.257 43.1079 272.154 48.9569C272.119 49.0532 270.859 49.8562 271.961 50.5114C279.253 47.0778 280.742 54.581 278.961 55.172C275.803 52.9108 271.016 53.0682 268.656 56.338C269.704 51.8476 269.479 40.7471 276.045 32.0619C281.009 25.4966 298.782 14.7622 306.954 15.9442C308.703 16.198 310.607 17.8522 310.841 17.8875C315.757 18.5973 322.753 17.2547 332.225 23.3254C339.112 27.7386 345.384 37.3809 347.194 45.2695C347.644 47.232 349.85 71.8582 349.914 74.7875C350.049 80.8421 348.805 84.5583 348.747 85.2746C348.615 86.8645 350.602 89.7553 347.191 96.9276C346.468 98.4468 344.654 99.3173 344.082 101.2C341.343 110.177 348.767 112.05 331.447 111.105C324.997 110.752 318.606 109.152 312.201 108.388L312.198 108.385Z" fill="#3E2614"/>
<path d="M312.197 108.384C312.069 108.378 311.937 108.397 311.808 108.384C310.59 108.259 309.185 107.382 307.921 107.219C307.696 106.525 307.24 103.261 307.143 102.169C306.272 92.3407 307.256 97.9777 315.891 90.5163C319.251 87.6127 320.039 85.7498 322.305 82.3611C322.939 81.4136 322.521 80.6813 322.887 80.4179C323.138 80.238 325.508 80.4789 328.72 78.4746C332.857 75.8922 335.208 71.1546 333.192 66.433C336.072 65.8291 337.571 72.7702 337.079 76.3387C336.59 79.8847 318.013 107.206 316.277 107.996C315.924 108.156 312.744 108.41 312.194 108.384H312.197Z" fill="#2B170A"/>
<path d="M290.816 100.23C292.185 99.8184 291.398 103.146 291.594 106.833C287.578 107.967 287.884 105.651 286.733 105.667C286.508 105.671 284.611 107.225 284.398 107.222C284.215 107.222 281.842 105.301 281.289 105.279C280.498 105.25 279.155 106.75 277.791 106.445C276.708 106.201 277.332 103.104 271.959 106.056L270.988 93.6257C276.383 98.8645 283.402 100.933 290.816 100.23Z" fill="#3E2614"/>
<path d="M322.696 66.825L320.75 71.4856C318.834 65.0552 315.539 63.0702 311.031 58.6666C310.289 55.3326 306.604 52.8722 305.199 50.7042C304.466 49.5736 297.489 35.836 298.785 35.3606C305.681 46.4387 315.806 55.3583 321.139 67.4032C321.792 67.8657 322.056 67.1687 322.696 66.8218V66.825Z" fill="#2B170A"/>
<path d="M275.262 231.901C275.188 232.482 275.236 233.15 275.844 233.456C276.445 233.754 287.431 237.05 288.675 237.339C301.555 240.345 321.791 240.631 334.747 238.116C343.303 252.13 345.28 272.314 332.802 284.725C327.43 284.741 295.578 285.965 293.34 285.114C291.569 284.439 291.186 275.805 287.315 274.238C278.3 270.589 276.474 283.389 274.291 284.336C273.638 284.619 261.148 284.596 260.489 283.17C255.653 271.405 255.856 252.898 260.489 241.026C262.067 236.979 265.79 232.039 265.932 231.509C269.044 231.153 272.195 231.888 275.262 231.898V231.901Z" fill="#01687C"/>
<path d="M287.315 274.238C287.164 274.784 287.569 274.977 287.704 275.404C286.407 278.511 285.112 281.618 283.817 284.725C276.213 285.027 268.497 284.68 260.877 284.725C260.8 284.298 260.633 283.527 260.488 283.171C261.147 284.593 273.638 284.619 274.291 284.336C276.474 283.389 278.3 270.589 287.315 274.238Z" fill="#01687C"/>
<path d="M283.816 284.725C285.113 281.618 286.409 278.511 287.703 275.404C291.275 286.71 287.556 284.577 283.816 284.725Z" fill="#015467"/>
<path d="M346.023 167.035C346.274 171.47 345.567 186.448 345.245 192.281C321.646 209.95 308.866 231.271 276.818 231.9C276.121 228.37 270.899 213.351 271.764 211.119C272.038 210.409 275.886 211.164 278.375 205.1C298.411 205.633 316.004 203.079 331.832 189.952C334.446 187.784 344.072 177.939 344.856 175.386C345.895 172.01 344.351 167.012 346.023 167.035Z" fill="#01687C"/>
<path d="M345.244 192.284C344.948 197.661 342.411 233.157 341.746 235.203C340.994 237.509 336.959 237.686 334.747 238.116C321.79 240.634 301.554 240.345 288.674 237.339C287.433 237.05 276.444 233.754 275.843 233.455C275.232 233.154 275.187 232.482 275.261 231.901C275.779 231.901 276.3 231.91 276.817 231.901C308.865 231.271 321.645 209.95 345.244 192.281V192.284Z" fill="#02889E"/>
<path d="M286.926 120.038V120.426C278.104 133.55 287.961 132.381 288.482 133.049C288.945 133.643 282.467 143.758 291.591 145.284C295.018 145.859 295.372 141.728 298.59 143.729C298.616 143.758 298.954 144.095 298.979 144.118C291.79 150.59 285.302 161.52 279.93 167.035C281.984 162.737 283.624 158.398 284.984 153.828C285.035 153.657 286.961 151.303 285.566 150.722C277.872 151.052 279.409 148.014 277.789 146.838C277.396 146.552 273.159 145.537 271.567 142.566C270.346 142.534 271.403 151.232 269.818 152.276C268.491 149.061 262.835 140.308 260.488 137.517C264.234 132.535 276.265 121.997 281.679 120.426C283.47 119.906 286.669 120.079 286.929 120.038H286.926Z" fill="#02889E"/>
<path d="M346.02 167.035C344.351 167.013 345.891 172.01 344.853 175.386C344.068 177.94 334.442 187.784 331.828 189.952C315.997 203.08 298.404 205.633 278.371 205.1C278.558 204.641 279.046 202.685 279.149 201.994C290.379 200.693 296.948 198.493 307.143 194.224C321.858 188.067 336.143 178.624 345.634 165.48C346.065 166.071 345.984 166.38 346.023 167.035H346.02Z" fill="#015467"/>
<path d="M216.17 163.929C215.801 166.039 215.389 179.71 215.781 180.435C216.048 180.927 225.922 183.647 226.472 183.737C227.481 183.904 228.413 182.771 228.806 182.96C229.031 183.069 229.182 184.55 229.388 184.707C231.548 186.342 232.574 184.749 233.082 184.9C233.336 184.977 234.136 188.417 236.969 184.9C236.731 189.458 241.203 187.418 241.634 187.617C241.93 187.756 241.39 188.761 243.19 189.561C245.293 190.492 246.354 189.127 246.688 189.172C246.839 189.194 247.649 190.736 249.022 191.115C261.516 194.565 261.616 191.632 262.243 191.893C262.841 192.14 259.539 193.219 264.963 194.224C276.849 196.425 277.546 193.174 278.183 193.447C278.459 193.566 278.154 196.145 283.237 195.002C283.453 194.954 283.8 193.492 284.015 193.447C284.362 193.373 288.182 196.344 289.458 192.281C293.069 195.731 296.946 191.578 297.621 191.893C298.104 192.117 296.319 194.854 307.148 194.224C296.956 198.49 290.384 200.693 279.154 201.994C274.074 202.582 269.116 202.971 263.992 202.771C263.603 202.755 263.214 202.781 262.825 202.771C246.923 201.304 223.713 192.843 209.949 184.903C211.246 178.04 212.542 171.179 213.836 164.318C213.955 164.311 214.261 163.907 216.17 163.929Z" fill="#01687C"/>
<path d="M213.833 164.318C212.536 171.181 211.24 178.043 209.946 184.903C208.309 183.959 206.564 183.073 204.892 182.186C204.229 179.941 204.471 180.108 204.892 177.526C205.499 173.816 207.933 168.991 207.612 165.484C208.515 163.364 212.077 164.405 213.833 164.318Z" fill="#F7FAFC"/>
<path d="M284.983 153.831C284.52 153.808 284.526 153.23 284.205 153.638C282.423 155.899 278.379 165.981 273.707 168.593C272.679 163.65 271.737 156.917 269.82 152.279C271.405 151.235 270.351 142.534 271.569 142.569C273.161 145.541 277.395 146.556 277.791 146.841C279.408 148.017 277.871 151.059 285.568 150.725C286.963 151.309 285.034 153.66 284.986 153.831H284.983Z" fill="#01687C"/>
<path d="M284.982 153.831C283.622 158.398 281.983 162.741 279.928 167.038C279.436 167.543 278.768 168.211 278.761 168.982C277.163 169.521 275.81 170 274.096 170.147C273.582 169.512 273.81 169.088 273.707 168.593C278.379 165.982 282.423 155.899 284.204 153.638C284.526 153.23 284.516 153.811 284.982 153.831Z" fill="#015467"/>
<path d="M305.199 130.525C306.511 131.942 307.871 141.68 308.697 144.118C307.996 144.687 306.418 144.748 305.781 145.284C300.123 150.051 289.265 160.878 283.427 166.647C282.819 165.298 280.726 168.902 279.733 169.364C279.286 169.573 279.058 168.876 278.762 168.976C278.768 168.205 279.437 167.54 279.929 167.032C285.301 161.521 291.792 150.587 298.978 144.115C305.534 149.717 307.145 138.674 304.032 130.133C304.634 130.236 304.65 129.928 305.199 130.522V130.525Z" fill="#01687C"/>
<path d="M283.426 166.65C289.268 160.881 300.122 150.054 305.781 145.287C306.417 144.751 307.996 144.69 308.697 144.121C316.567 137.729 311.545 136.766 312.195 135.381C312.629 134.459 315.931 139.037 326.579 122.37C326.293 122.938 325.756 126.629 322.692 131.109C320.31 134.591 288.841 167.793 282.063 168.978C279.925 169.216 282.491 167.572 283.423 166.647L283.426 166.65Z" fill="#015467"/>
<path d="M332.027 116.932C359.815 119.026 358.722 147.362 345.634 165.484C336.143 178.624 321.858 188.067 307.143 194.228C296.314 194.86 298.099 192.121 297.616 191.896C296.941 191.581 293.064 195.734 289.453 192.284C288.177 196.348 284.357 193.376 284.01 193.45C283.795 193.495 283.447 194.957 283.232 195.005C278.149 196.148 278.454 193.569 278.178 193.45C277.545 193.177 276.844 196.428 264.957 194.228C259.53 193.222 262.832 192.146 262.237 191.896C261.611 191.636 261.511 194.568 249.017 191.118C247.647 190.739 246.834 189.198 246.683 189.175C246.349 189.127 245.288 190.495 243.185 189.564C241.384 188.767 241.928 187.759 241.629 187.621C241.198 187.421 236.726 189.458 236.964 184.903C234.131 188.42 233.331 184.98 233.077 184.903C232.569 184.749 231.543 186.345 229.383 184.711C229.177 184.553 229.022 183.072 228.801 182.963C228.408 182.771 227.476 183.908 226.466 183.741C225.913 183.651 216.04 180.93 215.776 180.439C215.384 179.713 215.796 166.043 216.165 163.932C224.624 164.038 233.803 166.3 242.214 167.427C242.391 167.449 242.699 167.793 245.712 168.204C247.049 168.387 248.3 168.429 249.599 168.593C258.109 169.666 265.134 170.909 274.092 170.148C275.805 170.003 277.159 169.521 278.757 168.982C279.052 168.882 279.284 169.579 279.728 169.37C280.718 168.908 282.811 165.301 283.422 166.653C282.486 167.575 279.92 169.222 282.062 168.985C288.839 167.8 320.308 134.597 322.691 131.116C325.755 126.635 326.295 122.944 326.578 122.376C327.861 119.819 329.008 117.699 332.021 116.938L332.027 116.932Z" fill="#02889E"/>
<path d="M257.182 181.02H257.571L257.764 181.213L257.571 181.405L257.378 181.598L257.185 181.791L256.992 181.598V181.209L257.185 181.017L257.182 181.02Z" fill="#00778F"/>
<path d="M345.44 133.634H345.829L346.022 133.827V134.215L345.829 134.408L345.636 134.215L345.443 134.022L345.25 133.83L345.443 133.637L345.44 133.634Z" fill="#01687C"/>
<path d="M237.354 177.525H237.743L237.936 177.718L237.743 177.911L237.55 178.103L237.357 178.296L237.164 178.103V177.715L237.357 177.522L237.354 177.525Z" fill="#01687C"/>
<path d="M338.441 162.763C338.736 162.763 338.736 163.929 338.441 163.929C338.145 163.929 338.145 162.763 338.441 162.763Z" fill="#01687C"/>
<path d="M332.027 116.932C329.014 117.693 327.866 119.813 326.583 122.37C315.932 139.037 312.633 134.46 312.199 135.381C311.546 136.766 316.572 137.729 308.701 144.121C307.872 141.683 306.515 131.945 305.203 130.528C314.971 125.63 319.443 123.182 323.089 112.271C325.754 113.081 331.303 114.247 332.03 116.932H332.027Z" fill="#F5C346"/>
<path d="M323.085 112.271C319.439 123.179 314.97 125.63 305.2 130.528C304.65 129.934 304.634 130.242 304.033 130.139C303.464 130.043 298.606 131.376 297.033 131.305C296.664 131.289 295.924 131.315 295.866 131.305C290.156 130.435 286.369 126.285 286.925 120.429V120.041C289.012 119.72 289.144 120.06 289.259 120.041C292.445 137.552 308.354 129.429 315.697 119.263C316.912 117.584 317.504 116.019 318.417 114.214C318.468 114.115 319.291 113.222 319.584 112.271C319.777 112.322 319.42 111.16 323.082 112.271H323.085Z" fill="#FEF9EF"/>
<path d="M286.924 120.427C286.368 126.282 290.155 130.432 295.865 131.302C294.974 138.369 297.055 139.785 291.589 145.284C282.461 143.758 288.94 133.644 288.48 133.05C287.959 132.382 278.102 133.551 286.924 120.427Z" fill="#F5C346"/>
<path d="M304.036 130.136C307.148 138.68 305.534 149.719 298.982 144.118C298.956 144.095 298.618 143.758 298.593 143.729C296.088 140.826 297.348 134.957 297.036 131.299C298.609 131.373 303.467 130.037 304.036 130.133V130.136Z" fill="#F5C346"/>
<path d="M297.033 131.302C297.342 134.96 296.081 140.829 298.589 143.732C295.374 141.731 295.017 145.859 291.59 145.287C297.055 139.788 294.975 138.372 295.866 131.305C295.924 131.315 296.663 131.289 297.033 131.305V131.302Z" fill="#01687C"/>
<path d="M274.097 67.2136C274.419 67.2907 274.917 67.8207 276.431 67.6023C276.451 67.6408 276.965 67.4738 276.821 68.3796C264.288 68.2479 272.692 71.1708 273.323 74.7874C274.502 81.5583 267.625 89.2188 264.786 85.0946C262.362 81.5679 263.369 73.053 264.378 69.5455C267.288 66.9888 270.58 67.7243 274.097 67.2136Z" fill="#FAB688"/>
<path d="M307.141 102.173C307.237 103.265 307.694 106.531 307.919 107.222C309.545 112.249 313.934 112.965 318.416 114.214C317.503 116.019 316.908 117.584 315.696 119.263C307.79 120.025 300.125 117.651 292.367 116.546C292.399 115.249 292.406 108.516 292.367 107.614C297.293 105.802 302.217 103.99 307.141 102.176V102.173Z" fill="#F29F74"/>
<path d="M315.695 119.26C308.349 129.426 292.444 137.549 289.258 120.038C289.824 119.948 292.196 119.553 292.367 119.068C292.409 118.949 292.351 117.111 292.367 116.543C300.125 117.648 307.79 120.022 315.695 119.26Z" fill="#FAB688"/>
<path d="M322.308 82.3614C320.042 85.75 319.254 87.6129 315.894 90.5166C307.258 97.978 306.275 92.3409 307.146 102.17C302.22 103.981 297.296 105.794 292.373 107.607C292.373 107.553 291.598 106.885 291.594 106.83C291.398 103.143 292.186 99.8152 290.816 100.226C293.501 99.9726 300.876 97.8463 303.452 96.7317C303.712 96.6193 303.963 95.3024 304.23 95.1771C304.645 94.9812 304.969 95.585 305.008 95.5658C312.03 92.1193 316.846 87.8378 322.308 82.3582V82.3614Z" fill="#CC7862"/>
<path d="M311.809 108.384C312.044 109.133 319.159 112.155 319.586 112.268C319.294 113.218 318.471 114.108 318.419 114.211C313.937 112.962 309.549 112.248 307.922 107.219C309.189 107.382 310.59 108.259 311.809 108.384Z" fill="#CC7862"/>
<path d="M325.415 64.885C327.177 65.0167 327.865 66.0542 328.524 67.6024C325.254 63.7191 324.492 69.4107 324.248 72.2629C323.679 74.3218 325.097 73.4 328.524 73.0402C328.453 73.5285 329.62 73.5574 328.913 74.7875C327.717 76.8721 324.328 76.3453 326.193 79.0595C320.12 81.8185 322.538 77.4824 320.75 71.4856L322.695 66.8251C323.666 66.2919 323.997 65.6238 325.415 64.8818V64.885Z" fill="#F29F74"/>
<path d="M289.649 33.4236C290.986 37.6698 286.389 37.4964 282.068 40.8047C278.341 43.6537 275.056 47.6687 272.152 48.9599C274.255 43.1109 284.039 36.2887 289.649 33.4236Z" fill="#F29F74"/>
<path d="M328.526 67.6021C328.597 67.7659 329.285 70.8783 329.304 71.0967C326.738 70.2712 326.07 70.5346 324.25 72.2627C324.494 69.4104 325.256 63.7188 328.526 67.6021Z" fill="#151113"/>
<path d="M329.305 71.0969C329.472 73.159 328.543 72.9341 328.527 73.0401C325.1 73.3999 323.682 74.3249 324.251 72.2628C326.071 70.538 326.74 70.2746 329.305 71.0969Z" fill="#CC7862"/>
<path d="M276.429 67.6025C274.915 67.8241 274.417 67.2909 274.095 67.2138C273.015 66.9601 273.359 66.838 273.317 66.8252C274.198 64.2396 275.574 65.9965 276.426 67.6025H276.429Z" fill="#F7FAFC"/>
<path d="M311.031 58.6698C315.539 63.0734 318.834 65.0552 320.751 71.4887C322.538 77.4887 320.12 81.8216 326.194 79.0626C324.332 76.3484 327.718 76.8752 328.914 74.7906C329.621 73.5573 328.454 73.5316 328.525 73.0433C328.541 72.9406 329.47 73.1622 329.303 71.1001C329.283 70.8817 328.595 67.7693 328.525 67.6055C327.866 66.0541 327.174 65.0198 325.416 64.8882C328.409 63.3239 331.283 61.9717 333.193 66.4427C335.209 71.1611 332.862 75.902 328.721 78.4844C325.509 80.4887 323.139 80.2478 322.889 80.4276C322.522 80.691 322.937 81.4234 322.307 82.3709C316.844 87.8505 312.028 92.1321 305.006 95.5785C304.968 95.5978 304.643 94.9939 304.228 95.1898C303.961 95.3151 303.711 96.632 303.45 96.7444C300.875 97.859 293.5 99.9853 290.815 100.239C283.401 100.946 276.382 98.874 270.987 93.6353C268.097 90.828 262.04 82.5058 263.988 78.4876C266.824 82.615 274.498 81.5711 273.318 74.7971C272.688 71.1804 264.284 68.2543 276.816 68.3892L277.594 67.8078C278.414 55.3293 260.043 63.0605 273.318 66.8378C273.36 66.8507 273.016 66.9695 274.096 67.2265C270.579 67.734 267.287 67.0016 264.377 69.5584C265.679 65.0455 267.576 60.9728 268.653 56.3507C271.013 53.081 275.797 52.9236 278.958 55.1848C280.739 54.5906 279.253 47.0906 271.958 50.5242C270.859 49.869 272.119 49.0692 272.151 48.9696C275.055 47.6752 278.34 43.6635 282.067 40.8145C286.388 37.5093 290.985 37.6828 289.648 33.4333C292.593 44.8134 303.206 51.0381 311.031 58.6794V58.6698Z" fill="#FAB688"/>
<path d="M294.898 62.9416C297.608 62.6461 298.155 66.6514 304.424 67.0208C293.67 74.312 297.898 63.9758 291.4 69.5454C290.365 67.2938 292.667 63.1857 294.898 62.9416Z" fill="#2B170A"/>
<path d="M276.819 68.3797C276.964 67.474 276.449 67.641 276.43 67.6024C275.578 65.9964 274.202 64.2395 273.321 66.8251C260.046 63.0479 278.417 55.3167 277.597 67.7952L276.819 68.3765V68.3797Z" fill="#2B170A"/>
<path d="M295.675 52.0659C299.391 51.8122 305.703 53.386 305.201 57.6965C296.948 54.5873 288.721 56.7811 295.675 52.0659Z" fill="#2B170A"/>
<path d="M280.12 69.5456C283.595 69.3754 277.683 71.3668 280.509 73.4289C285.425 72.5391 283.2 75.3785 278.953 74.9834C275.956 73.522 278.342 71.1387 280.12 69.5456Z" fill="#9E2336"/>
<path d="M307.53 75.3721C308.912 76.6665 309.53 76.3389 310.639 77.508C307.527 84.8666 294.396 86.8163 294.309 80.4213C294.303 79.9331 294.226 79.2489 294.309 78.8667C294.319 78.8249 294.843 79.0048 294.698 78.0894C299.916 79.9941 302.974 77.6975 293.531 76.9234C297.637 75.6933 299.225 73.3421 301.694 72.2629C305.061 71.3539 305.845 73.7982 307.527 75.3689L307.53 75.3721Z" fill="#F48B63"/>
<path d="M307.531 75.3718C305.85 73.7979 305.065 71.3568 301.699 72.2658C307.615 69.6834 314.399 74.5559 307.531 75.3718Z" fill="#F29F74"/>
<path d="M294.702 78.0893C294.538 78.0283 292.59 77.1867 293.535 76.9233C302.978 77.6942 299.92 79.994 294.702 78.0893Z" fill="#972F1E"/>
<path d="M294.314 78.8667C294.231 79.2457 294.308 79.9299 294.314 80.4213C286.321 90.1985 277.58 90.4812 274.098 77.1194C279.705 82.2778 287.656 80.9962 294.314 78.8667Z" fill="#6E1C29"/>
<path d="M277.402 80.4211C284.646 83.9543 290.613 80.3505 290.816 81.0025C286.372 85.1749 280.167 87.2466 276.82 81.0025L277.402 80.4211Z" fill="#F7FAFC"/>
<path d="M138.406 233.067C139.139 237.891 140.711 242.735 141.125 247.633C142.186 260.115 140.942 272.866 136.849 284.728C128.751 284.683 120.649 284.76 112.55 284.728C112.145 280.543 112.109 276.332 113.328 272.298C109.486 272.776 108.354 284.349 107.496 284.728C105.512 285.599 69.7731 284.709 64.1467 284.728C45.631 267.477 52.6109 236.128 70.7569 221.028C77.7015 227.288 104.544 233.195 114.106 233.847C122.173 234.397 130.358 233.545 138.406 233.07V233.067Z" fill="#0D3C5C"/>
<path d="M151.627 123.924C147.82 122.132 140.609 127.05 137.436 129.751C125.775 139.676 125.234 154.936 112.165 162.767C89.8074 153.956 97.44 139.345 84.7565 129.947C87.9523 154.814 102.571 159.648 117.219 168.982C117.66 169.261 118.631 171.33 119.357 170.148C128.282 175.113 137.725 179.096 147.155 182.967C147.624 183.159 147.846 182.466 148.126 182.578C150.209 183.423 152.186 184.47 154.347 185.295C159.777 187.374 164.931 189.66 170.48 191.511C171.856 191.97 171.744 193.033 171.84 193.065C170.847 196.165 170.934 199.691 170.284 202.775C170.053 203.88 169.574 206.841 169.506 207.047C169.468 207.166 168.715 208.29 168.535 209.379C134.487 209.34 109.207 199.03 80.863 181.412C80.3647 181.104 77.9984 178.052 78.143 180.442C80.1557 192.182 87.4797 214.283 80.4772 223.945L80.6701 225.304C98.5685 231.583 117.721 234.747 136.658 232.296C139.4 231.657 136.693 224.565 135.298 222.198C135.851 222.307 136.298 222.487 136.854 222.586C137.336 225.15 138.828 228.965 139.188 231.326C139.448 233.038 138.397 232.98 138.41 233.073C130.362 233.549 122.177 234.4 114.11 233.851C104.545 233.199 77.7026 227.292 70.7612 221.032C70.1825 220.508 67.1892 216.365 66.8742 215.013C66.8195 207.827 66.6973 169.309 65.3181 166.072C64.5239 164.212 55.3384 157.599 54.0428 145.875C52.2841 129.982 63.4083 119.065 77.3714 113.832C81.7054 122.209 92.0515 134.411 101.864 135.777C100.581 131.736 100.79 127.435 102.253 123.542C102.636 123.558 103.041 123.574 103.42 123.542C97.8805 146.402 113.364 136.763 111.972 126.455C111.705 124.474 109.018 121.695 109.834 121.21C114.75 124.03 111.641 131.209 116.833 133.641C128.633 133.554 127.7 117.818 120.917 111.889L121.109 111.112C132.443 111.491 142.377 117.876 151.63 123.931L151.627 123.924Z" fill="#F5C346"/>
<path d="M151.628 123.924C153.236 124.974 154.934 126.044 156.293 127.419C136.472 136.017 127.113 149.122 118.97 168.59C117.822 168.991 118.249 169.534 119.359 170.144C118.629 171.326 117.661 169.258 117.221 168.978C102.573 159.644 87.9536 154.81 84.7578 129.943C97.4413 139.342 89.8119 153.953 112.166 162.763C125.236 154.932 125.776 139.676 137.437 129.747C140.61 127.046 147.819 122.129 151.628 123.921V123.924Z" fill="#F3B03E"/>
<path d="M120.909 111.883C127.696 117.812 128.626 133.547 116.826 133.634C111.637 131.203 114.746 124.024 109.827 121.204C109.01 121.689 111.698 124.464 111.965 126.449C113.357 136.759 97.8733 146.395 103.413 123.536C110.341 122.977 116.871 113.662 114.299 110.328C115.63 107.864 119.479 110.633 120.909 111.883Z" fill="#F7FAFC"/>
<path d="M85.5321 111.494C87.8373 113.575 94.1453 123.227 102.251 123.536C100.788 127.428 100.579 131.729 101.862 135.77C92.0491 134.402 81.6997 122.203 77.369 113.826C76.8192 112.763 75.2471 112.159 76.7871 110.72C80.2144 111.282 83.2687 109.451 85.5353 111.497L85.5321 111.494Z" fill="#F7FAFC"/>
<path d="M80.8663 181.408C92.4309 205.251 109.577 217.135 135.298 222.191C136.693 224.561 139.4 231.65 136.658 232.289C117.721 234.74 98.5717 231.576 80.6701 225.297L80.4772 223.938C87.4829 214.277 80.1557 192.175 78.1431 180.435C77.9984 178.049 80.3679 181.097 80.863 181.405L80.8663 181.408Z" fill="#F3B03E"/>
<path d="M183.12 194.613C182.085 196.771 183.108 197.195 183.12 197.33C183.188 198.037 183.51 199.543 183.51 199.662C183.51 200.012 183.194 199.479 183.12 200.828C183.092 201.342 183.169 201.872 183.12 202.383C183.114 202.463 182.985 201.959 182.731 203.937C182.715 204.066 182.751 204.197 182.731 204.326C178.828 203.224 173.974 204.875 170.289 202.771C170.935 199.685 170.848 196.161 171.845 193.062C173.581 193.604 179.34 193.935 183.12 194.616V194.613Z" fill="#FAB688"/>
<path d="M182.732 204.323C182.526 205.765 182.375 207.194 181.954 208.595C177.81 208.058 173.63 207.804 169.512 207.04C169.576 206.834 170.058 203.873 170.29 202.768C173.974 204.872 178.826 203.221 182.732 204.323Z" fill="#F29F74"/>
<path d="M209.168 193.45C209.76 193.418 213.078 193.222 213.055 194.031C200.925 200.259 215.257 195.715 227.635 196.556L228.217 197.722C211.901 198.644 215.843 201.567 213.833 204.519C213.364 205.206 210.599 207.663 209.946 207.82C207.268 208.469 193.932 205.418 189.533 205.489C189.469 206.784 189.405 208.078 189.341 209.372C189.212 209.362 189.08 209.385 188.952 209.372C189.357 207.73 188.572 205.871 188.562 204.323C188.562 204.072 188.562 203.799 188.562 203.545C188.562 203.369 188.89 203.002 188.952 200.051C188.958 199.791 188.952 199.534 188.952 199.273C188.958 197.812 188.743 196.495 189.341 196.556C194.485 196.877 204.558 193.691 209.168 193.45Z" fill="#FAB688"/>
<path d="M228.221 197.722C227.616 199.232 226.439 200.333 225.501 201.605C225.369 201.782 225.639 202.774 225.501 202.964C224.24 204.718 220.797 203.398 219.086 204.323C217.199 205.341 220.189 208.604 209.949 210.149V207.817C210.602 207.66 213.37 205.203 213.836 204.515C215.846 201.563 211.904 198.641 228.221 197.719V197.722Z" fill="#E57B69"/>
<path d="M209.945 207.821V210.153C201.789 211.383 196.583 209.995 189.34 209.375C189.404 208.08 189.468 206.785 189.533 205.492C193.928 205.421 207.267 208.473 209.945 207.824V207.821Z" fill="#F29F74"/>
<path d="M188.564 204.323C188.574 205.871 189.355 207.731 188.953 209.372C188.892 209.366 188.789 210.23 187.982 210.149C187.423 210.095 184.13 208.877 181.957 208.595C182.378 207.194 182.529 205.765 182.735 204.323C182.754 204.197 182.719 204.063 182.735 203.934L188.567 204.323H188.564Z" fill="#071A2D"/>
<path d="M189.342 196.556C188.744 196.495 188.96 197.812 188.953 199.274L183.51 199.662C183.51 199.544 183.189 198.037 183.121 197.33L185.455 195.776C185.639 195.805 187.924 195.654 189.149 195.776C189.474 195.808 189.304 196.55 189.342 196.553V196.556Z" fill="#062F44"/>
<path d="M185.453 195.779L183.119 197.334C183.106 197.199 182.084 196.775 183.119 194.616C185.428 195.031 185.322 195.76 185.453 195.782V195.779Z" fill="#D3D6C6"/>
<path d="M188.952 200.051C188.891 203.006 188.563 203.372 188.563 203.546C185.776 203.057 183.792 200.947 183.12 202.38C183.168 201.869 183.091 201.339 183.12 200.825L188.952 200.048V200.051Z" fill="#071A2D"/>
<path d="M188.563 203.549C188.563 203.803 188.563 204.076 188.563 204.326L182.73 203.938C182.984 201.959 183.113 202.463 183.12 202.383C183.791 200.95 185.775 203.061 188.563 203.549Z" fill="#0F75A6"/>
<path d="M188.953 199.273C188.953 199.534 188.96 199.791 188.953 200.051L183.121 200.828C183.195 199.479 183.51 200.015 183.51 199.662L188.953 199.273Z" fill="#F7FAFC"/>
<path d="M62.2041 71.4856C62.4741 71.7714 65.4352 78.2468 66.8692 76.9234C67.6761 78.1504 68.9268 80.3056 69.9781 80.0294C70.1903 79.9748 70.5054 80.0551 70.7562 80.0294C70.1389 86.7681 71.9908 82.7435 73.0903 83.524C70.6726 84.2403 72.4634 88.5989 71.9233 92.6524C69.6727 109.544 43.0389 112.949 31.8762 98.8676C15.8361 78.6322 37.5604 45.2085 62.2009 71.4856H62.2041Z" fill="#3E2614"/>
<path d="M122.465 89.3537C126.87 87.857 132.634 83.5176 134.907 79.448C138.524 72.9759 137.579 67.8882 136.852 60.9985C136.656 59.142 134.804 47.4793 134.518 46.8209C133.878 45.3401 132.039 44.9162 131.409 43.3262C129.528 38.5725 129.924 34.3456 124.799 27.2086C121.635 22.8018 117.34 19.2525 112.553 16.7215C117.742 28.4066 111.415 40.1496 100.306 45.2695C110.296 50.3508 101.371 47.6463 92.1434 50.7073C93.2108 47.9964 92.4488 48.7898 87.0893 50.126C85.6361 50.4889 83.5527 50.4183 83.3951 50.5146C82.6332 50.9804 80.3279 65.1644 80.09 67.2169C76.5663 56.4279 65.2653 60.0863 68.0367 68.9642C69.1555 72.5455 76.8782 77.3089 79.701 73.8207C82.8679 80.9641 87.5169 86.5368 95.2524 88.9683C95.7636 89.903 95.037 91.2456 94.8634 92.0743C77.4794 95.1899 74.1646 84.2949 73.0908 83.5304C71.9944 82.7499 70.1426 86.7713 70.7566 80.0358C70.7663 79.917 72.6825 79.2039 70.5637 78.4812L69.9818 80.0358C68.9305 80.3088 67.6766 78.1568 66.8728 76.9298L67.6509 75.5712C65.0434 73.6761 65.4614 74.781 66.8728 76.9298C65.4389 78.2532 62.4746 71.7778 62.2077 71.492C65.7347 69.8635 62.7929 69.6033 61.0406 65.0841C55.8033 51.581 56.3981 35.2578 65.7057 23.5245C79.476 6.16698 117.768 3.864 131.801 21.9699C139.084 31.3649 136.55 39.0222 136.856 41.0008C137.049 42.2631 143.193 51.0189 142.688 64.6955C142.267 76.1204 135.91 90.0347 123.053 90.9147L122.471 89.3602L122.465 89.3537Z" fill="#3E2614"/>
<path d="M66.8672 76.9233C65.4558 74.7713 65.0378 73.6696 67.6452 75.5647L66.8672 76.9233Z" fill="#F7FAFC"/>
<path d="M70.7585 80.0326C70.511 80.0583 70.1927 79.978 69.9805 80.0326L70.5624 78.478C72.6811 79.2007 70.7682 79.9138 70.7553 80.0326H70.7585Z" fill="#F7FAFC"/>
<path d="M111.579 109.162C113.177 110.122 114.209 110.209 114.299 110.328C116.871 113.662 110.341 122.977 103.413 123.535C103.033 123.568 102.628 123.552 102.246 123.535C94.1438 123.227 87.8326 113.575 85.5273 111.494C87.7072 109.149 91.1087 111.208 93.3046 103.339C98.1273 108.282 109.38 107.312 110.216 107.611C110.329 107.652 110.837 108.719 111.576 109.165L111.579 109.162Z" fill="#FAB688"/>
<path d="M110.028 97.1235C110.105 99.5324 111.005 106.412 111.584 109.165C110.844 108.719 110.336 107.652 110.224 107.611C109.388 107.312 98.1351 108.282 93.3125 103.339C93.5826 102.375 94.2095 97.7916 94.4796 95.9575C99.5337 97.5635 104.803 97.8333 110.031 97.1235H110.028Z" fill="#F29F74"/>
<path d="M108.861 90.9083C110.095 90.95 110.221 91.2969 110.417 91.2969C110.87 93.1567 109.973 95.3665 110.028 97.1235C104.8 97.8365 99.5307 97.5635 94.4766 95.9575C94.6663 94.6759 94.5827 93.4361 94.8656 92.0742C95.0392 91.2456 95.7658 89.8997 95.2546 88.9683C99.3571 90.2595 104.553 90.7638 108.861 90.9115V90.9083Z" fill="#CC7862"/>
<path d="M87.0882 50.1228C81.8379 67.7533 81.0084 83.9512 102.058 89.3538C103.723 89.781 108.748 89.5144 108.861 90.9084C104.553 90.7638 99.3569 90.2563 95.2545 88.9651C87.519 86.5337 82.87 80.9609 79.7031 73.8175C80.703 72.5809 79.851 69.295 80.0921 67.2137C80.3301 65.1612 82.6353 50.9772 83.3973 50.5114C83.5548 50.4151 85.6382 50.4858 87.0914 50.1228H87.0882Z" fill="#F29F74"/>
<path d="M124.801 27.2085C129.926 34.3487 129.527 38.5756 131.411 43.3261C132.041 44.9161 133.881 45.34 134.52 46.8208C134.806 47.4792 136.658 59.1419 136.854 60.9984C135.363 62.8453 138.211 65.8292 135.687 66.4362C135.305 61.1911 131.534 60.7511 127.135 61.387C127.264 59.8838 126.299 60.1312 126.357 60.0284C126.563 59.6622 127.833 59.8646 128.302 59.8356C128.431 59.826 128.563 59.8517 128.691 59.8356C133.559 59.235 131.125 59.3506 131.411 58.2811C131.723 57.1247 131.402 57.507 131.411 57.1151C131.463 54.7897 131.341 49.4257 129.466 47.794C130.411 47.3379 129.649 46.0692 129.466 45.4621C128.177 41.1741 127.37 36.6613 125.968 32.4504C125.444 30.8733 121.56 26.5115 124.801 27.2053V27.2085Z" fill="#F29F74"/>
<path d="M135.687 66.4364C136.105 72.1762 130.861 75.6419 126.549 73.0402C123.395 71.1355 123.238 63.9568 127.909 63.9118C124.971 61.6409 127.077 62.0296 127.131 61.3872C131.53 60.7544 135.304 61.1913 135.683 66.4364H135.687Z" fill="#F48B63"/>
<path d="M131.409 57.1152C131.399 57.5071 131.721 57.1216 131.409 58.2812C129.313 56.2865 129.081 57.1634 128.689 59.8358C128.564 59.8518 128.429 59.8261 128.3 59.8358C126.352 57.3112 122.108 61.1623 121.497 61.0017C118.076 56.8229 126.828 51.8444 131.412 57.1184L131.409 57.1152Z" fill="#221A10"/>
<path d="M131.407 58.2812C131.121 59.3508 133.552 59.2352 128.688 59.8358C129.08 57.1634 129.314 56.2866 131.407 58.2812Z" fill="#FEF9EF"/>
<path d="M80.0881 67.2135C79.8469 69.2949 80.6989 72.5807 79.699 73.8174C76.8762 77.3056 69.1536 72.5422 68.0347 68.9609C65.2633 60.083 76.5611 56.4245 80.0881 67.2135Z" fill="#FAB688"/>
<path d="M73.4779 67.9911C74.8186 68.3155 76.3136 67.0693 76.5869 65.6592C76.7445 65.823 78.1848 64.7856 77.754 68.9611C72.6259 72.8283 73.5358 68.338 73.4779 67.9911Z" fill="#F48B63"/>
<path d="M76.59 65.659C76.3168 67.0659 74.8185 68.3121 73.481 67.9909C72.9473 64.8721 72.9988 62.1194 76.9791 63.9117C77.1752 64.9717 75.0854 64.1076 76.59 65.659Z" fill="#151113"/>
<path d="M124.8 27.2088C121.559 26.515 125.44 30.8736 125.967 32.4539C127.369 36.6648 128.176 41.1776 129.465 45.4656C125.362 41.6916 117.556 43.4999 119.549 47.7975C122.086 46.6476 127.359 45.9635 129.465 47.7975C131.336 49.4292 131.461 54.7932 131.41 57.1186C126.825 51.8446 118.077 56.8231 121.495 61.0019C122.105 61.1625 126.349 57.3113 128.298 59.836C127.832 59.8681 126.562 59.6625 126.353 60.0287C126.295 60.1347 127.256 59.8841 127.131 61.3873C127.076 62.0297 124.97 61.6411 127.909 63.9119C123.237 63.9569 123.395 71.1357 126.549 73.0404C130.857 75.642 136.104 72.1763 135.686 66.4365C138.21 65.8295 135.361 62.8456 136.853 60.9987C137.58 67.8884 138.525 72.9761 134.908 79.4482C132.635 83.5178 126.873 87.8539 122.466 89.3539C118.765 90.613 114.306 91.2779 110.412 91.2972C110.216 91.2972 110.091 90.9503 108.856 90.9085C108.744 89.5177 103.718 89.7811 102.053 89.3539C81.0038 83.9514 81.8365 67.7567 87.0835 50.123C92.4431 48.7868 93.205 47.9934 92.1376 50.7043C101.368 47.6433 110.293 50.3478 100.301 45.2665C111.409 40.1466 117.736 28.4036 112.547 16.7185C117.334 19.2495 121.63 22.7988 124.793 27.2056L124.8 27.2088Z" fill="#FAB688"/>
<path d="M105.75 62.1644C105.583 62.1258 105.001 61.8079 104.972 61.7757C103.67 60.2051 103.766 58.2683 102.252 61.7757C81.9936 61.8592 105.686 50.7169 106.528 61.583L105.75 62.1644Z" fill="#2B170A"/>
<path d="M95.6411 67.2137C97.7855 68.46 99.9654 70.4353 102.251 71.4856C101.766 71.4439 101.891 71.8743 101.862 71.8743C100.181 71.9514 100.952 74.3025 99.9171 75.9535C95.3035 83.3185 78.2571 73.0081 91.365 65.2737C93.1301 66.1923 93.6799 66.0767 95.6411 67.2169V67.2137Z" fill="#F48B63"/>
<path d="M105.748 62.1645C106.461 64.3069 99.0506 65.9257 95.6394 67.2137C93.6781 66.0735 93.1284 66.1923 91.3633 65.2705C95.44 62.8647 99.0184 62.8583 103.417 62.1645C104.163 62.0457 104.982 62.4472 104.973 61.7759C105.002 61.808 105.58 62.126 105.751 62.1645H105.748Z" fill="#F29F74"/>
<path d="M129.47 45.4621C129.653 46.0692 130.415 47.3379 129.47 47.794C127.364 45.96 122.091 46.6442 119.554 47.794C117.561 43.4964 125.367 41.6881 129.47 45.4621Z" fill="#2B170A"/>
<path d="M111.777 64.885C112.671 64.7661 110.529 71.068 115.664 67.6023C117.378 71.4759 107.668 70.1879 111.777 64.885Z" fill="#9E2336"/>
<path d="M104.973 61.7758C104.983 62.4471 104.163 62.0456 103.417 62.1645C102.07 62.3508 102.311 61.7758 102.25 61.7758C103.768 58.2684 103.668 60.2052 104.97 61.7758H104.973Z" fill="#F7FAFC"/>
<path d="M101.859 71.8742C101.888 71.8742 101.763 71.4438 102.248 71.4855C109.261 74.7039 117.182 75.3881 123.439 70.3196C125.973 72.2628 113.99 90.8505 101.863 71.8742H101.859Z" fill="#4C1E1B"/>
<path d="M120.33 73.04L121.301 73.2328C117.254 79.4222 110.64 80.222 105.75 74.3987C106.039 73.7113 112.92 76.994 120.33 73.04Z" fill="#F7FAFC"/>
</svg>
